M48
;DRILL file {Pcbnew (2013-07-07 BZR 4022)-stable} date 23/05/2015 19:39:02
;FORMAT={3:3/ absolute / metric / suppress leading zeros}
FMAT,2
METRIC,TZ
T1C0.300
T2C0.400
T3C0.450
T4C0.500
T5C0.762
T6C1.016
%
G90
G05
M71
T1
X201219Y-106096
X201574Y-113741
X201727Y-103683
X203479Y-118593
X203530Y-116205
X203556Y-106274
X203581Y-108585
X203657Y-112471
X204114Y-103556
X204991Y-119939
X205156Y-146507
X205359Y-143485
X205588Y-139941
X205765Y-105131
X206286Y-107937
X206286Y-113741
X206642Y-110681
X206680Y-143510
X207112Y-148742
X207886Y-116764
X207912Y-115138
X207912Y-115951
X207963Y-114351
X207975Y-109347
X208064Y-112509
X208204Y-118250
X208293Y-117450
X208864Y-137135
X208940Y-121158
X209182Y-136296
X209245Y-135433
X209614Y-134760
X209728Y-122885
X210007Y-124003
X210058Y-127318
X210185Y-134188
X210350Y-112446
X210363Y-115913
X210376Y-115113
X210376Y-116688
X210401Y-118250
X210414Y-144704
X210439Y-114287
X210439Y-117475
X210668Y-133477
X210718Y-132537
X210769Y-127800
X210769Y-131547
X211099Y-109423
X211696Y-118859
X211988Y-112357
X212268Y-120663
X212369Y-104597
X212408Y-126632
X213208Y-130162
X213449Y-119621
X213792Y-137224
X213932Y-110401
X214122Y-115672
X214173Y-114808
X214452Y-145390
X214516Y-136690
X214681Y-114198
X215100Y-117843
X215100Y-122593
X215240Y-113640
X215316Y-139522
X215519Y-137135
X215646Y-123139
X215671Y-106883
X215849Y-103327
X216154Y-113614
X216294Y-137211
X216344Y-122238
X216459Y-128842
X217106Y-137224
X217297Y-128727
X217449Y-123977
X217500Y-112776
X217716Y-116967
X217754Y-114160
X217957Y-137338
X218186Y-143891
X218491Y-128753
X219456Y-103657
X219672Y-116548
X219774Y-125082
X220104Y-120726
X220320Y-143993
X221018Y-138024
X221031Y-128753
X221285Y-109906
X221323Y-135280
X221386Y-136081
X221526Y-137376
X221831Y-128270
X221856Y-134607
X221933Y-123190
X222034Y-136754
X222047Y-147549
X222136Y-120155
X222771Y-103556
X222923Y-132448
X223253Y-137554
X223634Y-126987
X224206Y-117577
X224206Y-127991
X224663Y-129362
X225069Y-147955
X225527Y-112903
X226263Y-145313
X226441Y-117348
X226593Y-104419
X227203Y-107442
X227686Y-111303
X227724Y-132372
X227762Y-135357
X227876Y-124790
X227914Y-122390
X228625Y-127813
X229133Y-103378
X229210Y-137020
X229235Y-135496
X229260Y-134188
X229311Y-142494
X229552Y-133109
X229591Y-128003
X229794Y-107290
X229908Y-117145
X230124Y-110592
X230124Y-144958
X230162Y-128600
X230175Y-117907
X230188Y-130035
X230505Y-133312
X230594Y-129223
X231216Y-102540
X231356Y-143078
X231407Y-145212
X231419Y-133210
X231445Y-119799
X232207Y-130607
X232283Y-104800
X232308Y-107442
X232626Y-129223
X232651Y-145186
X232664Y-142875
X232766Y-131204
X232816Y-103530
X233172Y-131839
X233934Y-126949
X233934Y-142761
X233934Y-145047
X233947Y-103746
X234023Y-104877
X234290Y-122669
X234379Y-123736
X234671Y-137503
X234683Y-115291
X234696Y-102641
X234836Y-126962
X234899Y-127876
X235166Y-143002
X235179Y-122936
X235204Y-121552
X235217Y-145136
X235306Y-110134
X236195Y-129819
X236423Y-133706
X236550Y-121590
X236842Y-131686
X236906Y-102692
X237096Y-148082
X237109Y-143485
X237401Y-134684
X237630Y-125793
X237668Y-119037
X237973Y-141402
X238049Y-105423
X238138Y-126429
X238214Y-127216
X238836Y-140310
X238989Y-144691
X239395Y-108420
X239471Y-102565
X239547Y-106197
X239636Y-117856
X239662Y-131877
X239979Y-106909
X240398Y-138786
X240589Y-117145
X241224Y-109690
X241236Y-115291
X241567Y-141110
X241795Y-111697
X241795Y-136741
X241833Y-125476
X243230Y-103734
X243408Y-113119
X243916Y-101549
X243942Y-143307
X244018Y-133985
X244145Y-147130
X244196Y-140386
X244665Y-136728
X245364Y-125806
X245821Y-149123
X245847Y-104394
X245974Y-129007
X246520Y-111874
X246977Y-115468
X247802Y-101752
X248056Y-143408
X248234Y-140437
X248272Y-147244
X248298Y-136779
X248488Y-104013
X248818Y-113246
T2
X208077Y-110871
X208153Y-139903
X210795Y-111125
X210934Y-119901
X211671Y-128194
X224193Y-131420
X227152Y-119774
X238925Y-137808
X240919Y-135001
X241668Y-127089
X245656Y-119647
T3
X211773Y-125298
X212611Y-131750
X215367Y-131572
T4
X210160Y-139649
X216040Y-144094
T5
X218783Y-109576
X223863Y-109576
T6
X201284Y-101041
X203824Y-101041
X206070Y-125400
X206070Y-127940
X206070Y-130480
X206070Y-133020
X206070Y-135560
X206070Y-138100
X206364Y-101041
X208900Y-101041
X210424Y-149301
X211440Y-101041
X212964Y-149301
X213980Y-101041
X215504Y-149301
X216520Y-101041
X218044Y-149301
X219060Y-101041
X220584Y-149301
X223124Y-101041
X223124Y-149301
X225664Y-101041
X228204Y-101041
X228204Y-146761
X228204Y-149301
X230744Y-101041
X230744Y-146761
X230744Y-149301
X233284Y-101041
X233284Y-146761
X233284Y-149301
X235824Y-101041
X235824Y-146761
X235824Y-149301
X238364Y-101041
X238364Y-146761
X238364Y-149301
X240904Y-101041
X240904Y-146761
X240904Y-149301
X248374Y-120891
X248374Y-123431
X248374Y-125971
X248374Y-128511
T0
M30
