G04 (created by PCBNEW (2013-07-07 BZR 4022)-stable) date 23/05/2015 19:38:58*
%MOIN*%
G04 Gerber Fmt 3.4, Leading zero omitted, Abs format*
%FSLAX34Y34*%
G01*
G70*
G90*
G04 APERTURE LIST*
%ADD10C,0.00590551*%
%ADD11R,0.08X0.06*%
%ADD12R,0.06X0.08*%
%ADD13R,0.035X0.055*%
%ADD14R,0.055X0.035*%
%ADD15R,0.025X0.045*%
%ADD16R,0.045X0.025*%
%ADD17R,0.06X0.06*%
%ADD18C,0.06*%
%ADD19C,0.056*%
%ADD20C,0.023622*%
%ADD21C,0.0314961*%
%ADD22C,0.0393701*%
%ADD23C,0.0433071*%
%ADD24C,0.011811*%
%ADD25C,0.019685*%
%ADD26C,0.0275591*%
%ADD27C,0.0354331*%
%ADD28C,0.00787402*%
%ADD29C,0.00866142*%
G04 APERTURE END LIST*
G54D10*
G54D11*
X83980Y-56020D03*
X83980Y-54720D03*
G54D12*
X84360Y-52820D03*
X85660Y-52820D03*
G54D13*
X88720Y-46585D03*
X87970Y-46585D03*
G54D14*
X84890Y-56165D03*
X84890Y-55415D03*
X87935Y-47770D03*
X87935Y-48520D03*
G54D13*
X85880Y-46635D03*
X86630Y-46635D03*
G54D14*
X91125Y-47785D03*
X91125Y-48535D03*
G54D15*
X87200Y-51235D03*
X87800Y-51235D03*
G54D16*
X84140Y-48495D03*
X84140Y-47895D03*
X84180Y-49615D03*
X84180Y-50215D03*
X88835Y-48145D03*
X88835Y-47545D03*
G54D15*
X85180Y-47450D03*
X85780Y-47450D03*
G54D16*
X90225Y-48335D03*
X90225Y-48935D03*
G54D15*
X86140Y-48075D03*
X85540Y-48075D03*
X88690Y-45810D03*
X88090Y-45810D03*
G54D17*
X81130Y-54370D03*
G54D18*
X81130Y-53370D03*
X81130Y-52370D03*
X81130Y-51370D03*
X81130Y-50370D03*
X81130Y-49370D03*
G54D19*
X86135Y-43140D03*
X88135Y-43140D03*
G54D17*
X94844Y-39780D03*
G54D18*
X92844Y-39780D03*
X91844Y-39780D03*
X90844Y-39780D03*
X89844Y-39780D03*
X88844Y-39780D03*
X87844Y-39780D03*
G54D17*
X86244Y-39780D03*
G54D18*
X85244Y-39780D03*
X84244Y-39780D03*
X83244Y-39780D03*
X82244Y-39780D03*
X81245Y-39780D03*
X93844Y-39780D03*
G54D17*
X94844Y-58780D03*
G54D18*
X93844Y-58780D03*
X92844Y-58780D03*
X91844Y-58780D03*
X90844Y-58780D03*
X89844Y-58780D03*
X87844Y-58780D03*
X85844Y-58780D03*
X84844Y-58780D03*
X83844Y-58780D03*
X82844Y-58780D03*
X86844Y-58780D03*
X89844Y-57780D03*
X90844Y-57780D03*
X91844Y-57780D03*
X92844Y-57780D03*
X93844Y-57780D03*
X94844Y-57780D03*
X80245Y-39780D03*
X79245Y-39780D03*
G54D14*
X94865Y-47745D03*
X94865Y-48495D03*
X94890Y-51105D03*
X94890Y-51855D03*
G54D17*
X97785Y-50595D03*
G54D18*
X97785Y-49595D03*
X97785Y-48595D03*
X97785Y-47595D03*
G54D16*
X90235Y-47055D03*
X90235Y-47655D03*
G54D20*
X92590Y-48400D03*
X92990Y-51110D03*
X93130Y-47870D03*
X92600Y-47855D03*
X81875Y-45020D03*
X82850Y-44995D03*
X85100Y-44730D03*
X84170Y-54025D03*
X82230Y-53990D03*
X82700Y-50125D03*
X82960Y-52180D03*
X87015Y-54340D03*
X87215Y-54085D03*
X82980Y-51790D03*
X82980Y-50315D03*
X84520Y-44960D03*
X82820Y-45635D03*
X81855Y-45650D03*
X82380Y-53320D03*
X84850Y-53990D03*
X82850Y-46250D03*
X85475Y-54025D03*
X82750Y-52830D03*
X82005Y-46240D03*
X84300Y-45540D03*
X84455Y-53815D03*
X82355Y-53660D03*
X81855Y-45330D03*
X82825Y-45320D03*
X84740Y-44740D03*
X85155Y-54020D03*
X82525Y-53055D03*
X81845Y-45970D03*
X82825Y-45940D03*
X84320Y-45200D03*
X81970Y-46555D03*
X82940Y-52550D03*
X85810Y-54070D03*
X82835Y-46555D03*
X83345Y-46795D03*
X84900Y-48480D03*
X85550Y-50680D03*
X85630Y-44400D03*
X85175Y-48125D03*
X86020Y-50690D03*
X92105Y-40845D03*
X93755Y-49775D03*
X92455Y-49985D03*
X91640Y-51655D03*
X90750Y-52485D03*
X87135Y-53260D03*
X87345Y-52995D03*
X93785Y-50085D03*
X92480Y-50345D03*
X91800Y-51905D03*
X91110Y-52445D03*
X90785Y-50875D03*
X94720Y-46120D03*
X90615Y-50630D03*
X94970Y-43185D03*
X94480Y-42090D03*
X90390Y-50395D03*
X94645Y-54640D03*
X89715Y-49130D03*
X84685Y-48265D03*
X85220Y-50725D03*
X87415Y-53840D03*
X94345Y-46400D03*
X90625Y-51195D03*
X89655Y-52115D03*
X90375Y-52405D03*
X91420Y-51420D03*
X92100Y-49980D03*
X93555Y-49525D03*
X92135Y-41290D03*
X87160Y-53575D03*
X89150Y-46200D03*
X87455Y-47305D03*
X87020Y-50690D03*
X85730Y-44945D03*
G54D21*
X81920Y-43650D03*
X82990Y-43750D03*
G54D20*
X81355Y-43575D03*
G54D21*
X81950Y-55080D03*
G54D20*
X94310Y-41810D03*
X90620Y-46420D03*
X92275Y-48715D03*
X91585Y-50875D03*
X93245Y-51845D03*
X93570Y-46865D03*
X92240Y-48295D03*
X82260Y-47700D03*
X82570Y-48380D03*
X93720Y-41505D03*
X90515Y-46120D03*
G54D21*
X94850Y-53150D03*
X95145Y-50035D03*
X96715Y-47105D03*
X94065Y-54255D03*
G54D22*
X83375Y-49330D03*
G54D21*
X83045Y-47205D03*
G54D22*
X84790Y-51800D03*
X83705Y-51870D03*
G54D21*
X83335Y-50470D03*
X88265Y-51740D03*
X89430Y-47155D03*
G54D23*
X82740Y-54980D03*
G54D20*
X85715Y-46050D03*
X87335Y-50500D03*
X88270Y-50390D03*
X80705Y-47220D03*
X81215Y-44780D03*
X82680Y-48820D03*
X84770Y-54930D03*
X93465Y-53025D03*
X94355Y-51920D03*
X92390Y-54135D03*
X90240Y-53945D03*
X90260Y-52830D03*
X87895Y-54155D03*
X89670Y-53290D03*
X88450Y-50930D03*
X90010Y-50320D03*
X87375Y-48500D03*
X83570Y-47505D03*
X83625Y-49855D03*
X88045Y-49995D03*
X87765Y-52145D03*
X91120Y-47165D03*
X87420Y-58090D03*
X88610Y-58250D03*
X89080Y-57210D03*
X93080Y-52640D03*
X96325Y-53830D03*
X97755Y-53850D03*
X90250Y-53345D03*
X90280Y-56100D03*
X90600Y-57070D03*
X91085Y-56330D03*
X91105Y-57170D03*
X91595Y-57160D03*
X91600Y-56250D03*
X92100Y-56205D03*
X92100Y-57105D03*
X92605Y-57140D03*
X92585Y-56300D03*
X93350Y-56490D03*
X93345Y-58300D03*
X94090Y-56965D03*
X93690Y-55670D03*
X94030Y-55240D03*
X95105Y-55555D03*
X96780Y-58710D03*
X96120Y-57925D03*
X97745Y-57970D03*
X97660Y-56460D03*
X96040Y-56420D03*
X96140Y-55270D03*
X97730Y-55290D03*
X95195Y-53835D03*
X96070Y-52750D03*
X96840Y-50790D03*
X96600Y-49530D03*
X95210Y-49400D03*
X91460Y-42300D03*
X91450Y-41260D03*
X90210Y-40700D03*
X91030Y-40370D03*
X93270Y-40430D03*
X92400Y-40410D03*
X91660Y-40760D03*
X94280Y-40380D03*
X96790Y-41100D03*
X95760Y-40840D03*
X96030Y-39980D03*
X97560Y-40060D03*
X97830Y-40950D03*
X97235Y-45460D03*
X97960Y-44585D03*
X97055Y-44045D03*
X92395Y-45390D03*
X94975Y-45390D03*
X95830Y-44535D03*
X95195Y-43975D03*
X94250Y-42685D03*
X92640Y-43360D03*
X83610Y-41180D03*
X88790Y-44450D03*
X89640Y-43820D03*
X90600Y-43540D03*
X90470Y-42240D03*
X89450Y-42300D03*
X89210Y-41110D03*
X87120Y-43270D03*
X87705Y-40770D03*
X86400Y-40810D03*
X84910Y-42080D03*
X84980Y-40680D03*
X80110Y-46690D03*
X80130Y-45750D03*
X79360Y-44780D03*
X84225Y-43465D03*
X83110Y-43080D03*
X80180Y-44280D03*
X80150Y-42750D03*
X80140Y-41840D03*
X79220Y-41770D03*
X79420Y-40820D03*
X80360Y-40770D03*
X81010Y-41390D03*
X81215Y-42495D03*
X81880Y-43050D03*
X84035Y-47095D03*
X86485Y-45885D03*
X84685Y-46395D03*
X81915Y-44295D03*
X82815Y-44270D03*
X83460Y-44235D03*
X86655Y-47530D03*
X85610Y-48810D03*
X86525Y-49245D03*
X83940Y-51245D03*
X80940Y-55095D03*
X82840Y-56970D03*
X86740Y-56690D03*
X85900Y-56650D03*
X84430Y-57240D03*
X81370Y-56500D03*
X81540Y-58560D03*
X80770Y-57680D03*
X80850Y-56490D03*
X88270Y-46290D03*
X89730Y-48185D03*
G54D23*
X85055Y-56730D03*
G54D24*
X92730Y-48540D02*
X92730Y-49300D01*
X92590Y-48400D02*
X92730Y-48540D01*
X92730Y-51010D02*
X92830Y-51110D01*
X92730Y-49300D02*
X92730Y-51010D01*
X92830Y-51110D02*
X92990Y-51110D01*
X92615Y-47870D02*
X93130Y-47870D01*
X92600Y-47855D02*
X92615Y-47870D01*
X80525Y-48825D02*
X80525Y-48400D01*
X80950Y-46285D02*
X80950Y-45775D01*
X80255Y-46980D02*
X80950Y-46285D01*
X80255Y-48130D02*
X80255Y-46980D01*
X80525Y-48400D02*
X80255Y-48130D01*
X81635Y-45090D02*
X80950Y-45775D01*
X81805Y-45090D02*
X81635Y-45090D01*
X81875Y-45020D02*
X81805Y-45090D01*
X83600Y-44995D02*
X82850Y-44995D01*
X84100Y-44495D02*
X83600Y-44995D01*
X84865Y-44495D02*
X84100Y-44495D01*
X85100Y-44730D02*
X84865Y-44495D01*
X80950Y-45775D02*
X80935Y-45790D01*
X80525Y-53560D02*
X80590Y-53625D01*
X80525Y-48810D02*
X80525Y-48825D01*
X80525Y-48825D02*
X80525Y-53560D01*
X90340Y-58275D02*
X90844Y-58780D01*
X90340Y-56740D02*
X90340Y-58275D01*
X89405Y-55805D02*
X90340Y-56740D01*
X86040Y-55805D02*
X89405Y-55805D01*
X84415Y-54180D02*
X86040Y-55805D01*
X84325Y-54180D02*
X84415Y-54180D01*
X84170Y-54025D02*
X84325Y-54180D01*
X82110Y-53870D02*
X82230Y-53990D01*
X80835Y-53870D02*
X82110Y-53870D01*
X80590Y-53625D02*
X80835Y-53870D01*
X82700Y-50125D02*
X82700Y-51975D01*
X82700Y-51975D02*
X82905Y-52180D01*
X82905Y-52180D02*
X82960Y-52180D01*
X87015Y-54340D02*
X87330Y-54655D01*
X87330Y-54655D02*
X92215Y-54655D01*
X92215Y-54655D02*
X93844Y-56284D01*
X93844Y-57780D02*
X93844Y-56284D01*
X94844Y-56414D02*
X94844Y-57780D01*
X92900Y-54470D02*
X94844Y-56414D01*
X87600Y-54470D02*
X92900Y-54470D01*
X87215Y-54085D02*
X87600Y-54470D01*
X82980Y-50315D02*
X82980Y-51790D01*
X84520Y-44960D02*
X84505Y-44945D01*
X84505Y-44945D02*
X84210Y-44945D01*
X84210Y-44945D02*
X83520Y-45635D01*
X83520Y-45635D02*
X82820Y-45635D01*
X81855Y-45650D02*
X81800Y-45705D01*
X81800Y-45705D02*
X81750Y-45705D01*
X81750Y-45705D02*
X81320Y-46135D01*
X81320Y-46135D02*
X81320Y-48320D01*
X81320Y-48320D02*
X81875Y-48875D01*
X81875Y-48875D02*
X81875Y-52815D01*
X81875Y-52815D02*
X82380Y-53320D01*
X91345Y-58280D02*
X91844Y-58780D01*
X91345Y-55855D02*
X91345Y-58280D01*
X90890Y-55400D02*
X91345Y-55855D01*
X86185Y-55400D02*
X90890Y-55400D01*
X84905Y-54120D02*
X86185Y-55400D01*
X84905Y-54045D02*
X84905Y-54120D01*
X84850Y-53990D02*
X84905Y-54045D01*
X82860Y-46250D02*
X82850Y-46250D01*
X92345Y-58280D02*
X92844Y-58780D01*
X92345Y-56035D02*
X92345Y-58280D01*
X91335Y-55025D02*
X92345Y-56035D01*
X86420Y-55025D02*
X91335Y-55025D01*
X85510Y-54115D02*
X86420Y-55025D01*
X85510Y-54060D02*
X85510Y-54115D01*
X85475Y-54025D02*
X85510Y-54060D01*
X82245Y-52325D02*
X82750Y-52830D01*
X82245Y-48710D02*
X82245Y-52325D01*
X81710Y-48175D02*
X82245Y-48710D01*
X81710Y-46455D02*
X81710Y-48175D01*
X81900Y-46265D02*
X81710Y-46455D01*
X81980Y-46265D02*
X81900Y-46265D01*
X82005Y-46240D02*
X81980Y-46265D01*
X83590Y-46250D02*
X82860Y-46250D01*
X84300Y-45540D02*
X83590Y-46250D01*
X90844Y-56114D02*
X90844Y-57780D01*
X90345Y-55615D02*
X90844Y-56114D01*
X86115Y-55615D02*
X90345Y-55615D01*
X84580Y-54080D02*
X86115Y-55615D01*
X84580Y-53940D02*
X84580Y-54080D01*
X84455Y-53815D02*
X84580Y-53940D01*
X81680Y-52985D02*
X82355Y-53660D01*
X81680Y-48972D02*
X81680Y-52985D01*
X81130Y-48422D02*
X81680Y-48972D01*
X81130Y-46020D02*
X81130Y-48422D01*
X81730Y-45420D02*
X81130Y-46020D01*
X81765Y-45420D02*
X81730Y-45420D01*
X81855Y-45330D02*
X81765Y-45420D01*
X83555Y-45320D02*
X82825Y-45320D01*
X84160Y-44715D02*
X83555Y-45320D01*
X84715Y-44715D02*
X84160Y-44715D01*
X84740Y-44740D02*
X84715Y-44715D01*
X91844Y-55824D02*
X91844Y-57780D01*
X91230Y-55210D02*
X91844Y-55824D01*
X86320Y-55210D02*
X91230Y-55210D01*
X85245Y-54135D02*
X86320Y-55210D01*
X85245Y-54110D02*
X85245Y-54135D01*
X85155Y-54020D02*
X85245Y-54110D01*
X82060Y-52590D02*
X82525Y-53055D01*
X82060Y-48790D02*
X82060Y-52590D01*
X81515Y-48245D02*
X82060Y-48790D01*
X81515Y-46300D02*
X81515Y-48245D01*
X81845Y-45970D02*
X81515Y-46300D01*
X83545Y-45940D02*
X82825Y-45940D01*
X84230Y-45255D02*
X83545Y-45940D01*
X84265Y-45255D02*
X84230Y-45255D01*
X84320Y-45200D02*
X84265Y-45255D01*
X81970Y-46555D02*
X81900Y-46625D01*
X81900Y-46625D02*
X81900Y-48085D01*
X81900Y-48085D02*
X82440Y-48625D01*
X82440Y-48625D02*
X82440Y-52050D01*
X82440Y-52050D02*
X82940Y-52550D01*
X85810Y-54070D02*
X86580Y-54840D01*
X86580Y-54840D02*
X91500Y-54840D01*
X91500Y-54840D02*
X92844Y-56184D01*
X92844Y-56184D02*
X92844Y-57780D01*
X83105Y-46555D02*
X82835Y-46555D01*
X83345Y-46795D02*
X83105Y-46555D01*
X84900Y-50030D02*
X84900Y-48480D01*
X85550Y-50680D02*
X84900Y-50030D01*
X87844Y-40294D02*
X87844Y-39780D01*
X89100Y-41550D02*
X87844Y-40294D01*
X89100Y-43560D02*
X89100Y-41550D01*
X88370Y-44290D02*
X89100Y-43560D01*
X85740Y-44290D02*
X88370Y-44290D01*
X85630Y-44400D02*
X85740Y-44290D01*
X85175Y-49845D02*
X85175Y-48125D01*
X86020Y-50690D02*
X85175Y-49845D01*
X87135Y-53260D02*
X87580Y-53260D01*
X92265Y-41005D02*
X92105Y-40845D01*
X94740Y-41005D02*
X92265Y-41005D01*
X96390Y-42655D02*
X94740Y-41005D01*
X96390Y-46172D02*
X96390Y-42655D01*
X96007Y-46555D02*
X96390Y-46172D01*
X94910Y-46555D02*
X96007Y-46555D01*
X93815Y-47650D02*
X94910Y-46555D01*
X93815Y-49715D02*
X93815Y-47650D01*
X93755Y-49775D02*
X93815Y-49715D01*
X92215Y-50225D02*
X92455Y-49985D01*
X92215Y-51080D02*
X92215Y-50225D01*
X91640Y-51655D02*
X92215Y-51080D01*
X90750Y-52425D02*
X90750Y-52485D01*
X89930Y-51605D02*
X90750Y-52425D01*
X89235Y-51605D02*
X89930Y-51605D01*
X87580Y-53260D02*
X89235Y-51605D01*
X87135Y-53260D02*
X87135Y-53255D01*
X87345Y-52995D02*
X87555Y-52995D01*
X92844Y-40484D02*
X92844Y-39780D01*
X93170Y-40810D02*
X92844Y-40484D01*
X94845Y-40810D02*
X93170Y-40810D01*
X96600Y-42565D02*
X94845Y-40810D01*
X96600Y-46230D02*
X96600Y-42565D01*
X96090Y-46740D02*
X96600Y-46230D01*
X95000Y-46740D02*
X96090Y-46740D01*
X94020Y-47720D02*
X95000Y-46740D01*
X94020Y-49850D02*
X94020Y-47720D01*
X93785Y-50085D02*
X94020Y-49850D01*
X92480Y-51225D02*
X92480Y-50345D01*
X91800Y-51905D02*
X92480Y-51225D01*
X91075Y-52445D02*
X91110Y-52445D01*
X90040Y-51410D02*
X91075Y-52445D01*
X89140Y-51410D02*
X90040Y-51410D01*
X87555Y-52995D02*
X89140Y-51410D01*
X91392Y-50267D02*
X91392Y-49887D01*
X90785Y-50875D02*
X91392Y-50267D01*
X92470Y-46120D02*
X94720Y-46120D01*
X91970Y-46620D02*
X92470Y-46120D01*
X91970Y-49310D02*
X91970Y-46620D01*
X91392Y-49887D02*
X91970Y-49310D01*
X91205Y-50040D02*
X91205Y-49650D01*
X90615Y-50630D02*
X91205Y-50040D01*
X91205Y-49650D02*
X91780Y-49075D01*
X91780Y-49075D02*
X91780Y-44890D01*
X91780Y-44890D02*
X93470Y-43200D01*
X93470Y-43200D02*
X94530Y-43200D01*
X94955Y-43200D02*
X94530Y-43200D01*
X94970Y-43185D02*
X94955Y-43200D01*
X91600Y-48835D02*
X91600Y-43720D01*
X91600Y-43720D02*
X93230Y-42090D01*
X93230Y-42090D02*
X94480Y-42090D01*
X91600Y-48975D02*
X91600Y-48835D01*
X91010Y-49565D02*
X91600Y-48975D01*
X91010Y-49775D02*
X91010Y-49565D01*
X90390Y-50395D02*
X91010Y-49775D01*
X94645Y-54640D02*
X94645Y-54740D01*
X92405Y-53630D02*
X92405Y-53390D01*
X93770Y-54995D02*
X92405Y-53630D01*
X94390Y-54995D02*
X93770Y-54995D01*
X94645Y-54740D02*
X94390Y-54995D01*
X89715Y-50700D02*
X92405Y-53390D01*
X89715Y-49130D02*
X89715Y-50700D01*
X89715Y-49130D02*
X89680Y-49165D01*
X85140Y-50725D02*
X84635Y-50220D01*
X84635Y-50220D02*
X84635Y-48315D01*
X84635Y-48315D02*
X84685Y-48265D01*
X85220Y-50725D02*
X85140Y-50725D01*
X87415Y-53840D02*
X87610Y-53840D01*
X94345Y-46510D02*
X94345Y-46400D01*
X93390Y-47465D02*
X94345Y-46510D01*
X93390Y-48215D02*
X93390Y-47465D01*
X93240Y-48365D02*
X93390Y-48215D01*
X93240Y-51490D02*
X93240Y-48365D01*
X92510Y-52220D02*
X93240Y-51490D01*
X91650Y-52220D02*
X92510Y-52220D01*
X90625Y-51195D02*
X91650Y-52220D01*
X89335Y-52115D02*
X89655Y-52115D01*
X87610Y-53840D02*
X89335Y-52115D01*
X87550Y-53575D02*
X89305Y-51820D01*
X89305Y-51820D02*
X89790Y-51820D01*
X89790Y-51820D02*
X90375Y-52405D01*
X91420Y-51420D02*
X91970Y-50870D01*
X91970Y-50870D02*
X91970Y-50110D01*
X91970Y-50110D02*
X92100Y-49980D01*
X93555Y-49525D02*
X93605Y-49475D01*
X93605Y-49475D02*
X93605Y-47570D01*
X93605Y-47570D02*
X94815Y-46360D01*
X94815Y-46360D02*
X95885Y-46360D01*
X95885Y-46360D02*
X96150Y-46095D01*
X96150Y-46095D02*
X96150Y-42705D01*
X96150Y-42705D02*
X94645Y-41200D01*
X94645Y-41200D02*
X92225Y-41200D01*
X92225Y-41200D02*
X92135Y-41290D01*
X87160Y-53575D02*
X87550Y-53575D01*
X91844Y-40155D02*
X91844Y-39780D01*
X90950Y-41050D02*
X91844Y-40155D01*
X90950Y-44400D02*
X90950Y-41050D01*
X89150Y-46200D02*
X90950Y-44400D01*
X87065Y-47695D02*
X87455Y-47305D01*
X87065Y-50645D02*
X87065Y-47695D01*
X87020Y-50690D02*
X87065Y-50645D01*
X81920Y-43650D02*
X81430Y-43650D01*
X85030Y-43750D02*
X85380Y-44100D01*
X85380Y-44100D02*
X85380Y-44595D01*
X85380Y-44595D02*
X85730Y-44945D01*
X84535Y-43750D02*
X83850Y-43750D01*
X83850Y-43750D02*
X82990Y-43750D01*
X84535Y-43750D02*
X85030Y-43750D01*
X81430Y-43650D02*
X81355Y-43575D01*
G54D25*
X82780Y-58780D02*
X81950Y-57950D01*
X81950Y-57950D02*
X81950Y-55080D01*
X82844Y-58780D02*
X82780Y-58780D01*
G54D24*
X93170Y-41810D02*
X94310Y-41810D01*
X91370Y-43610D02*
X93170Y-41810D01*
X91370Y-45670D02*
X91370Y-43610D01*
X90620Y-46420D02*
X91370Y-45670D01*
X93765Y-53815D02*
X93765Y-54465D01*
X92275Y-48715D02*
X92335Y-48775D01*
X92335Y-48775D02*
X92335Y-49305D01*
X92335Y-49305D02*
X91585Y-50055D01*
X91585Y-50055D02*
X91585Y-50875D01*
X93245Y-51845D02*
X93765Y-52365D01*
X93765Y-52365D02*
X93765Y-53815D01*
X95540Y-58084D02*
X94844Y-58780D01*
X95540Y-55100D02*
X95540Y-58084D01*
X94775Y-54335D02*
X95540Y-55100D01*
X94530Y-54335D02*
X94775Y-54335D01*
X94245Y-54620D02*
X94530Y-54335D01*
X93920Y-54620D02*
X94245Y-54620D01*
X93765Y-54465D02*
X93920Y-54620D01*
X93150Y-46865D02*
X93570Y-46865D01*
X92275Y-47740D02*
X93150Y-46865D01*
X92275Y-48260D02*
X92275Y-47740D01*
X92240Y-48295D02*
X92275Y-48260D01*
X82244Y-47684D02*
X82244Y-39780D01*
X82260Y-47700D02*
X82244Y-47684D01*
X83244Y-39780D02*
X83165Y-39780D01*
X82570Y-40375D02*
X82570Y-48380D01*
X83165Y-39780D02*
X82570Y-40375D01*
X93685Y-41540D02*
X93720Y-41505D01*
X93120Y-41540D02*
X93685Y-41540D01*
X91180Y-43480D02*
X93120Y-41540D01*
X91180Y-45455D02*
X91180Y-43480D01*
X90515Y-46120D02*
X91180Y-45455D01*
G54D25*
X94285Y-53660D02*
X94285Y-53655D01*
X94065Y-53880D02*
X94285Y-53660D01*
X94790Y-53150D02*
X94850Y-53150D01*
X94285Y-53655D02*
X94790Y-53150D01*
X94065Y-54255D02*
X94065Y-53880D01*
X94065Y-53880D02*
X94065Y-51500D01*
X94065Y-51500D02*
X94277Y-51287D01*
X94890Y-51105D02*
X94890Y-50290D01*
X94890Y-50290D02*
X95145Y-50035D01*
X95490Y-47120D02*
X94865Y-47745D01*
X96700Y-47120D02*
X95490Y-47120D01*
X96715Y-47105D02*
X96700Y-47120D01*
X94277Y-51287D02*
X94277Y-47832D01*
X94277Y-47832D02*
X94365Y-47745D01*
X94365Y-47745D02*
X94865Y-47745D01*
X94460Y-51105D02*
X94890Y-51105D01*
X94277Y-51287D02*
X94460Y-51105D01*
X94260Y-51305D02*
X94277Y-51287D01*
G54D26*
X83300Y-49255D02*
X83300Y-48305D01*
X83375Y-49330D02*
X83300Y-49255D01*
G54D24*
X83045Y-47205D02*
X83045Y-47125D01*
G54D26*
X82835Y-47789D02*
X82835Y-47289D01*
X83300Y-48254D02*
X82835Y-47789D01*
X82825Y-47280D02*
X82825Y-47289D01*
X82835Y-47289D02*
X82825Y-47280D01*
G54D24*
X82930Y-47215D02*
X82930Y-47185D01*
G54D26*
X83685Y-47895D02*
X83659Y-47895D01*
X84140Y-47895D02*
X83685Y-47895D01*
X83659Y-47895D02*
X83300Y-48254D01*
X83300Y-48305D02*
X83300Y-48254D01*
X83465Y-47125D02*
X83685Y-46905D01*
X82990Y-47125D02*
X83045Y-47125D01*
X83045Y-47125D02*
X83465Y-47125D01*
X82825Y-47289D02*
X82990Y-47125D01*
X88690Y-45810D02*
X88690Y-45615D01*
X88690Y-45615D02*
X88360Y-45285D01*
X88360Y-45285D02*
X85025Y-45285D01*
X85025Y-45285D02*
X83685Y-46625D01*
X83685Y-46625D02*
X83685Y-46905D01*
X82835Y-47280D02*
X82825Y-47289D01*
X83300Y-52170D02*
X83405Y-52170D01*
X87500Y-51850D02*
X87617Y-51732D01*
X84840Y-51850D02*
X87500Y-51850D01*
X84790Y-51800D02*
X84840Y-51850D01*
X83405Y-52170D02*
X83705Y-51870D01*
G54D24*
X83335Y-50470D02*
X83300Y-50470D01*
X88265Y-51732D02*
X88277Y-51732D01*
X88265Y-51740D02*
X88265Y-51732D01*
X89430Y-47155D02*
X89390Y-47155D01*
G54D26*
X88690Y-45810D02*
X88690Y-46555D01*
X88690Y-46555D02*
X88720Y-46585D01*
X89390Y-47285D02*
X89390Y-47155D01*
X89390Y-47155D02*
X89390Y-46695D01*
X89280Y-46585D02*
X88720Y-46585D01*
X89390Y-46695D02*
X89280Y-46585D01*
X89390Y-47635D02*
X89390Y-47285D01*
X89695Y-46980D02*
X90235Y-46980D01*
X89390Y-47285D02*
X89695Y-46980D01*
X87617Y-51732D02*
X88277Y-51732D01*
X89300Y-47545D02*
X88835Y-47545D01*
X89390Y-47635D02*
X89300Y-47545D01*
X89390Y-50620D02*
X89390Y-47635D01*
X88277Y-51732D02*
X89390Y-50620D01*
X87800Y-51550D02*
X87800Y-51235D01*
X87617Y-51732D02*
X87800Y-51550D01*
X87615Y-51735D02*
X87617Y-51732D01*
X84140Y-47895D02*
X84735Y-47895D01*
X84735Y-47895D02*
X85180Y-47450D01*
X83300Y-50610D02*
X83300Y-50470D01*
X83300Y-48305D02*
X83300Y-48280D01*
X83300Y-52820D02*
X83300Y-52170D01*
X83300Y-52170D02*
X83300Y-50610D01*
X83695Y-50215D02*
X84180Y-50215D01*
X83300Y-50610D02*
X83695Y-50215D01*
G54D27*
X82740Y-54980D02*
X82740Y-53360D01*
X83280Y-52820D02*
X83300Y-52820D01*
X83300Y-52820D02*
X84360Y-52820D01*
X82740Y-53360D02*
X83280Y-52820D01*
X82740Y-54980D02*
X82740Y-55490D01*
X83270Y-56020D02*
X83980Y-56020D01*
X82740Y-55490D02*
X83270Y-56020D01*
X82130Y-54370D02*
X81130Y-54370D01*
X82740Y-54980D02*
X82130Y-54370D01*
G54D24*
X85880Y-46635D02*
X85880Y-46215D01*
X85880Y-46215D02*
X85715Y-46050D01*
G54D26*
X86145Y-47450D02*
X86145Y-48070D01*
X86145Y-48070D02*
X86140Y-48075D01*
X85880Y-46635D02*
X85880Y-47185D01*
X85880Y-47185D02*
X86145Y-47450D01*
X85780Y-47450D02*
X86145Y-47450D01*
G54D24*
X87335Y-50500D02*
X87445Y-50390D01*
X87445Y-50390D02*
X88270Y-50390D01*
G54D28*
X80830Y-47345D02*
X80830Y-48470D01*
X80705Y-47220D02*
X80830Y-47345D01*
G54D24*
X81040Y-48785D02*
X81040Y-48680D01*
X81040Y-48680D02*
X80830Y-48470D01*
X80830Y-48540D02*
X81015Y-48725D01*
X80830Y-48470D02*
X80830Y-48540D01*
X81130Y-52370D02*
X81130Y-52067D01*
X80702Y-49122D02*
X81040Y-48785D01*
X81040Y-48785D02*
X81050Y-48775D01*
X80702Y-51640D02*
X80702Y-49122D01*
X81130Y-52067D02*
X80702Y-51640D01*
X80180Y-44590D02*
X80180Y-44280D01*
X80455Y-44865D02*
X80180Y-44590D01*
X81130Y-44865D02*
X80455Y-44865D01*
X81215Y-44780D02*
X81130Y-44865D01*
X83625Y-49855D02*
X83115Y-49855D01*
X82695Y-48835D02*
X82680Y-48820D01*
X82695Y-49435D02*
X82695Y-48835D01*
X83115Y-49855D02*
X82695Y-49435D01*
X84770Y-54930D02*
X84190Y-54930D01*
X84190Y-54930D02*
X83980Y-54720D01*
X84890Y-55415D02*
X84890Y-55050D01*
X84890Y-55050D02*
X84770Y-54930D01*
X94890Y-51855D02*
X94420Y-51855D01*
X93485Y-53005D02*
X93485Y-52995D01*
X93465Y-53025D02*
X93485Y-53005D01*
X94420Y-51855D02*
X94355Y-51920D01*
X92340Y-54085D02*
X92260Y-54085D01*
X92390Y-54135D02*
X92340Y-54085D01*
X90250Y-53345D02*
X90250Y-53935D01*
X90250Y-53935D02*
X90240Y-53945D01*
X90260Y-52830D02*
X90260Y-52825D01*
X87895Y-54155D02*
X89210Y-54155D01*
X89670Y-53695D02*
X89670Y-53290D01*
X89210Y-54155D02*
X89670Y-53695D01*
X90225Y-48935D02*
X90225Y-50105D01*
X90225Y-50105D02*
X90010Y-50320D01*
X87395Y-48520D02*
X87935Y-48520D01*
X87375Y-48500D02*
X87395Y-48520D01*
X83980Y-47095D02*
X84035Y-47095D01*
X83570Y-47505D02*
X83980Y-47095D01*
X83740Y-49615D02*
X84180Y-49615D01*
X83665Y-49690D02*
X83740Y-49615D01*
X83665Y-49815D02*
X83665Y-49690D01*
X83625Y-49855D02*
X83665Y-49815D01*
X87935Y-49885D02*
X87935Y-48520D01*
X87935Y-49885D02*
X88045Y-49995D01*
X86385Y-52820D02*
X85660Y-52820D01*
X86770Y-52435D02*
X86385Y-52820D01*
X87475Y-52435D02*
X86770Y-52435D01*
X87765Y-52145D02*
X87475Y-52435D01*
X83940Y-51245D02*
X83940Y-51480D01*
X85305Y-52465D02*
X85660Y-52820D01*
X85025Y-52465D02*
X85305Y-52465D01*
X84765Y-52205D02*
X85025Y-52465D01*
X84690Y-52205D02*
X84765Y-52205D01*
X84410Y-51925D02*
X84690Y-52205D01*
X84385Y-51925D02*
X84410Y-51925D01*
X83940Y-51480D02*
X84385Y-51925D01*
X88610Y-58250D02*
X89080Y-57780D01*
X89080Y-57780D02*
X89080Y-57210D01*
X93485Y-52995D02*
X93345Y-52855D01*
X93485Y-53045D02*
X93485Y-52995D01*
X93080Y-52640D02*
X93485Y-53045D01*
X97755Y-53850D02*
X97755Y-55265D01*
X96325Y-53830D02*
X96345Y-53850D01*
X96345Y-53850D02*
X97755Y-53850D01*
X90255Y-53340D02*
X90260Y-53340D01*
X90250Y-53345D02*
X90255Y-53340D01*
X90280Y-56235D02*
X90280Y-56100D01*
X90580Y-56535D02*
X90280Y-56235D01*
X90580Y-57050D02*
X90580Y-56535D01*
X90600Y-57070D02*
X90580Y-57050D01*
X91085Y-57150D02*
X91085Y-56330D01*
X91105Y-57170D02*
X91085Y-57150D01*
X91595Y-56255D02*
X91595Y-57160D01*
X91600Y-56250D02*
X91595Y-56255D01*
X92100Y-57105D02*
X92100Y-56205D01*
X92605Y-56320D02*
X92605Y-57140D01*
X92585Y-56300D02*
X92605Y-56320D01*
X93350Y-58295D02*
X93350Y-56490D01*
X93345Y-58300D02*
X93350Y-58295D01*
X94090Y-56070D02*
X94090Y-56965D01*
X93690Y-55670D02*
X94090Y-56070D01*
X94790Y-55240D02*
X94030Y-55240D01*
X95105Y-55555D02*
X94790Y-55240D01*
X96780Y-58585D02*
X96780Y-58710D01*
X96120Y-57925D02*
X96780Y-58585D01*
X97745Y-56545D02*
X97745Y-57970D01*
X97660Y-56460D02*
X97745Y-56545D01*
X96040Y-55370D02*
X96040Y-56420D01*
X96140Y-55270D02*
X96040Y-55370D01*
X97755Y-55265D02*
X97730Y-55290D01*
X95190Y-53830D02*
X95180Y-53830D01*
X95195Y-53835D02*
X95190Y-53830D01*
X96840Y-50790D02*
X96840Y-51980D01*
X96840Y-51980D02*
X96070Y-52750D01*
X94865Y-48495D02*
X94865Y-49055D01*
X96840Y-49770D02*
X96840Y-50790D01*
X96600Y-49530D02*
X96840Y-49770D01*
X94865Y-49055D02*
X95210Y-49400D01*
X91460Y-42300D02*
X91450Y-42290D01*
X91450Y-42290D02*
X91450Y-41260D01*
X90210Y-40700D02*
X90540Y-40370D01*
X90540Y-40370D02*
X91030Y-40370D01*
X93320Y-40380D02*
X93270Y-40430D01*
X93320Y-40380D02*
X94280Y-40380D01*
X92010Y-40410D02*
X92400Y-40410D01*
X91660Y-40760D02*
X92010Y-40410D01*
X95760Y-40840D02*
X95430Y-40840D01*
X95430Y-40840D02*
X94970Y-40380D01*
X94970Y-40380D02*
X94280Y-40380D01*
X95760Y-40250D02*
X95760Y-40840D01*
X96030Y-39980D02*
X95760Y-40250D01*
X97560Y-40680D02*
X97560Y-40060D01*
X97830Y-40950D02*
X97560Y-40680D01*
X97250Y-45445D02*
X97250Y-45410D01*
X97235Y-45460D02*
X97250Y-45445D01*
X97595Y-44585D02*
X97960Y-44585D01*
X97055Y-44045D02*
X97595Y-44585D01*
X92640Y-43360D02*
X92670Y-43360D01*
X94975Y-45390D02*
X92395Y-45390D01*
X95755Y-44535D02*
X95830Y-44535D01*
X95195Y-43975D02*
X95755Y-44535D01*
X93345Y-42685D02*
X94250Y-42685D01*
X92670Y-43360D02*
X93345Y-42685D01*
X92640Y-43360D02*
X92660Y-43360D01*
X83610Y-41180D02*
X84480Y-41180D01*
X89010Y-44450D02*
X88790Y-44450D01*
X89640Y-43820D02*
X89010Y-44450D01*
X90600Y-42370D02*
X90600Y-43540D01*
X90470Y-42240D02*
X90600Y-42370D01*
X89450Y-41350D02*
X89450Y-42300D01*
X89210Y-41110D02*
X89450Y-41350D01*
X87120Y-41240D02*
X87120Y-43270D01*
X87330Y-41030D02*
X87120Y-41240D01*
X87445Y-41030D02*
X87330Y-41030D01*
X87705Y-40770D02*
X87445Y-41030D01*
X86180Y-40810D02*
X86400Y-40810D01*
X84910Y-42080D02*
X86180Y-40810D01*
X84480Y-41180D02*
X84980Y-40680D01*
X80110Y-45770D02*
X80110Y-46690D01*
X80130Y-45750D02*
X80110Y-45770D01*
X79680Y-44780D02*
X79360Y-44780D01*
X80180Y-44280D02*
X79680Y-44780D01*
X84225Y-43465D02*
X83840Y-43080D01*
X83840Y-43080D02*
X83110Y-43080D01*
X80150Y-41850D02*
X80150Y-42750D01*
X80140Y-41840D02*
X80150Y-41850D01*
X79220Y-41020D02*
X79220Y-41770D01*
X79420Y-40820D02*
X79220Y-41020D01*
X80390Y-40770D02*
X80360Y-40770D01*
X81010Y-41390D02*
X80390Y-40770D01*
X81325Y-42495D02*
X81215Y-42495D01*
X81880Y-43050D02*
X81325Y-42495D01*
X84685Y-46555D02*
X84135Y-47105D01*
X84135Y-47105D02*
X84045Y-47105D01*
X84045Y-47105D02*
X84035Y-47095D01*
X86485Y-45885D02*
X86175Y-45885D01*
X86630Y-46030D02*
X86485Y-45885D01*
X86630Y-46635D02*
X86630Y-46030D01*
X85390Y-45690D02*
X84685Y-46395D01*
X85980Y-45690D02*
X85390Y-45690D01*
X86175Y-45885D02*
X85980Y-45690D01*
X84685Y-46395D02*
X84685Y-46555D01*
X83425Y-44270D02*
X82815Y-44270D01*
X83460Y-44235D02*
X83425Y-44270D01*
X86525Y-49245D02*
X86525Y-48605D01*
X86655Y-48475D02*
X86655Y-47530D01*
X86525Y-48605D02*
X86655Y-48475D01*
X87200Y-51235D02*
X87030Y-51235D01*
X85540Y-48740D02*
X85540Y-48075D01*
X85610Y-48810D02*
X85540Y-48740D01*
X86525Y-50730D02*
X86525Y-49245D01*
X87030Y-51235D02*
X86525Y-50730D01*
X83950Y-51235D02*
X87200Y-51235D01*
X83940Y-51245D02*
X83950Y-51235D01*
X80850Y-56490D02*
X80850Y-55185D01*
X80850Y-55185D02*
X80940Y-55095D01*
X87420Y-57370D02*
X86740Y-56690D01*
X85900Y-56650D02*
X85310Y-57240D01*
X85310Y-57240D02*
X84430Y-57240D01*
X81370Y-56500D02*
X81360Y-56490D01*
X81360Y-56490D02*
X80850Y-56490D01*
X87420Y-58090D02*
X87420Y-57370D01*
X81540Y-58450D02*
X81540Y-58560D01*
X80770Y-57680D02*
X81540Y-58450D01*
X86844Y-58780D02*
X86844Y-58665D01*
X86844Y-58665D02*
X87420Y-58090D01*
G54D25*
X90225Y-48335D02*
X90925Y-48335D01*
X90925Y-48335D02*
X91125Y-48535D01*
G54D24*
X87975Y-46585D02*
X87970Y-46585D01*
X88270Y-46290D02*
X87975Y-46585D01*
G54D26*
X87935Y-47770D02*
X87935Y-47210D01*
X87935Y-47210D02*
X87935Y-46620D01*
X87935Y-46620D02*
X87970Y-46585D01*
G54D24*
X90235Y-47730D02*
X89900Y-47730D01*
X89730Y-47900D02*
X89730Y-48185D01*
X89900Y-47730D02*
X89730Y-47900D01*
G54D25*
X90235Y-47730D02*
X91070Y-47730D01*
X91070Y-47730D02*
X91125Y-47785D01*
G54D26*
X84890Y-56165D02*
X84890Y-56565D01*
X84890Y-56565D02*
X85055Y-56730D01*
G54D10*
G36*
X81106Y-48826D02*
X81022Y-48826D01*
X80827Y-48907D01*
X80827Y-48825D01*
X80827Y-48810D01*
X80827Y-48400D01*
X80804Y-48284D01*
X80738Y-48186D01*
X80557Y-48004D01*
X80557Y-47105D01*
X80827Y-46834D01*
X80827Y-48422D01*
X80850Y-48537D01*
X80916Y-48635D01*
X81106Y-48826D01*
X81106Y-48826D01*
G37*
G54D29*
X81106Y-48826D02*
X81022Y-48826D01*
X80827Y-48907D01*
X80827Y-48825D01*
X80827Y-48810D01*
X80827Y-48400D01*
X80804Y-48284D01*
X80738Y-48186D01*
X80557Y-48004D01*
X80557Y-47105D01*
X80827Y-46834D01*
X80827Y-48422D01*
X80850Y-48537D01*
X80916Y-48635D01*
X81106Y-48826D01*
G54D10*
G36*
X81215Y-52375D02*
X81135Y-52455D01*
X81130Y-52450D01*
X81124Y-52455D01*
X81044Y-52375D01*
X81049Y-52370D01*
X81044Y-52364D01*
X81124Y-52284D01*
X81130Y-52289D01*
X81135Y-52284D01*
X81215Y-52364D01*
X81210Y-52370D01*
X81215Y-52375D01*
X81215Y-52375D01*
G37*
G54D29*
X81215Y-52375D02*
X81135Y-52455D01*
X81130Y-52450D01*
X81124Y-52455D01*
X81044Y-52375D01*
X81049Y-52370D01*
X81044Y-52364D01*
X81124Y-52284D01*
X81130Y-52289D01*
X81135Y-52284D01*
X81215Y-52364D01*
X81210Y-52370D01*
X81215Y-52375D01*
G54D10*
G36*
X81941Y-44658D02*
X81803Y-44658D01*
X81670Y-44713D01*
X81586Y-44797D01*
X81519Y-44810D01*
X81421Y-44876D01*
X80736Y-45561D01*
X80721Y-45576D01*
X80655Y-45674D01*
X80632Y-45790D01*
X80647Y-45865D01*
X80647Y-46159D01*
X80041Y-46766D01*
X79975Y-46864D01*
X79952Y-46980D01*
X79952Y-47951D01*
X79867Y-47867D01*
X79864Y-47865D01*
X79862Y-47862D01*
X79012Y-47011D01*
X79012Y-40271D01*
X79137Y-40323D01*
X79353Y-40323D01*
X79553Y-40240D01*
X79706Y-40088D01*
X79745Y-39992D01*
X79784Y-40087D01*
X79937Y-40240D01*
X80137Y-40323D01*
X80353Y-40323D01*
X80553Y-40240D01*
X80706Y-40088D01*
X80745Y-39992D01*
X80784Y-40087D01*
X80937Y-40240D01*
X81137Y-40323D01*
X81353Y-40323D01*
X81553Y-40240D01*
X81706Y-40088D01*
X81744Y-39994D01*
X81783Y-40087D01*
X81936Y-40240D01*
X81941Y-40242D01*
X81941Y-43249D01*
X81840Y-43249D01*
X81693Y-43310D01*
X81655Y-43347D01*
X81638Y-43347D01*
X81559Y-43268D01*
X81427Y-43213D01*
X81283Y-43213D01*
X81150Y-43268D01*
X81048Y-43370D01*
X80993Y-43502D01*
X80993Y-43646D01*
X81048Y-43779D01*
X81150Y-43881D01*
X81282Y-43936D01*
X81349Y-43936D01*
X81430Y-43952D01*
X81655Y-43952D01*
X81692Y-43989D01*
X81839Y-44050D01*
X81941Y-44050D01*
X81941Y-44658D01*
X81941Y-44658D01*
G37*
G54D29*
X81941Y-44658D02*
X81803Y-44658D01*
X81670Y-44713D01*
X81586Y-44797D01*
X81519Y-44810D01*
X81421Y-44876D01*
X80736Y-45561D01*
X80721Y-45576D01*
X80655Y-45674D01*
X80632Y-45790D01*
X80647Y-45865D01*
X80647Y-46159D01*
X80041Y-46766D01*
X79975Y-46864D01*
X79952Y-46980D01*
X79952Y-47951D01*
X79867Y-47867D01*
X79864Y-47865D01*
X79862Y-47862D01*
X79012Y-47011D01*
X79012Y-40271D01*
X79137Y-40323D01*
X79353Y-40323D01*
X79553Y-40240D01*
X79706Y-40088D01*
X79745Y-39992D01*
X79784Y-40087D01*
X79937Y-40240D01*
X80137Y-40323D01*
X80353Y-40323D01*
X80553Y-40240D01*
X80706Y-40088D01*
X80745Y-39992D01*
X80784Y-40087D01*
X80937Y-40240D01*
X81137Y-40323D01*
X81353Y-40323D01*
X81553Y-40240D01*
X81706Y-40088D01*
X81744Y-39994D01*
X81783Y-40087D01*
X81936Y-40240D01*
X81941Y-40242D01*
X81941Y-43249D01*
X81840Y-43249D01*
X81693Y-43310D01*
X81655Y-43347D01*
X81638Y-43347D01*
X81559Y-43268D01*
X81427Y-43213D01*
X81283Y-43213D01*
X81150Y-43268D01*
X81048Y-43370D01*
X80993Y-43502D01*
X80993Y-43646D01*
X81048Y-43779D01*
X81150Y-43881D01*
X81282Y-43936D01*
X81349Y-43936D01*
X81430Y-43952D01*
X81655Y-43952D01*
X81692Y-43989D01*
X81839Y-44050D01*
X81941Y-44050D01*
X81941Y-44658D01*
G54D10*
G36*
X82300Y-58784D02*
X82300Y-58837D01*
X80913Y-58837D01*
X80642Y-58566D01*
X80642Y-54826D01*
X80691Y-54876D01*
X80781Y-54913D01*
X80878Y-54913D01*
X81478Y-54913D01*
X81567Y-54876D01*
X81636Y-54808D01*
X81643Y-54790D01*
X81672Y-54790D01*
X81610Y-54852D01*
X81549Y-54999D01*
X81549Y-55159D01*
X81608Y-55302D01*
X81608Y-57950D01*
X81634Y-58080D01*
X81708Y-58191D01*
X82300Y-58784D01*
X82300Y-58784D01*
G37*
G54D29*
X82300Y-58784D02*
X82300Y-58837D01*
X80913Y-58837D01*
X80642Y-58566D01*
X80642Y-54826D01*
X80691Y-54876D01*
X80781Y-54913D01*
X80878Y-54913D01*
X81478Y-54913D01*
X81567Y-54876D01*
X81636Y-54808D01*
X81643Y-54790D01*
X81672Y-54790D01*
X81610Y-54852D01*
X81549Y-54999D01*
X81549Y-55159D01*
X81608Y-55302D01*
X81608Y-57950D01*
X81634Y-58080D01*
X81708Y-58191D01*
X82300Y-58784D01*
G54D10*
G36*
X83772Y-49671D02*
X83711Y-49732D01*
X83711Y-49788D01*
X83730Y-49833D01*
X83695Y-49833D01*
X83549Y-49862D01*
X83487Y-49904D01*
X83425Y-49945D01*
X83301Y-50069D01*
X83255Y-50069D01*
X83248Y-50072D01*
X83184Y-50008D01*
X83052Y-49953D01*
X83020Y-49953D01*
X83006Y-49920D01*
X82904Y-49818D01*
X82772Y-49763D01*
X82742Y-49763D01*
X82742Y-48699D01*
X82774Y-48686D01*
X82876Y-48584D01*
X82918Y-48482D01*
X82918Y-49255D01*
X82934Y-49335D01*
X82934Y-49335D01*
X82934Y-49417D01*
X83001Y-49579D01*
X83125Y-49702D01*
X83287Y-49770D01*
X83462Y-49770D01*
X83624Y-49703D01*
X83711Y-49615D01*
X83711Y-49671D01*
X83772Y-49671D01*
X83772Y-49671D01*
G37*
G54D29*
X83772Y-49671D02*
X83711Y-49732D01*
X83711Y-49788D01*
X83730Y-49833D01*
X83695Y-49833D01*
X83549Y-49862D01*
X83487Y-49904D01*
X83425Y-49945D01*
X83301Y-50069D01*
X83255Y-50069D01*
X83248Y-50072D01*
X83184Y-50008D01*
X83052Y-49953D01*
X83020Y-49953D01*
X83006Y-49920D01*
X82904Y-49818D01*
X82772Y-49763D01*
X82742Y-49763D01*
X82742Y-48699D01*
X82774Y-48686D01*
X82876Y-48584D01*
X82918Y-48482D01*
X82918Y-49255D01*
X82934Y-49335D01*
X82934Y-49335D01*
X82934Y-49417D01*
X83001Y-49579D01*
X83125Y-49702D01*
X83287Y-49770D01*
X83462Y-49770D01*
X83624Y-49703D01*
X83711Y-49615D01*
X83711Y-49671D01*
X83772Y-49671D01*
G54D10*
G36*
X84332Y-49246D02*
X84297Y-49246D01*
X84236Y-49307D01*
X84236Y-49558D01*
X84244Y-49558D01*
X84244Y-49671D01*
X84236Y-49671D01*
X84236Y-49679D01*
X84123Y-49679D01*
X84123Y-49671D01*
X84115Y-49671D01*
X84115Y-49558D01*
X84123Y-49558D01*
X84123Y-49307D01*
X84062Y-49246D01*
X84003Y-49246D01*
X83906Y-49246D01*
X83816Y-49283D01*
X83815Y-49285D01*
X83815Y-49242D01*
X83748Y-49080D01*
X83681Y-49013D01*
X83681Y-48691D01*
X83708Y-48757D01*
X83776Y-48826D01*
X83866Y-48863D01*
X83963Y-48863D01*
X84022Y-48863D01*
X84083Y-48802D01*
X84083Y-48551D01*
X84075Y-48551D01*
X84075Y-48438D01*
X84083Y-48438D01*
X84083Y-48430D01*
X84196Y-48430D01*
X84196Y-48438D01*
X84204Y-48438D01*
X84204Y-48551D01*
X84196Y-48551D01*
X84196Y-48802D01*
X84257Y-48863D01*
X84316Y-48863D01*
X84332Y-48863D01*
X84332Y-49246D01*
X84332Y-49246D01*
G37*
G54D29*
X84332Y-49246D02*
X84297Y-49246D01*
X84236Y-49307D01*
X84236Y-49558D01*
X84244Y-49558D01*
X84244Y-49671D01*
X84236Y-49671D01*
X84236Y-49679D01*
X84123Y-49679D01*
X84123Y-49671D01*
X84115Y-49671D01*
X84115Y-49558D01*
X84123Y-49558D01*
X84123Y-49307D01*
X84062Y-49246D01*
X84003Y-49246D01*
X83906Y-49246D01*
X83816Y-49283D01*
X83815Y-49285D01*
X83815Y-49242D01*
X83748Y-49080D01*
X83681Y-49013D01*
X83681Y-48691D01*
X83708Y-48757D01*
X83776Y-48826D01*
X83866Y-48863D01*
X83963Y-48863D01*
X84022Y-48863D01*
X84083Y-48802D01*
X84083Y-48551D01*
X84075Y-48551D01*
X84075Y-48438D01*
X84083Y-48438D01*
X84083Y-48430D01*
X84196Y-48430D01*
X84196Y-48438D01*
X84204Y-48438D01*
X84204Y-48551D01*
X84196Y-48551D01*
X84196Y-48802D01*
X84257Y-48863D01*
X84316Y-48863D01*
X84332Y-48863D01*
X84332Y-49246D01*
G54D10*
G36*
X84954Y-55471D02*
X84946Y-55471D01*
X84946Y-55479D01*
X84833Y-55479D01*
X84833Y-55471D01*
X84432Y-55471D01*
X84427Y-55476D01*
X84331Y-55476D01*
X83923Y-55476D01*
X83923Y-55202D01*
X83923Y-54776D01*
X83397Y-54776D01*
X83336Y-54837D01*
X83336Y-55068D01*
X83373Y-55157D01*
X83441Y-55226D01*
X83531Y-55263D01*
X83628Y-55263D01*
X83862Y-55263D01*
X83923Y-55202D01*
X83923Y-55476D01*
X83531Y-55476D01*
X83442Y-55513D01*
X83400Y-55555D01*
X83160Y-55315D01*
X83160Y-55166D01*
X83199Y-55071D01*
X83199Y-54888D01*
X83160Y-54793D01*
X83160Y-53534D01*
X83454Y-53240D01*
X83816Y-53240D01*
X83816Y-53268D01*
X83853Y-53357D01*
X83921Y-53426D01*
X84011Y-53463D01*
X84108Y-53463D01*
X84359Y-53463D01*
X84250Y-53508D01*
X84148Y-53610D01*
X84126Y-53663D01*
X84098Y-53663D01*
X83965Y-53718D01*
X83863Y-53820D01*
X83808Y-53952D01*
X83808Y-54096D01*
X83841Y-54176D01*
X83628Y-54176D01*
X83531Y-54176D01*
X83441Y-54213D01*
X83373Y-54282D01*
X83336Y-54371D01*
X83336Y-54602D01*
X83397Y-54663D01*
X83923Y-54663D01*
X83923Y-54655D01*
X84036Y-54655D01*
X84036Y-54663D01*
X84044Y-54663D01*
X84044Y-54776D01*
X84036Y-54776D01*
X84036Y-55202D01*
X84097Y-55263D01*
X84331Y-55263D01*
X84371Y-55263D01*
X84371Y-55297D01*
X84432Y-55358D01*
X84833Y-55358D01*
X84833Y-55350D01*
X84946Y-55350D01*
X84946Y-55358D01*
X84954Y-55358D01*
X84954Y-55471D01*
X84954Y-55471D01*
G37*
G54D29*
X84954Y-55471D02*
X84946Y-55471D01*
X84946Y-55479D01*
X84833Y-55479D01*
X84833Y-55471D01*
X84432Y-55471D01*
X84427Y-55476D01*
X84331Y-55476D01*
X83923Y-55476D01*
X83923Y-55202D01*
X83923Y-54776D01*
X83397Y-54776D01*
X83336Y-54837D01*
X83336Y-55068D01*
X83373Y-55157D01*
X83441Y-55226D01*
X83531Y-55263D01*
X83628Y-55263D01*
X83862Y-55263D01*
X83923Y-55202D01*
X83923Y-55476D01*
X83531Y-55476D01*
X83442Y-55513D01*
X83400Y-55555D01*
X83160Y-55315D01*
X83160Y-55166D01*
X83199Y-55071D01*
X83199Y-54888D01*
X83160Y-54793D01*
X83160Y-53534D01*
X83454Y-53240D01*
X83816Y-53240D01*
X83816Y-53268D01*
X83853Y-53357D01*
X83921Y-53426D01*
X84011Y-53463D01*
X84108Y-53463D01*
X84359Y-53463D01*
X84250Y-53508D01*
X84148Y-53610D01*
X84126Y-53663D01*
X84098Y-53663D01*
X83965Y-53718D01*
X83863Y-53820D01*
X83808Y-53952D01*
X83808Y-54096D01*
X83841Y-54176D01*
X83628Y-54176D01*
X83531Y-54176D01*
X83441Y-54213D01*
X83373Y-54282D01*
X83336Y-54371D01*
X83336Y-54602D01*
X83397Y-54663D01*
X83923Y-54663D01*
X83923Y-54655D01*
X84036Y-54655D01*
X84036Y-54663D01*
X84044Y-54663D01*
X84044Y-54776D01*
X84036Y-54776D01*
X84036Y-55202D01*
X84097Y-55263D01*
X84331Y-55263D01*
X84371Y-55263D01*
X84371Y-55297D01*
X84432Y-55358D01*
X84833Y-55358D01*
X84833Y-55350D01*
X84946Y-55350D01*
X84946Y-55358D01*
X84954Y-55358D01*
X84954Y-55471D01*
G54D10*
G36*
X85077Y-44280D02*
X84980Y-44215D01*
X84865Y-44192D01*
X84100Y-44192D01*
X83984Y-44215D01*
X83886Y-44281D01*
X83474Y-44692D01*
X83058Y-44692D01*
X83054Y-44688D01*
X82922Y-44633D01*
X82872Y-44633D01*
X82872Y-44135D01*
X82909Y-44150D01*
X83069Y-44150D01*
X83216Y-44089D01*
X83254Y-44052D01*
X83850Y-44052D01*
X84535Y-44052D01*
X84904Y-44052D01*
X85077Y-44225D01*
X85077Y-44280D01*
X85077Y-44280D01*
G37*
G54D29*
X85077Y-44280D02*
X84980Y-44215D01*
X84865Y-44192D01*
X84100Y-44192D01*
X83984Y-44215D01*
X83886Y-44281D01*
X83474Y-44692D01*
X83058Y-44692D01*
X83054Y-44688D01*
X82922Y-44633D01*
X82872Y-44633D01*
X82872Y-44135D01*
X82909Y-44150D01*
X83069Y-44150D01*
X83216Y-44089D01*
X83254Y-44052D01*
X83850Y-44052D01*
X84535Y-44052D01*
X84904Y-44052D01*
X85077Y-44225D01*
X85077Y-44280D01*
G54D10*
G36*
X88008Y-52113D02*
X87467Y-52654D01*
X87417Y-52633D01*
X87273Y-52633D01*
X87140Y-52688D01*
X87038Y-52790D01*
X86983Y-52922D01*
X86983Y-52931D01*
X86930Y-52953D01*
X86828Y-53055D01*
X86773Y-53187D01*
X86773Y-53331D01*
X86821Y-53447D01*
X86798Y-53502D01*
X86798Y-53646D01*
X86853Y-53779D01*
X86931Y-53857D01*
X86908Y-53880D01*
X86853Y-54012D01*
X86853Y-54015D01*
X86810Y-54033D01*
X86708Y-54135D01*
X86653Y-54267D01*
X86653Y-54411D01*
X86705Y-54537D01*
X86705Y-54537D01*
X86203Y-54035D01*
X86203Y-53171D01*
X86203Y-52937D01*
X86142Y-52876D01*
X85716Y-52876D01*
X85716Y-53402D01*
X85777Y-53463D01*
X86008Y-53463D01*
X86097Y-53426D01*
X86166Y-53358D01*
X86203Y-53268D01*
X86203Y-53171D01*
X86203Y-54035D01*
X86171Y-54003D01*
X86171Y-53998D01*
X86116Y-53865D01*
X86014Y-53763D01*
X85882Y-53708D01*
X85738Y-53708D01*
X85689Y-53728D01*
X85679Y-53718D01*
X85603Y-53686D01*
X85603Y-53402D01*
X85603Y-52876D01*
X85177Y-52876D01*
X85116Y-52937D01*
X85116Y-53171D01*
X85116Y-53268D01*
X85153Y-53358D01*
X85222Y-53426D01*
X85311Y-53463D01*
X85542Y-53463D01*
X85603Y-53402D01*
X85603Y-53686D01*
X85547Y-53663D01*
X85403Y-53663D01*
X85320Y-53697D01*
X85227Y-53658D01*
X85083Y-53658D01*
X85038Y-53677D01*
X84922Y-53628D01*
X84778Y-53628D01*
X84770Y-53631D01*
X84761Y-53610D01*
X84659Y-53508D01*
X84550Y-53463D01*
X84708Y-53463D01*
X84797Y-53426D01*
X84866Y-53358D01*
X84903Y-53268D01*
X84903Y-53171D01*
X84903Y-52371D01*
X84866Y-52282D01*
X84824Y-52240D01*
X84877Y-52240D01*
X84899Y-52231D01*
X85204Y-52231D01*
X85153Y-52281D01*
X85116Y-52371D01*
X85116Y-52468D01*
X85116Y-52702D01*
X85177Y-52763D01*
X85603Y-52763D01*
X85603Y-52755D01*
X85716Y-52755D01*
X85716Y-52763D01*
X86142Y-52763D01*
X86203Y-52702D01*
X86203Y-52468D01*
X86203Y-52371D01*
X86166Y-52281D01*
X86115Y-52231D01*
X87500Y-52231D01*
X87500Y-52231D01*
X87645Y-52202D01*
X87645Y-52202D01*
X87769Y-52119D01*
X87775Y-52113D01*
X88008Y-52113D01*
X88008Y-52113D01*
G37*
G54D29*
X88008Y-52113D02*
X87467Y-52654D01*
X87417Y-52633D01*
X87273Y-52633D01*
X87140Y-52688D01*
X87038Y-52790D01*
X86983Y-52922D01*
X86983Y-52931D01*
X86930Y-52953D01*
X86828Y-53055D01*
X86773Y-53187D01*
X86773Y-53331D01*
X86821Y-53447D01*
X86798Y-53502D01*
X86798Y-53646D01*
X86853Y-53779D01*
X86931Y-53857D01*
X86908Y-53880D01*
X86853Y-54012D01*
X86853Y-54015D01*
X86810Y-54033D01*
X86708Y-54135D01*
X86653Y-54267D01*
X86653Y-54411D01*
X86705Y-54537D01*
X86705Y-54537D01*
X86203Y-54035D01*
X86203Y-53171D01*
X86203Y-52937D01*
X86142Y-52876D01*
X85716Y-52876D01*
X85716Y-53402D01*
X85777Y-53463D01*
X86008Y-53463D01*
X86097Y-53426D01*
X86166Y-53358D01*
X86203Y-53268D01*
X86203Y-53171D01*
X86203Y-54035D01*
X86171Y-54003D01*
X86171Y-53998D01*
X86116Y-53865D01*
X86014Y-53763D01*
X85882Y-53708D01*
X85738Y-53708D01*
X85689Y-53728D01*
X85679Y-53718D01*
X85603Y-53686D01*
X85603Y-53402D01*
X85603Y-52876D01*
X85177Y-52876D01*
X85116Y-52937D01*
X85116Y-53171D01*
X85116Y-53268D01*
X85153Y-53358D01*
X85222Y-53426D01*
X85311Y-53463D01*
X85542Y-53463D01*
X85603Y-53402D01*
X85603Y-53686D01*
X85547Y-53663D01*
X85403Y-53663D01*
X85320Y-53697D01*
X85227Y-53658D01*
X85083Y-53658D01*
X85038Y-53677D01*
X84922Y-53628D01*
X84778Y-53628D01*
X84770Y-53631D01*
X84761Y-53610D01*
X84659Y-53508D01*
X84550Y-53463D01*
X84708Y-53463D01*
X84797Y-53426D01*
X84866Y-53358D01*
X84903Y-53268D01*
X84903Y-53171D01*
X84903Y-52371D01*
X84866Y-52282D01*
X84824Y-52240D01*
X84877Y-52240D01*
X84899Y-52231D01*
X85204Y-52231D01*
X85153Y-52281D01*
X85116Y-52371D01*
X85116Y-52468D01*
X85116Y-52702D01*
X85177Y-52763D01*
X85603Y-52763D01*
X85603Y-52755D01*
X85716Y-52755D01*
X85716Y-52763D01*
X86142Y-52763D01*
X86203Y-52702D01*
X86203Y-52468D01*
X86203Y-52371D01*
X86166Y-52281D01*
X86115Y-52231D01*
X87500Y-52231D01*
X87500Y-52231D01*
X87645Y-52202D01*
X87645Y-52202D01*
X87769Y-52119D01*
X87775Y-52113D01*
X88008Y-52113D01*
G54D10*
G36*
X88154Y-45866D02*
X88146Y-45866D01*
X88146Y-45874D01*
X88033Y-45874D01*
X88033Y-45866D01*
X87782Y-45866D01*
X87721Y-45927D01*
X87721Y-45986D01*
X87721Y-46077D01*
X87657Y-46103D01*
X87588Y-46171D01*
X87551Y-46261D01*
X87551Y-46358D01*
X87551Y-46908D01*
X87553Y-46913D01*
X87553Y-46954D01*
X87527Y-46943D01*
X87383Y-46943D01*
X87250Y-46998D01*
X87148Y-47100D01*
X87093Y-47232D01*
X87093Y-47238D01*
X87048Y-47284D01*
X87048Y-46861D01*
X87048Y-46408D01*
X87048Y-46311D01*
X87011Y-46221D01*
X86942Y-46153D01*
X86853Y-46116D01*
X86747Y-46116D01*
X86686Y-46177D01*
X86686Y-46578D01*
X86987Y-46578D01*
X87048Y-46517D01*
X87048Y-46408D01*
X87048Y-46861D01*
X87048Y-46752D01*
X86987Y-46691D01*
X86686Y-46691D01*
X86686Y-47092D01*
X86747Y-47153D01*
X86853Y-47153D01*
X86942Y-47116D01*
X87011Y-47048D01*
X87048Y-46958D01*
X87048Y-46861D01*
X87048Y-47284D01*
X86851Y-47481D01*
X86785Y-47579D01*
X86762Y-47695D01*
X86762Y-50436D01*
X86713Y-50485D01*
X86658Y-50617D01*
X86658Y-50761D01*
X86713Y-50894D01*
X86815Y-50996D01*
X86831Y-51003D01*
X86831Y-51058D01*
X86831Y-51117D01*
X86892Y-51178D01*
X87143Y-51178D01*
X87143Y-51170D01*
X87256Y-51170D01*
X87256Y-51178D01*
X87264Y-51178D01*
X87264Y-51291D01*
X87256Y-51291D01*
X87256Y-51299D01*
X87143Y-51299D01*
X87143Y-51291D01*
X86892Y-51291D01*
X86831Y-51352D01*
X86831Y-51411D01*
X86831Y-51468D01*
X85081Y-51468D01*
X85039Y-51427D01*
X84877Y-51359D01*
X84702Y-51359D01*
X84540Y-51426D01*
X84417Y-51550D01*
X84349Y-51712D01*
X84349Y-51887D01*
X84416Y-52049D01*
X84540Y-52172D01*
X84549Y-52176D01*
X84020Y-52176D01*
X84077Y-52119D01*
X84145Y-51957D01*
X84145Y-51782D01*
X84078Y-51620D01*
X83954Y-51497D01*
X83792Y-51429D01*
X83681Y-51429D01*
X83681Y-50767D01*
X83852Y-50596D01*
X84180Y-50596D01*
X84244Y-50583D01*
X84453Y-50583D01*
X84536Y-50548D01*
X84911Y-50923D01*
X84913Y-50929D01*
X85015Y-51031D01*
X85147Y-51086D01*
X85291Y-51086D01*
X85424Y-51031D01*
X85433Y-51022D01*
X85477Y-51041D01*
X85621Y-51041D01*
X85754Y-50986D01*
X85779Y-50961D01*
X85815Y-50996D01*
X85947Y-51051D01*
X86091Y-51051D01*
X86224Y-50996D01*
X86326Y-50894D01*
X86381Y-50762D01*
X86381Y-50618D01*
X86326Y-50485D01*
X86224Y-50383D01*
X86092Y-50328D01*
X86086Y-50328D01*
X85477Y-49719D01*
X85477Y-48488D01*
X85483Y-48482D01*
X85483Y-48324D01*
X85536Y-48197D01*
X85536Y-48053D01*
X85518Y-48010D01*
X85596Y-48010D01*
X85596Y-48018D01*
X85604Y-48018D01*
X85604Y-48131D01*
X85596Y-48131D01*
X85596Y-48482D01*
X85657Y-48543D01*
X85713Y-48543D01*
X85802Y-48506D01*
X85840Y-48469D01*
X85876Y-48506D01*
X85966Y-48543D01*
X86063Y-48543D01*
X86313Y-48543D01*
X86402Y-48506D01*
X86471Y-48438D01*
X86508Y-48348D01*
X86508Y-48251D01*
X86508Y-48159D01*
X86508Y-48159D01*
X86526Y-48070D01*
X86526Y-48070D01*
X86526Y-47450D01*
X86497Y-47304D01*
X86497Y-47304D01*
X86414Y-47180D01*
X86373Y-47139D01*
X86406Y-47153D01*
X86512Y-47153D01*
X86573Y-47092D01*
X86573Y-46691D01*
X86565Y-46691D01*
X86565Y-46578D01*
X86573Y-46578D01*
X86573Y-46177D01*
X86512Y-46116D01*
X86406Y-46116D01*
X86317Y-46153D01*
X86254Y-46215D01*
X86193Y-46153D01*
X86168Y-46143D01*
X86159Y-46099D01*
X86093Y-46001D01*
X86093Y-46001D01*
X86076Y-45983D01*
X86076Y-45978D01*
X86021Y-45845D01*
X85919Y-45743D01*
X85787Y-45688D01*
X85643Y-45688D01*
X85510Y-45743D01*
X85408Y-45845D01*
X85353Y-45977D01*
X85353Y-46121D01*
X85408Y-46254D01*
X85462Y-46308D01*
X85461Y-46311D01*
X85461Y-46408D01*
X85461Y-46958D01*
X85495Y-47040D01*
X85479Y-47055D01*
X85443Y-47018D01*
X85353Y-46981D01*
X85256Y-46981D01*
X85006Y-46981D01*
X84917Y-47018D01*
X84848Y-47086D01*
X84811Y-47176D01*
X84811Y-47273D01*
X84811Y-47279D01*
X84577Y-47513D01*
X84140Y-47513D01*
X83685Y-47513D01*
X83659Y-47513D01*
X83513Y-47542D01*
X83451Y-47584D01*
X83389Y-47625D01*
X83299Y-47715D01*
X83216Y-47631D01*
X83216Y-47567D01*
X83271Y-47544D01*
X83310Y-47506D01*
X83465Y-47506D01*
X83465Y-47506D01*
X83610Y-47477D01*
X83610Y-47477D01*
X83734Y-47394D01*
X83954Y-47174D01*
X83954Y-47174D01*
X83995Y-47112D01*
X84037Y-47050D01*
X84037Y-47050D01*
X84066Y-46905D01*
X84066Y-46905D01*
X84066Y-46782D01*
X85182Y-45666D01*
X87721Y-45666D01*
X87721Y-45692D01*
X87782Y-45753D01*
X88033Y-45753D01*
X88033Y-45745D01*
X88146Y-45745D01*
X88146Y-45753D01*
X88154Y-45753D01*
X88154Y-45866D01*
X88154Y-45866D01*
G37*
G54D29*
X88154Y-45866D02*
X88146Y-45866D01*
X88146Y-45874D01*
X88033Y-45874D01*
X88033Y-45866D01*
X87782Y-45866D01*
X87721Y-45927D01*
X87721Y-45986D01*
X87721Y-46077D01*
X87657Y-46103D01*
X87588Y-46171D01*
X87551Y-46261D01*
X87551Y-46358D01*
X87551Y-46908D01*
X87553Y-46913D01*
X87553Y-46954D01*
X87527Y-46943D01*
X87383Y-46943D01*
X87250Y-46998D01*
X87148Y-47100D01*
X87093Y-47232D01*
X87093Y-47238D01*
X87048Y-47284D01*
X87048Y-46861D01*
X87048Y-46408D01*
X87048Y-46311D01*
X87011Y-46221D01*
X86942Y-46153D01*
X86853Y-46116D01*
X86747Y-46116D01*
X86686Y-46177D01*
X86686Y-46578D01*
X86987Y-46578D01*
X87048Y-46517D01*
X87048Y-46408D01*
X87048Y-46861D01*
X87048Y-46752D01*
X86987Y-46691D01*
X86686Y-46691D01*
X86686Y-47092D01*
X86747Y-47153D01*
X86853Y-47153D01*
X86942Y-47116D01*
X87011Y-47048D01*
X87048Y-46958D01*
X87048Y-46861D01*
X87048Y-47284D01*
X86851Y-47481D01*
X86785Y-47579D01*
X86762Y-47695D01*
X86762Y-50436D01*
X86713Y-50485D01*
X86658Y-50617D01*
X86658Y-50761D01*
X86713Y-50894D01*
X86815Y-50996D01*
X86831Y-51003D01*
X86831Y-51058D01*
X86831Y-51117D01*
X86892Y-51178D01*
X87143Y-51178D01*
X87143Y-51170D01*
X87256Y-51170D01*
X87256Y-51178D01*
X87264Y-51178D01*
X87264Y-51291D01*
X87256Y-51291D01*
X87256Y-51299D01*
X87143Y-51299D01*
X87143Y-51291D01*
X86892Y-51291D01*
X86831Y-51352D01*
X86831Y-51411D01*
X86831Y-51468D01*
X85081Y-51468D01*
X85039Y-51427D01*
X84877Y-51359D01*
X84702Y-51359D01*
X84540Y-51426D01*
X84417Y-51550D01*
X84349Y-51712D01*
X84349Y-51887D01*
X84416Y-52049D01*
X84540Y-52172D01*
X84549Y-52176D01*
X84020Y-52176D01*
X84077Y-52119D01*
X84145Y-51957D01*
X84145Y-51782D01*
X84078Y-51620D01*
X83954Y-51497D01*
X83792Y-51429D01*
X83681Y-51429D01*
X83681Y-50767D01*
X83852Y-50596D01*
X84180Y-50596D01*
X84244Y-50583D01*
X84453Y-50583D01*
X84536Y-50548D01*
X84911Y-50923D01*
X84913Y-50929D01*
X85015Y-51031D01*
X85147Y-51086D01*
X85291Y-51086D01*
X85424Y-51031D01*
X85433Y-51022D01*
X85477Y-51041D01*
X85621Y-51041D01*
X85754Y-50986D01*
X85779Y-50961D01*
X85815Y-50996D01*
X85947Y-51051D01*
X86091Y-51051D01*
X86224Y-50996D01*
X86326Y-50894D01*
X86381Y-50762D01*
X86381Y-50618D01*
X86326Y-50485D01*
X86224Y-50383D01*
X86092Y-50328D01*
X86086Y-50328D01*
X85477Y-49719D01*
X85477Y-48488D01*
X85483Y-48482D01*
X85483Y-48324D01*
X85536Y-48197D01*
X85536Y-48053D01*
X85518Y-48010D01*
X85596Y-48010D01*
X85596Y-48018D01*
X85604Y-48018D01*
X85604Y-48131D01*
X85596Y-48131D01*
X85596Y-48482D01*
X85657Y-48543D01*
X85713Y-48543D01*
X85802Y-48506D01*
X85840Y-48469D01*
X85876Y-48506D01*
X85966Y-48543D01*
X86063Y-48543D01*
X86313Y-48543D01*
X86402Y-48506D01*
X86471Y-48438D01*
X86508Y-48348D01*
X86508Y-48251D01*
X86508Y-48159D01*
X86508Y-48159D01*
X86526Y-48070D01*
X86526Y-48070D01*
X86526Y-47450D01*
X86497Y-47304D01*
X86497Y-47304D01*
X86414Y-47180D01*
X86373Y-47139D01*
X86406Y-47153D01*
X86512Y-47153D01*
X86573Y-47092D01*
X86573Y-46691D01*
X86565Y-46691D01*
X86565Y-46578D01*
X86573Y-46578D01*
X86573Y-46177D01*
X86512Y-46116D01*
X86406Y-46116D01*
X86317Y-46153D01*
X86254Y-46215D01*
X86193Y-46153D01*
X86168Y-46143D01*
X86159Y-46099D01*
X86093Y-46001D01*
X86093Y-46001D01*
X86076Y-45983D01*
X86076Y-45978D01*
X86021Y-45845D01*
X85919Y-45743D01*
X85787Y-45688D01*
X85643Y-45688D01*
X85510Y-45743D01*
X85408Y-45845D01*
X85353Y-45977D01*
X85353Y-46121D01*
X85408Y-46254D01*
X85462Y-46308D01*
X85461Y-46311D01*
X85461Y-46408D01*
X85461Y-46958D01*
X85495Y-47040D01*
X85479Y-47055D01*
X85443Y-47018D01*
X85353Y-46981D01*
X85256Y-46981D01*
X85006Y-46981D01*
X84917Y-47018D01*
X84848Y-47086D01*
X84811Y-47176D01*
X84811Y-47273D01*
X84811Y-47279D01*
X84577Y-47513D01*
X84140Y-47513D01*
X83685Y-47513D01*
X83659Y-47513D01*
X83513Y-47542D01*
X83451Y-47584D01*
X83389Y-47625D01*
X83299Y-47715D01*
X83216Y-47631D01*
X83216Y-47567D01*
X83271Y-47544D01*
X83310Y-47506D01*
X83465Y-47506D01*
X83465Y-47506D01*
X83610Y-47477D01*
X83610Y-47477D01*
X83734Y-47394D01*
X83954Y-47174D01*
X83954Y-47174D01*
X83995Y-47112D01*
X84037Y-47050D01*
X84037Y-47050D01*
X84066Y-46905D01*
X84066Y-46905D01*
X84066Y-46782D01*
X85182Y-45666D01*
X87721Y-45666D01*
X87721Y-45692D01*
X87782Y-45753D01*
X88033Y-45753D01*
X88033Y-45745D01*
X88146Y-45745D01*
X88146Y-45753D01*
X88154Y-45753D01*
X88154Y-45866D01*
G54D10*
G36*
X88797Y-43434D02*
X88658Y-43573D01*
X88658Y-43036D01*
X88578Y-42843D01*
X88431Y-42696D01*
X88239Y-42616D01*
X88031Y-42616D01*
X87838Y-42696D01*
X87691Y-42843D01*
X87611Y-43035D01*
X87611Y-43243D01*
X87691Y-43436D01*
X87838Y-43583D01*
X88030Y-43663D01*
X88238Y-43663D01*
X88431Y-43583D01*
X88578Y-43436D01*
X88658Y-43244D01*
X88658Y-43036D01*
X88658Y-43573D01*
X88244Y-43987D01*
X86658Y-43987D01*
X86658Y-43036D01*
X86578Y-42843D01*
X86431Y-42696D01*
X86239Y-42616D01*
X86031Y-42616D01*
X85838Y-42696D01*
X85691Y-42843D01*
X85611Y-43035D01*
X85611Y-43243D01*
X85691Y-43436D01*
X85838Y-43583D01*
X86030Y-43663D01*
X86238Y-43663D01*
X86431Y-43583D01*
X86578Y-43436D01*
X86658Y-43244D01*
X86658Y-43036D01*
X86658Y-43987D01*
X85740Y-43987D01*
X85663Y-44002D01*
X85659Y-43984D01*
X85593Y-43886D01*
X85593Y-43886D01*
X85243Y-43536D01*
X85145Y-43470D01*
X85030Y-43447D01*
X84535Y-43447D01*
X83850Y-43447D01*
X83254Y-43447D01*
X83217Y-43410D01*
X83070Y-43349D01*
X82910Y-43349D01*
X82872Y-43364D01*
X82872Y-40500D01*
X83074Y-40297D01*
X83135Y-40323D01*
X83351Y-40323D01*
X83551Y-40240D01*
X83704Y-40088D01*
X83744Y-39992D01*
X83783Y-40087D01*
X83936Y-40240D01*
X84135Y-40323D01*
X84351Y-40323D01*
X84551Y-40240D01*
X84704Y-40088D01*
X84744Y-39992D01*
X84783Y-40087D01*
X84936Y-40240D01*
X85135Y-40323D01*
X85351Y-40323D01*
X85551Y-40240D01*
X85700Y-40091D01*
X85700Y-40128D01*
X85737Y-40217D01*
X85806Y-40286D01*
X85895Y-40323D01*
X85992Y-40323D01*
X86592Y-40323D01*
X86681Y-40286D01*
X86750Y-40218D01*
X86787Y-40128D01*
X86787Y-40031D01*
X86787Y-39702D01*
X87300Y-39702D01*
X87300Y-39887D01*
X87383Y-40087D01*
X87536Y-40240D01*
X87541Y-40242D01*
X87541Y-40294D01*
X87564Y-40409D01*
X87630Y-40508D01*
X88797Y-41675D01*
X88797Y-43434D01*
X88797Y-43434D01*
G37*
G54D29*
X88797Y-43434D02*
X88658Y-43573D01*
X88658Y-43036D01*
X88578Y-42843D01*
X88431Y-42696D01*
X88239Y-42616D01*
X88031Y-42616D01*
X87838Y-42696D01*
X87691Y-42843D01*
X87611Y-43035D01*
X87611Y-43243D01*
X87691Y-43436D01*
X87838Y-43583D01*
X88030Y-43663D01*
X88238Y-43663D01*
X88431Y-43583D01*
X88578Y-43436D01*
X88658Y-43244D01*
X88658Y-43036D01*
X88658Y-43573D01*
X88244Y-43987D01*
X86658Y-43987D01*
X86658Y-43036D01*
X86578Y-42843D01*
X86431Y-42696D01*
X86239Y-42616D01*
X86031Y-42616D01*
X85838Y-42696D01*
X85691Y-42843D01*
X85611Y-43035D01*
X85611Y-43243D01*
X85691Y-43436D01*
X85838Y-43583D01*
X86030Y-43663D01*
X86238Y-43663D01*
X86431Y-43583D01*
X86578Y-43436D01*
X86658Y-43244D01*
X86658Y-43036D01*
X86658Y-43987D01*
X85740Y-43987D01*
X85663Y-44002D01*
X85659Y-43984D01*
X85593Y-43886D01*
X85593Y-43886D01*
X85243Y-43536D01*
X85145Y-43470D01*
X85030Y-43447D01*
X84535Y-43447D01*
X83850Y-43447D01*
X83254Y-43447D01*
X83217Y-43410D01*
X83070Y-43349D01*
X82910Y-43349D01*
X82872Y-43364D01*
X82872Y-40500D01*
X83074Y-40297D01*
X83135Y-40323D01*
X83351Y-40323D01*
X83551Y-40240D01*
X83704Y-40088D01*
X83744Y-39992D01*
X83783Y-40087D01*
X83936Y-40240D01*
X84135Y-40323D01*
X84351Y-40323D01*
X84551Y-40240D01*
X84704Y-40088D01*
X84744Y-39992D01*
X84783Y-40087D01*
X84936Y-40240D01*
X85135Y-40323D01*
X85351Y-40323D01*
X85551Y-40240D01*
X85700Y-40091D01*
X85700Y-40128D01*
X85737Y-40217D01*
X85806Y-40286D01*
X85895Y-40323D01*
X85992Y-40323D01*
X86592Y-40323D01*
X86681Y-40286D01*
X86750Y-40218D01*
X86787Y-40128D01*
X86787Y-40031D01*
X86787Y-39702D01*
X87300Y-39702D01*
X87300Y-39887D01*
X87383Y-40087D01*
X87536Y-40240D01*
X87541Y-40242D01*
X87541Y-40294D01*
X87564Y-40409D01*
X87630Y-40508D01*
X88797Y-41675D01*
X88797Y-43434D01*
G54D10*
G36*
X89008Y-50462D02*
X88181Y-51289D01*
X88181Y-51235D01*
X88168Y-51170D01*
X88168Y-50961D01*
X88131Y-50872D01*
X88063Y-50803D01*
X87973Y-50766D01*
X87876Y-50766D01*
X87626Y-50766D01*
X87546Y-50800D01*
X87641Y-50704D01*
X87646Y-50692D01*
X88061Y-50692D01*
X88065Y-50696D01*
X88197Y-50751D01*
X88341Y-50751D01*
X88474Y-50696D01*
X88576Y-50594D01*
X88631Y-50462D01*
X88631Y-50318D01*
X88576Y-50185D01*
X88474Y-50083D01*
X88453Y-50074D01*
X88453Y-48743D01*
X88453Y-48637D01*
X88392Y-48576D01*
X87991Y-48576D01*
X87991Y-48877D01*
X88052Y-48938D01*
X88161Y-48938D01*
X88258Y-48938D01*
X88348Y-48901D01*
X88416Y-48832D01*
X88453Y-48743D01*
X88453Y-50074D01*
X88342Y-50028D01*
X88198Y-50028D01*
X88065Y-50083D01*
X88061Y-50087D01*
X87878Y-50087D01*
X87878Y-48877D01*
X87878Y-48576D01*
X87477Y-48576D01*
X87416Y-48637D01*
X87416Y-48743D01*
X87453Y-48832D01*
X87521Y-48901D01*
X87611Y-48938D01*
X87708Y-48938D01*
X87817Y-48938D01*
X87878Y-48877D01*
X87878Y-50087D01*
X87445Y-50087D01*
X87367Y-50103D01*
X87367Y-47820D01*
X87416Y-47770D01*
X87416Y-47993D01*
X87453Y-48082D01*
X87515Y-48145D01*
X87453Y-48207D01*
X87416Y-48296D01*
X87416Y-48402D01*
X87477Y-48463D01*
X87878Y-48463D01*
X87878Y-48455D01*
X87991Y-48455D01*
X87991Y-48463D01*
X88392Y-48463D01*
X88425Y-48429D01*
X88471Y-48476D01*
X88561Y-48513D01*
X88658Y-48513D01*
X88717Y-48513D01*
X88778Y-48452D01*
X88778Y-48201D01*
X88427Y-48201D01*
X88417Y-48211D01*
X88416Y-48207D01*
X88354Y-48144D01*
X88416Y-48083D01*
X88417Y-48078D01*
X88427Y-48088D01*
X88778Y-48088D01*
X88778Y-48080D01*
X88891Y-48080D01*
X88891Y-48088D01*
X88899Y-48088D01*
X88899Y-48201D01*
X88891Y-48201D01*
X88891Y-48452D01*
X88952Y-48513D01*
X89008Y-48513D01*
X89008Y-50462D01*
X89008Y-50462D01*
G37*
G54D29*
X89008Y-50462D02*
X88181Y-51289D01*
X88181Y-51235D01*
X88168Y-51170D01*
X88168Y-50961D01*
X88131Y-50872D01*
X88063Y-50803D01*
X87973Y-50766D01*
X87876Y-50766D01*
X87626Y-50766D01*
X87546Y-50800D01*
X87641Y-50704D01*
X87646Y-50692D01*
X88061Y-50692D01*
X88065Y-50696D01*
X88197Y-50751D01*
X88341Y-50751D01*
X88474Y-50696D01*
X88576Y-50594D01*
X88631Y-50462D01*
X88631Y-50318D01*
X88576Y-50185D01*
X88474Y-50083D01*
X88453Y-50074D01*
X88453Y-48743D01*
X88453Y-48637D01*
X88392Y-48576D01*
X87991Y-48576D01*
X87991Y-48877D01*
X88052Y-48938D01*
X88161Y-48938D01*
X88258Y-48938D01*
X88348Y-48901D01*
X88416Y-48832D01*
X88453Y-48743D01*
X88453Y-50074D01*
X88342Y-50028D01*
X88198Y-50028D01*
X88065Y-50083D01*
X88061Y-50087D01*
X87878Y-50087D01*
X87878Y-48877D01*
X87878Y-48576D01*
X87477Y-48576D01*
X87416Y-48637D01*
X87416Y-48743D01*
X87453Y-48832D01*
X87521Y-48901D01*
X87611Y-48938D01*
X87708Y-48938D01*
X87817Y-48938D01*
X87878Y-48877D01*
X87878Y-50087D01*
X87445Y-50087D01*
X87367Y-50103D01*
X87367Y-47820D01*
X87416Y-47770D01*
X87416Y-47993D01*
X87453Y-48082D01*
X87515Y-48145D01*
X87453Y-48207D01*
X87416Y-48296D01*
X87416Y-48402D01*
X87477Y-48463D01*
X87878Y-48463D01*
X87878Y-48455D01*
X87991Y-48455D01*
X87991Y-48463D01*
X88392Y-48463D01*
X88425Y-48429D01*
X88471Y-48476D01*
X88561Y-48513D01*
X88658Y-48513D01*
X88717Y-48513D01*
X88778Y-48452D01*
X88778Y-48201D01*
X88427Y-48201D01*
X88417Y-48211D01*
X88416Y-48207D01*
X88354Y-48144D01*
X88416Y-48083D01*
X88417Y-48078D01*
X88427Y-48088D01*
X88778Y-48088D01*
X88778Y-48080D01*
X88891Y-48080D01*
X88891Y-48088D01*
X88899Y-48088D01*
X88899Y-48201D01*
X88891Y-48201D01*
X88891Y-48452D01*
X88952Y-48513D01*
X89008Y-48513D01*
X89008Y-50462D01*
G54D10*
G36*
X90037Y-57272D02*
X89952Y-57236D01*
X89736Y-57236D01*
X89536Y-57319D01*
X89383Y-57471D01*
X89301Y-57671D01*
X89300Y-57887D01*
X89383Y-58087D01*
X89536Y-58240D01*
X89631Y-58279D01*
X89536Y-58319D01*
X89383Y-58471D01*
X89301Y-58671D01*
X89300Y-58837D01*
X88387Y-58837D01*
X88387Y-58672D01*
X88305Y-58472D01*
X88152Y-58319D01*
X87952Y-58236D01*
X87736Y-58236D01*
X87536Y-58319D01*
X87383Y-58471D01*
X87347Y-58559D01*
X87323Y-58501D01*
X87230Y-58473D01*
X87150Y-58553D01*
X87150Y-58393D01*
X87122Y-58300D01*
X86917Y-58230D01*
X86702Y-58244D01*
X86566Y-58300D01*
X86537Y-58393D01*
X86844Y-58699D01*
X87150Y-58393D01*
X87150Y-58553D01*
X86924Y-58780D01*
X86929Y-58785D01*
X86878Y-58837D01*
X86810Y-58837D01*
X86758Y-58785D01*
X86764Y-58780D01*
X86457Y-58473D01*
X86365Y-58501D01*
X86346Y-58557D01*
X86323Y-58501D01*
X86230Y-58473D01*
X86150Y-58553D01*
X86150Y-58393D01*
X86122Y-58300D01*
X85917Y-58230D01*
X85702Y-58244D01*
X85566Y-58300D01*
X85537Y-58393D01*
X85844Y-58699D01*
X86150Y-58393D01*
X86150Y-58553D01*
X85924Y-58780D01*
X85929Y-58785D01*
X85878Y-58837D01*
X85810Y-58837D01*
X85758Y-58785D01*
X85764Y-58780D01*
X85457Y-58473D01*
X85365Y-58501D01*
X85343Y-58565D01*
X85305Y-58472D01*
X85152Y-58319D01*
X84952Y-58236D01*
X84736Y-58236D01*
X84536Y-58319D01*
X84383Y-58471D01*
X84344Y-58567D01*
X84305Y-58472D01*
X84152Y-58319D01*
X83952Y-58236D01*
X83736Y-58236D01*
X83536Y-58319D01*
X83383Y-58471D01*
X83344Y-58567D01*
X83305Y-58472D01*
X83152Y-58319D01*
X82952Y-58236D01*
X82736Y-58236D01*
X82724Y-58241D01*
X82291Y-57808D01*
X82291Y-55302D01*
X82319Y-55235D01*
X82319Y-55490D01*
X82351Y-55650D01*
X82442Y-55787D01*
X82972Y-56317D01*
X83109Y-56408D01*
X83270Y-56440D01*
X83366Y-56440D01*
X83373Y-56457D01*
X83441Y-56526D01*
X83531Y-56563D01*
X83628Y-56563D01*
X84428Y-56563D01*
X84474Y-56544D01*
X84476Y-56546D01*
X84508Y-56559D01*
X84508Y-56565D01*
X84537Y-56710D01*
X84595Y-56796D01*
X84595Y-56821D01*
X84664Y-56990D01*
X84794Y-57119D01*
X84963Y-57189D01*
X85146Y-57189D01*
X85315Y-57120D01*
X85444Y-56990D01*
X85514Y-56821D01*
X85514Y-56638D01*
X85445Y-56469D01*
X85395Y-56419D01*
X85408Y-56388D01*
X85408Y-56291D01*
X85408Y-55941D01*
X85371Y-55852D01*
X85309Y-55790D01*
X85371Y-55727D01*
X85408Y-55638D01*
X85408Y-55600D01*
X85826Y-56018D01*
X85924Y-56084D01*
X86040Y-56107D01*
X89279Y-56107D01*
X90037Y-56865D01*
X90037Y-57272D01*
X90037Y-57272D01*
G37*
G54D29*
X90037Y-57272D02*
X89952Y-57236D01*
X89736Y-57236D01*
X89536Y-57319D01*
X89383Y-57471D01*
X89301Y-57671D01*
X89300Y-57887D01*
X89383Y-58087D01*
X89536Y-58240D01*
X89631Y-58279D01*
X89536Y-58319D01*
X89383Y-58471D01*
X89301Y-58671D01*
X89300Y-58837D01*
X88387Y-58837D01*
X88387Y-58672D01*
X88305Y-58472D01*
X88152Y-58319D01*
X87952Y-58236D01*
X87736Y-58236D01*
X87536Y-58319D01*
X87383Y-58471D01*
X87347Y-58559D01*
X87323Y-58501D01*
X87230Y-58473D01*
X87150Y-58553D01*
X87150Y-58393D01*
X87122Y-58300D01*
X86917Y-58230D01*
X86702Y-58244D01*
X86566Y-58300D01*
X86537Y-58393D01*
X86844Y-58699D01*
X87150Y-58393D01*
X87150Y-58553D01*
X86924Y-58780D01*
X86929Y-58785D01*
X86878Y-58837D01*
X86810Y-58837D01*
X86758Y-58785D01*
X86764Y-58780D01*
X86457Y-58473D01*
X86365Y-58501D01*
X86346Y-58557D01*
X86323Y-58501D01*
X86230Y-58473D01*
X86150Y-58553D01*
X86150Y-58393D01*
X86122Y-58300D01*
X85917Y-58230D01*
X85702Y-58244D01*
X85566Y-58300D01*
X85537Y-58393D01*
X85844Y-58699D01*
X86150Y-58393D01*
X86150Y-58553D01*
X85924Y-58780D01*
X85929Y-58785D01*
X85878Y-58837D01*
X85810Y-58837D01*
X85758Y-58785D01*
X85764Y-58780D01*
X85457Y-58473D01*
X85365Y-58501D01*
X85343Y-58565D01*
X85305Y-58472D01*
X85152Y-58319D01*
X84952Y-58236D01*
X84736Y-58236D01*
X84536Y-58319D01*
X84383Y-58471D01*
X84344Y-58567D01*
X84305Y-58472D01*
X84152Y-58319D01*
X83952Y-58236D01*
X83736Y-58236D01*
X83536Y-58319D01*
X83383Y-58471D01*
X83344Y-58567D01*
X83305Y-58472D01*
X83152Y-58319D01*
X82952Y-58236D01*
X82736Y-58236D01*
X82724Y-58241D01*
X82291Y-57808D01*
X82291Y-55302D01*
X82319Y-55235D01*
X82319Y-55490D01*
X82351Y-55650D01*
X82442Y-55787D01*
X82972Y-56317D01*
X83109Y-56408D01*
X83270Y-56440D01*
X83366Y-56440D01*
X83373Y-56457D01*
X83441Y-56526D01*
X83531Y-56563D01*
X83628Y-56563D01*
X84428Y-56563D01*
X84474Y-56544D01*
X84476Y-56546D01*
X84508Y-56559D01*
X84508Y-56565D01*
X84537Y-56710D01*
X84595Y-56796D01*
X84595Y-56821D01*
X84664Y-56990D01*
X84794Y-57119D01*
X84963Y-57189D01*
X85146Y-57189D01*
X85315Y-57120D01*
X85444Y-56990D01*
X85514Y-56821D01*
X85514Y-56638D01*
X85445Y-56469D01*
X85395Y-56419D01*
X85408Y-56388D01*
X85408Y-56291D01*
X85408Y-55941D01*
X85371Y-55852D01*
X85309Y-55790D01*
X85371Y-55727D01*
X85408Y-55638D01*
X85408Y-55600D01*
X85826Y-56018D01*
X85924Y-56084D01*
X86040Y-56107D01*
X89279Y-56107D01*
X90037Y-56865D01*
X90037Y-57272D01*
G54D10*
G36*
X90541Y-56514D02*
X89944Y-55917D01*
X90219Y-55917D01*
X90541Y-56239D01*
X90541Y-56514D01*
X90541Y-56514D01*
G37*
G54D29*
X90541Y-56514D02*
X89944Y-55917D01*
X90219Y-55917D01*
X90541Y-56239D01*
X90541Y-56514D01*
G54D10*
G36*
X91194Y-48953D02*
X90796Y-49351D01*
X90730Y-49449D01*
X90707Y-49565D01*
X90707Y-49649D01*
X90693Y-49664D01*
X90693Y-49108D01*
X90693Y-49052D01*
X90632Y-48991D01*
X90281Y-48991D01*
X90281Y-49242D01*
X90342Y-49303D01*
X90401Y-49303D01*
X90498Y-49303D01*
X90588Y-49266D01*
X90656Y-49197D01*
X90693Y-49108D01*
X90693Y-49664D01*
X90323Y-50033D01*
X90318Y-50033D01*
X90185Y-50088D01*
X90083Y-50190D01*
X90028Y-50322D01*
X90028Y-50466D01*
X90083Y-50599D01*
X90185Y-50701D01*
X90267Y-50735D01*
X90308Y-50834D01*
X90391Y-50917D01*
X90375Y-50933D01*
X90017Y-50574D01*
X90017Y-49338D01*
X90021Y-49334D01*
X90034Y-49303D01*
X90048Y-49303D01*
X90107Y-49303D01*
X90168Y-49242D01*
X90168Y-48991D01*
X90160Y-48991D01*
X90160Y-48878D01*
X90168Y-48878D01*
X90168Y-48870D01*
X90281Y-48870D01*
X90281Y-48878D01*
X90632Y-48878D01*
X90653Y-48857D01*
X90711Y-48916D01*
X90801Y-48953D01*
X90898Y-48953D01*
X91194Y-48953D01*
X91194Y-48953D01*
G37*
G54D29*
X91194Y-48953D02*
X90796Y-49351D01*
X90730Y-49449D01*
X90707Y-49565D01*
X90707Y-49649D01*
X90693Y-49664D01*
X90693Y-49108D01*
X90693Y-49052D01*
X90632Y-48991D01*
X90281Y-48991D01*
X90281Y-49242D01*
X90342Y-49303D01*
X90401Y-49303D01*
X90498Y-49303D01*
X90588Y-49266D01*
X90656Y-49197D01*
X90693Y-49108D01*
X90693Y-49664D01*
X90323Y-50033D01*
X90318Y-50033D01*
X90185Y-50088D01*
X90083Y-50190D01*
X90028Y-50322D01*
X90028Y-50466D01*
X90083Y-50599D01*
X90185Y-50701D01*
X90267Y-50735D01*
X90308Y-50834D01*
X90391Y-50917D01*
X90375Y-50933D01*
X90017Y-50574D01*
X90017Y-49338D01*
X90021Y-49334D01*
X90034Y-49303D01*
X90048Y-49303D01*
X90107Y-49303D01*
X90168Y-49242D01*
X90168Y-48991D01*
X90160Y-48991D01*
X90160Y-48878D01*
X90168Y-48878D01*
X90168Y-48870D01*
X90281Y-48870D01*
X90281Y-48878D01*
X90632Y-48878D01*
X90653Y-48857D01*
X90711Y-48916D01*
X90801Y-48953D01*
X90898Y-48953D01*
X91194Y-48953D01*
G54D10*
G36*
X91297Y-47366D02*
X90801Y-47366D01*
X90749Y-47388D01*
X90662Y-47388D01*
X90629Y-47354D01*
X90666Y-47318D01*
X90703Y-47228D01*
X90703Y-47131D01*
X90703Y-46881D01*
X90666Y-46792D01*
X90655Y-46781D01*
X90691Y-46781D01*
X90824Y-46726D01*
X90926Y-46624D01*
X90981Y-46492D01*
X90981Y-46486D01*
X91297Y-46169D01*
X91297Y-47366D01*
X91297Y-47366D01*
G37*
G54D29*
X91297Y-47366D02*
X90801Y-47366D01*
X90749Y-47388D01*
X90662Y-47388D01*
X90629Y-47354D01*
X90666Y-47318D01*
X90703Y-47228D01*
X90703Y-47131D01*
X90703Y-46881D01*
X90666Y-46792D01*
X90655Y-46781D01*
X90691Y-46781D01*
X90824Y-46726D01*
X90926Y-46624D01*
X90981Y-46492D01*
X90981Y-46486D01*
X91297Y-46169D01*
X91297Y-47366D01*
G54D10*
G36*
X91434Y-40138D02*
X90736Y-40836D01*
X90670Y-40934D01*
X90647Y-41050D01*
X90647Y-44274D01*
X89083Y-45838D01*
X89078Y-45838D01*
X89071Y-45841D01*
X89071Y-45810D01*
X89071Y-45615D01*
X89071Y-45614D01*
X89058Y-45550D01*
X89058Y-45550D01*
X89058Y-45536D01*
X89052Y-45523D01*
X89052Y-45523D01*
X89042Y-45469D01*
X88959Y-45345D01*
X88959Y-45345D01*
X88629Y-45015D01*
X88505Y-44932D01*
X88360Y-44903D01*
X86091Y-44903D01*
X86091Y-44873D01*
X86036Y-44740D01*
X85934Y-44638D01*
X85911Y-44629D01*
X85936Y-44604D01*
X85941Y-44592D01*
X88370Y-44592D01*
X88485Y-44569D01*
X88485Y-44569D01*
X88583Y-44503D01*
X89313Y-43773D01*
X89313Y-43773D01*
X89313Y-43773D01*
X89379Y-43675D01*
X89402Y-43560D01*
X89402Y-43560D01*
X89402Y-41550D01*
X89402Y-41549D01*
X89379Y-41434D01*
X89313Y-41336D01*
X89313Y-41336D01*
X88185Y-40207D01*
X88304Y-40088D01*
X88344Y-39992D01*
X88383Y-40087D01*
X88536Y-40240D01*
X88735Y-40323D01*
X88951Y-40323D01*
X89151Y-40240D01*
X89304Y-40088D01*
X89344Y-39992D01*
X89383Y-40087D01*
X89536Y-40240D01*
X89735Y-40323D01*
X89951Y-40323D01*
X90151Y-40240D01*
X90304Y-40088D01*
X90344Y-39992D01*
X90383Y-40087D01*
X90536Y-40240D01*
X90735Y-40323D01*
X90951Y-40323D01*
X91151Y-40240D01*
X91304Y-40088D01*
X91344Y-39992D01*
X91383Y-40087D01*
X91434Y-40138D01*
X91434Y-40138D01*
G37*
G54D29*
X91434Y-40138D02*
X90736Y-40836D01*
X90670Y-40934D01*
X90647Y-41050D01*
X90647Y-44274D01*
X89083Y-45838D01*
X89078Y-45838D01*
X89071Y-45841D01*
X89071Y-45810D01*
X89071Y-45615D01*
X89071Y-45614D01*
X89058Y-45550D01*
X89058Y-45550D01*
X89058Y-45536D01*
X89052Y-45523D01*
X89052Y-45523D01*
X89042Y-45469D01*
X88959Y-45345D01*
X88959Y-45345D01*
X88629Y-45015D01*
X88505Y-44932D01*
X88360Y-44903D01*
X86091Y-44903D01*
X86091Y-44873D01*
X86036Y-44740D01*
X85934Y-44638D01*
X85911Y-44629D01*
X85936Y-44604D01*
X85941Y-44592D01*
X88370Y-44592D01*
X88485Y-44569D01*
X88485Y-44569D01*
X88583Y-44503D01*
X89313Y-43773D01*
X89313Y-43773D01*
X89313Y-43773D01*
X89379Y-43675D01*
X89402Y-43560D01*
X89402Y-43560D01*
X89402Y-41550D01*
X89402Y-41549D01*
X89379Y-41434D01*
X89313Y-41336D01*
X89313Y-41336D01*
X88185Y-40207D01*
X88304Y-40088D01*
X88344Y-39992D01*
X88383Y-40087D01*
X88536Y-40240D01*
X88735Y-40323D01*
X88951Y-40323D01*
X89151Y-40240D01*
X89304Y-40088D01*
X89344Y-39992D01*
X89383Y-40087D01*
X89536Y-40240D01*
X89735Y-40323D01*
X89951Y-40323D01*
X90151Y-40240D01*
X90304Y-40088D01*
X90344Y-39992D01*
X90383Y-40087D01*
X90536Y-40240D01*
X90735Y-40323D01*
X90951Y-40323D01*
X91151Y-40240D01*
X91304Y-40088D01*
X91344Y-39992D01*
X91383Y-40087D01*
X91434Y-40138D01*
G54D10*
G36*
X92515Y-54167D02*
X87725Y-54167D01*
X87685Y-54127D01*
X87725Y-54119D01*
X87725Y-54119D01*
X87823Y-54053D01*
X89454Y-52423D01*
X89582Y-52476D01*
X89726Y-52476D01*
X89859Y-52421D01*
X89911Y-52369D01*
X90013Y-52471D01*
X90013Y-52476D01*
X90068Y-52609D01*
X90170Y-52711D01*
X90302Y-52766D01*
X90446Y-52766D01*
X90498Y-52744D01*
X90545Y-52791D01*
X90677Y-52846D01*
X90821Y-52846D01*
X90954Y-52791D01*
X90968Y-52777D01*
X91037Y-52806D01*
X91181Y-52806D01*
X91314Y-52751D01*
X91326Y-52739D01*
X92102Y-53515D01*
X92102Y-53630D01*
X92125Y-53745D01*
X92191Y-53843D01*
X92515Y-54167D01*
X92515Y-54167D01*
G37*
G54D29*
X92515Y-54167D02*
X87725Y-54167D01*
X87685Y-54127D01*
X87725Y-54119D01*
X87725Y-54119D01*
X87823Y-54053D01*
X89454Y-52423D01*
X89582Y-52476D01*
X89726Y-52476D01*
X89859Y-52421D01*
X89911Y-52369D01*
X90013Y-52471D01*
X90013Y-52476D01*
X90068Y-52609D01*
X90170Y-52711D01*
X90302Y-52766D01*
X90446Y-52766D01*
X90498Y-52744D01*
X90545Y-52791D01*
X90677Y-52846D01*
X90821Y-52846D01*
X90954Y-52791D01*
X90968Y-52777D01*
X91037Y-52806D01*
X91181Y-52806D01*
X91314Y-52751D01*
X91326Y-52739D01*
X92102Y-53515D01*
X92102Y-53630D01*
X92125Y-53745D01*
X92191Y-53843D01*
X92515Y-54167D01*
G54D10*
G36*
X92730Y-41502D02*
X91252Y-42980D01*
X91252Y-41175D01*
X92058Y-40369D01*
X92123Y-40271D01*
X92127Y-40250D01*
X92151Y-40240D01*
X92304Y-40088D01*
X92344Y-39992D01*
X92383Y-40087D01*
X92536Y-40240D01*
X92541Y-40242D01*
X92541Y-40484D01*
X92564Y-40599D01*
X92630Y-40698D01*
X92635Y-40702D01*
X92437Y-40702D01*
X92411Y-40640D01*
X92309Y-40538D01*
X92177Y-40483D01*
X92033Y-40483D01*
X91900Y-40538D01*
X91798Y-40640D01*
X91743Y-40772D01*
X91743Y-40916D01*
X91798Y-41049D01*
X91831Y-41082D01*
X91828Y-41085D01*
X91773Y-41217D01*
X91773Y-41361D01*
X91828Y-41494D01*
X91930Y-41596D01*
X92062Y-41651D01*
X92206Y-41651D01*
X92339Y-41596D01*
X92433Y-41502D01*
X92730Y-41502D01*
X92730Y-41502D01*
G37*
G54D29*
X92730Y-41502D02*
X91252Y-42980D01*
X91252Y-41175D01*
X92058Y-40369D01*
X92123Y-40271D01*
X92127Y-40250D01*
X92151Y-40240D01*
X92304Y-40088D01*
X92344Y-39992D01*
X92383Y-40087D01*
X92536Y-40240D01*
X92541Y-40242D01*
X92541Y-40484D01*
X92564Y-40599D01*
X92630Y-40698D01*
X92635Y-40702D01*
X92437Y-40702D01*
X92411Y-40640D01*
X92309Y-40538D01*
X92177Y-40483D01*
X92033Y-40483D01*
X91900Y-40538D01*
X91798Y-40640D01*
X91743Y-40772D01*
X91743Y-40916D01*
X91798Y-41049D01*
X91831Y-41082D01*
X91828Y-41085D01*
X91773Y-41217D01*
X91773Y-41361D01*
X91828Y-41494D01*
X91930Y-41596D01*
X92062Y-41651D01*
X92206Y-41651D01*
X92339Y-41596D01*
X92433Y-41502D01*
X92730Y-41502D01*
G54D10*
G36*
X93462Y-54260D02*
X92707Y-53504D01*
X92707Y-53390D01*
X92684Y-53274D01*
X92618Y-53176D01*
X91964Y-52522D01*
X92510Y-52522D01*
X92625Y-52499D01*
X92625Y-52499D01*
X92723Y-52433D01*
X93023Y-52134D01*
X93040Y-52151D01*
X93172Y-52206D01*
X93178Y-52206D01*
X93462Y-52490D01*
X93462Y-53815D01*
X93462Y-54260D01*
X93462Y-54260D01*
G37*
G54D29*
X93462Y-54260D02*
X92707Y-53504D01*
X92707Y-53390D01*
X92684Y-53274D01*
X92618Y-53176D01*
X91964Y-52522D01*
X92510Y-52522D01*
X92625Y-52499D01*
X92625Y-52499D01*
X92723Y-52433D01*
X93023Y-52134D01*
X93040Y-52151D01*
X93172Y-52206D01*
X93178Y-52206D01*
X93462Y-52490D01*
X93462Y-53815D01*
X93462Y-54260D01*
G54D10*
G36*
X93541Y-57317D02*
X93536Y-57319D01*
X93383Y-57471D01*
X93344Y-57567D01*
X93305Y-57472D01*
X93152Y-57319D01*
X93146Y-57317D01*
X93146Y-56184D01*
X93123Y-56068D01*
X93058Y-55970D01*
X92044Y-54957D01*
X92089Y-54957D01*
X93541Y-56409D01*
X93541Y-57317D01*
X93541Y-57317D01*
G37*
G54D29*
X93541Y-57317D02*
X93536Y-57319D01*
X93383Y-57471D01*
X93344Y-57567D01*
X93305Y-57472D01*
X93152Y-57319D01*
X93146Y-57317D01*
X93146Y-56184D01*
X93123Y-56068D01*
X93058Y-55970D01*
X92044Y-54957D01*
X92089Y-54957D01*
X93541Y-56409D01*
X93541Y-57317D01*
G54D10*
G36*
X93631Y-58279D02*
X93536Y-58319D01*
X93383Y-58471D01*
X93344Y-58567D01*
X93305Y-58472D01*
X93152Y-58319D01*
X93056Y-58280D01*
X93151Y-58240D01*
X93304Y-58088D01*
X93344Y-57992D01*
X93383Y-58087D01*
X93536Y-58240D01*
X93631Y-58279D01*
X93631Y-58279D01*
G37*
G54D29*
X93631Y-58279D02*
X93536Y-58319D01*
X93383Y-58471D01*
X93344Y-58567D01*
X93305Y-58472D01*
X93152Y-58319D01*
X93056Y-58280D01*
X93151Y-58240D01*
X93304Y-58088D01*
X93344Y-57992D01*
X93383Y-58087D01*
X93536Y-58240D01*
X93631Y-58279D01*
G54D10*
G36*
X95237Y-57405D02*
X95152Y-57319D01*
X95146Y-57317D01*
X95146Y-56414D01*
X95146Y-56414D01*
X95123Y-56298D01*
X95058Y-56200D01*
X95058Y-56200D01*
X94154Y-55297D01*
X94390Y-55297D01*
X94505Y-55274D01*
X94505Y-55274D01*
X94603Y-55208D01*
X94858Y-54953D01*
X94892Y-54904D01*
X94904Y-54891D01*
X95237Y-55225D01*
X95237Y-57405D01*
X95237Y-57405D01*
G37*
G54D29*
X95237Y-57405D02*
X95152Y-57319D01*
X95146Y-57317D01*
X95146Y-56414D01*
X95146Y-56414D01*
X95123Y-56298D01*
X95058Y-56200D01*
X95058Y-56200D01*
X94154Y-55297D01*
X94390Y-55297D01*
X94505Y-55274D01*
X94505Y-55274D01*
X94603Y-55208D01*
X94858Y-54953D01*
X94892Y-54904D01*
X94904Y-54891D01*
X95237Y-55225D01*
X95237Y-57405D01*
G54D10*
G36*
X95847Y-45969D02*
X95759Y-46057D01*
X95081Y-46057D01*
X95081Y-46048D01*
X95026Y-45915D01*
X94924Y-45813D01*
X94792Y-45758D01*
X94648Y-45758D01*
X94515Y-45813D01*
X94511Y-45817D01*
X92470Y-45817D01*
X92354Y-45840D01*
X92256Y-45906D01*
X92082Y-46080D01*
X92082Y-45015D01*
X93595Y-43502D01*
X94530Y-43502D01*
X94791Y-43502D01*
X94897Y-43546D01*
X95041Y-43546D01*
X95174Y-43491D01*
X95276Y-43389D01*
X95331Y-43257D01*
X95331Y-43113D01*
X95276Y-42980D01*
X95174Y-42878D01*
X95042Y-42823D01*
X94898Y-42823D01*
X94765Y-42878D01*
X94746Y-42897D01*
X94530Y-42897D01*
X93470Y-42897D01*
X93354Y-42920D01*
X93256Y-42986D01*
X91902Y-44340D01*
X91902Y-43845D01*
X93355Y-42392D01*
X94271Y-42392D01*
X94275Y-42396D01*
X94407Y-42451D01*
X94551Y-42451D01*
X94684Y-42396D01*
X94786Y-42294D01*
X94841Y-42162D01*
X94841Y-42018D01*
X94786Y-41885D01*
X94684Y-41783D01*
X94671Y-41778D01*
X94671Y-41738D01*
X94616Y-41605D01*
X94514Y-41503D01*
X94511Y-41502D01*
X94519Y-41502D01*
X95847Y-42830D01*
X95847Y-45969D01*
X95847Y-45969D01*
G37*
G54D29*
X95847Y-45969D02*
X95759Y-46057D01*
X95081Y-46057D01*
X95081Y-46048D01*
X95026Y-45915D01*
X94924Y-45813D01*
X94792Y-45758D01*
X94648Y-45758D01*
X94515Y-45813D01*
X94511Y-45817D01*
X92470Y-45817D01*
X92354Y-45840D01*
X92256Y-45906D01*
X92082Y-46080D01*
X92082Y-45015D01*
X93595Y-43502D01*
X94530Y-43502D01*
X94791Y-43502D01*
X94897Y-43546D01*
X95041Y-43546D01*
X95174Y-43491D01*
X95276Y-43389D01*
X95331Y-43257D01*
X95331Y-43113D01*
X95276Y-42980D01*
X95174Y-42878D01*
X95042Y-42823D01*
X94898Y-42823D01*
X94765Y-42878D01*
X94746Y-42897D01*
X94530Y-42897D01*
X93470Y-42897D01*
X93354Y-42920D01*
X93256Y-42986D01*
X91902Y-44340D01*
X91902Y-43845D01*
X93355Y-42392D01*
X94271Y-42392D01*
X94275Y-42396D01*
X94407Y-42451D01*
X94551Y-42451D01*
X94684Y-42396D01*
X94786Y-42294D01*
X94841Y-42162D01*
X94841Y-42018D01*
X94786Y-41885D01*
X94684Y-41783D01*
X94671Y-41778D01*
X94671Y-41738D01*
X94616Y-41605D01*
X94514Y-41503D01*
X94511Y-41502D01*
X94519Y-41502D01*
X95847Y-42830D01*
X95847Y-45969D01*
G54D10*
G36*
X98152Y-58231D02*
X97546Y-58837D01*
X95387Y-58837D01*
X95387Y-58664D01*
X95753Y-58298D01*
X95819Y-58199D01*
X95842Y-58084D01*
X95842Y-55100D01*
X95819Y-54984D01*
X95753Y-54886D01*
X95408Y-54540D01*
X95408Y-52078D01*
X95408Y-51972D01*
X95347Y-51911D01*
X94946Y-51911D01*
X94946Y-52212D01*
X95007Y-52273D01*
X95116Y-52273D01*
X95213Y-52273D01*
X95303Y-52236D01*
X95371Y-52167D01*
X95408Y-52078D01*
X95408Y-54540D01*
X94988Y-54121D01*
X94890Y-54055D01*
X94775Y-54032D01*
X94530Y-54032D01*
X94416Y-54055D01*
X94406Y-54032D01*
X94406Y-54021D01*
X94526Y-53901D01*
X94526Y-53901D01*
X94526Y-53901D01*
X94536Y-53886D01*
X94872Y-53550D01*
X94929Y-53550D01*
X95076Y-53489D01*
X95189Y-53377D01*
X95250Y-53230D01*
X95250Y-53070D01*
X95189Y-52923D01*
X95077Y-52810D01*
X94930Y-52749D01*
X94770Y-52749D01*
X94623Y-52810D01*
X94510Y-52922D01*
X94493Y-52963D01*
X94406Y-53049D01*
X94406Y-52163D01*
X94408Y-52167D01*
X94476Y-52236D01*
X94566Y-52273D01*
X94663Y-52273D01*
X94772Y-52273D01*
X94833Y-52212D01*
X94833Y-51911D01*
X94825Y-51911D01*
X94825Y-51798D01*
X94833Y-51798D01*
X94833Y-51790D01*
X94946Y-51790D01*
X94946Y-51798D01*
X95347Y-51798D01*
X95408Y-51737D01*
X95408Y-51631D01*
X95371Y-51542D01*
X95309Y-51479D01*
X95371Y-51418D01*
X95408Y-51328D01*
X95408Y-51231D01*
X95408Y-50881D01*
X95371Y-50792D01*
X95303Y-50723D01*
X95231Y-50694D01*
X95231Y-50432D01*
X95371Y-50374D01*
X95484Y-50262D01*
X95545Y-50115D01*
X95545Y-49955D01*
X95484Y-49808D01*
X95383Y-49706D01*
X95383Y-48718D01*
X95383Y-48612D01*
X95322Y-48551D01*
X94921Y-48551D01*
X94921Y-48852D01*
X94982Y-48913D01*
X95091Y-48913D01*
X95188Y-48913D01*
X95278Y-48876D01*
X95346Y-48807D01*
X95383Y-48718D01*
X95383Y-49706D01*
X95372Y-49695D01*
X95225Y-49634D01*
X95065Y-49634D01*
X94918Y-49695D01*
X94805Y-49807D01*
X94746Y-49950D01*
X94648Y-50048D01*
X94619Y-50091D01*
X94619Y-48913D01*
X94638Y-48913D01*
X94747Y-48913D01*
X94808Y-48852D01*
X94808Y-48551D01*
X94800Y-48551D01*
X94800Y-48438D01*
X94808Y-48438D01*
X94808Y-48430D01*
X94921Y-48430D01*
X94921Y-48438D01*
X95322Y-48438D01*
X95383Y-48377D01*
X95383Y-48271D01*
X95346Y-48182D01*
X95284Y-48119D01*
X95346Y-48058D01*
X95383Y-47968D01*
X95383Y-47871D01*
X95383Y-47709D01*
X95631Y-47461D01*
X96529Y-47461D01*
X96634Y-47505D01*
X96794Y-47505D01*
X96941Y-47444D01*
X97054Y-47332D01*
X97115Y-47185D01*
X97115Y-47025D01*
X97054Y-46878D01*
X96942Y-46765D01*
X96795Y-46704D01*
X96635Y-46704D01*
X96495Y-46761D01*
X96813Y-46443D01*
X96879Y-46345D01*
X96902Y-46230D01*
X96902Y-42565D01*
X96902Y-42564D01*
X96879Y-42449D01*
X96813Y-42351D01*
X96813Y-42351D01*
X95058Y-40596D01*
X94960Y-40530D01*
X94845Y-40507D01*
X93295Y-40507D01*
X93146Y-40358D01*
X93146Y-40242D01*
X93151Y-40240D01*
X93304Y-40088D01*
X93344Y-39992D01*
X93383Y-40087D01*
X93536Y-40240D01*
X93735Y-40323D01*
X93951Y-40323D01*
X94151Y-40240D01*
X94300Y-40091D01*
X94300Y-40128D01*
X94337Y-40217D01*
X94406Y-40286D01*
X94495Y-40323D01*
X94592Y-40323D01*
X95192Y-40323D01*
X95281Y-40286D01*
X95350Y-40218D01*
X95387Y-40128D01*
X95387Y-40031D01*
X95387Y-39702D01*
X97781Y-39702D01*
X98152Y-40073D01*
X98152Y-47179D01*
X98136Y-47163D01*
X98091Y-47208D01*
X98063Y-47115D01*
X97858Y-47045D01*
X97642Y-47059D01*
X97506Y-47115D01*
X97478Y-47208D01*
X97785Y-47514D01*
X97790Y-47509D01*
X97870Y-47589D01*
X97865Y-47595D01*
X97870Y-47600D01*
X97790Y-47680D01*
X97785Y-47675D01*
X97704Y-47755D01*
X97704Y-47595D01*
X97398Y-47288D01*
X97305Y-47316D01*
X97235Y-47521D01*
X97249Y-47737D01*
X97305Y-47873D01*
X97398Y-47901D01*
X97704Y-47595D01*
X97704Y-47755D01*
X97478Y-47981D01*
X97506Y-48074D01*
X97570Y-48095D01*
X97477Y-48134D01*
X97324Y-48286D01*
X97241Y-48486D01*
X97241Y-48702D01*
X97324Y-48902D01*
X97476Y-49055D01*
X97564Y-49091D01*
X97506Y-49115D01*
X97478Y-49208D01*
X97785Y-49514D01*
X97790Y-49509D01*
X97870Y-49589D01*
X97865Y-49595D01*
X97870Y-49600D01*
X97790Y-49680D01*
X97785Y-49675D01*
X97704Y-49755D01*
X97704Y-49595D01*
X97398Y-49288D01*
X97305Y-49316D01*
X97235Y-49521D01*
X97249Y-49737D01*
X97305Y-49873D01*
X97398Y-49901D01*
X97704Y-49595D01*
X97704Y-49755D01*
X97478Y-49981D01*
X97500Y-50051D01*
X97436Y-50051D01*
X97347Y-50088D01*
X97278Y-50156D01*
X97241Y-50246D01*
X97241Y-50343D01*
X97241Y-50943D01*
X97278Y-51032D01*
X97346Y-51101D01*
X97436Y-51138D01*
X97533Y-51138D01*
X98133Y-51138D01*
X98152Y-51130D01*
X98152Y-58231D01*
X98152Y-58231D01*
G37*
G54D29*
X98152Y-58231D02*
X97546Y-58837D01*
X95387Y-58837D01*
X95387Y-58664D01*
X95753Y-58298D01*
X95819Y-58199D01*
X95842Y-58084D01*
X95842Y-55100D01*
X95819Y-54984D01*
X95753Y-54886D01*
X95408Y-54540D01*
X95408Y-52078D01*
X95408Y-51972D01*
X95347Y-51911D01*
X94946Y-51911D01*
X94946Y-52212D01*
X95007Y-52273D01*
X95116Y-52273D01*
X95213Y-52273D01*
X95303Y-52236D01*
X95371Y-52167D01*
X95408Y-52078D01*
X95408Y-54540D01*
X94988Y-54121D01*
X94890Y-54055D01*
X94775Y-54032D01*
X94530Y-54032D01*
X94416Y-54055D01*
X94406Y-54032D01*
X94406Y-54021D01*
X94526Y-53901D01*
X94526Y-53901D01*
X94526Y-53901D01*
X94536Y-53886D01*
X94872Y-53550D01*
X94929Y-53550D01*
X95076Y-53489D01*
X95189Y-53377D01*
X95250Y-53230D01*
X95250Y-53070D01*
X95189Y-52923D01*
X95077Y-52810D01*
X94930Y-52749D01*
X94770Y-52749D01*
X94623Y-52810D01*
X94510Y-52922D01*
X94493Y-52963D01*
X94406Y-53049D01*
X94406Y-52163D01*
X94408Y-52167D01*
X94476Y-52236D01*
X94566Y-52273D01*
X94663Y-52273D01*
X94772Y-52273D01*
X94833Y-52212D01*
X94833Y-51911D01*
X94825Y-51911D01*
X94825Y-51798D01*
X94833Y-51798D01*
X94833Y-51790D01*
X94946Y-51790D01*
X94946Y-51798D01*
X95347Y-51798D01*
X95408Y-51737D01*
X95408Y-51631D01*
X95371Y-51542D01*
X95309Y-51479D01*
X95371Y-51418D01*
X95408Y-51328D01*
X95408Y-51231D01*
X95408Y-50881D01*
X95371Y-50792D01*
X95303Y-50723D01*
X95231Y-50694D01*
X95231Y-50432D01*
X95371Y-50374D01*
X95484Y-50262D01*
X95545Y-50115D01*
X95545Y-49955D01*
X95484Y-49808D01*
X95383Y-49706D01*
X95383Y-48718D01*
X95383Y-48612D01*
X95322Y-48551D01*
X94921Y-48551D01*
X94921Y-48852D01*
X94982Y-48913D01*
X95091Y-48913D01*
X95188Y-48913D01*
X95278Y-48876D01*
X95346Y-48807D01*
X95383Y-48718D01*
X95383Y-49706D01*
X95372Y-49695D01*
X95225Y-49634D01*
X95065Y-49634D01*
X94918Y-49695D01*
X94805Y-49807D01*
X94746Y-49950D01*
X94648Y-50048D01*
X94619Y-50091D01*
X94619Y-48913D01*
X94638Y-48913D01*
X94747Y-48913D01*
X94808Y-48852D01*
X94808Y-48551D01*
X94800Y-48551D01*
X94800Y-48438D01*
X94808Y-48438D01*
X94808Y-48430D01*
X94921Y-48430D01*
X94921Y-48438D01*
X95322Y-48438D01*
X95383Y-48377D01*
X95383Y-48271D01*
X95346Y-48182D01*
X95284Y-48119D01*
X95346Y-48058D01*
X95383Y-47968D01*
X95383Y-47871D01*
X95383Y-47709D01*
X95631Y-47461D01*
X96529Y-47461D01*
X96634Y-47505D01*
X96794Y-47505D01*
X96941Y-47444D01*
X97054Y-47332D01*
X97115Y-47185D01*
X97115Y-47025D01*
X97054Y-46878D01*
X96942Y-46765D01*
X96795Y-46704D01*
X96635Y-46704D01*
X96495Y-46761D01*
X96813Y-46443D01*
X96879Y-46345D01*
X96902Y-46230D01*
X96902Y-42565D01*
X96902Y-42564D01*
X96879Y-42449D01*
X96813Y-42351D01*
X96813Y-42351D01*
X95058Y-40596D01*
X94960Y-40530D01*
X94845Y-40507D01*
X93295Y-40507D01*
X93146Y-40358D01*
X93146Y-40242D01*
X93151Y-40240D01*
X93304Y-40088D01*
X93344Y-39992D01*
X93383Y-40087D01*
X93536Y-40240D01*
X93735Y-40323D01*
X93951Y-40323D01*
X94151Y-40240D01*
X94300Y-40091D01*
X94300Y-40128D01*
X94337Y-40217D01*
X94406Y-40286D01*
X94495Y-40323D01*
X94592Y-40323D01*
X95192Y-40323D01*
X95281Y-40286D01*
X95350Y-40218D01*
X95387Y-40128D01*
X95387Y-40031D01*
X95387Y-39702D01*
X97781Y-39702D01*
X98152Y-40073D01*
X98152Y-47179D01*
X98136Y-47163D01*
X98091Y-47208D01*
X98063Y-47115D01*
X97858Y-47045D01*
X97642Y-47059D01*
X97506Y-47115D01*
X97478Y-47208D01*
X97785Y-47514D01*
X97790Y-47509D01*
X97870Y-47589D01*
X97865Y-47595D01*
X97870Y-47600D01*
X97790Y-47680D01*
X97785Y-47675D01*
X97704Y-47755D01*
X97704Y-47595D01*
X97398Y-47288D01*
X97305Y-47316D01*
X97235Y-47521D01*
X97249Y-47737D01*
X97305Y-47873D01*
X97398Y-47901D01*
X97704Y-47595D01*
X97704Y-47755D01*
X97478Y-47981D01*
X97506Y-48074D01*
X97570Y-48095D01*
X97477Y-48134D01*
X97324Y-48286D01*
X97241Y-48486D01*
X97241Y-48702D01*
X97324Y-48902D01*
X97476Y-49055D01*
X97564Y-49091D01*
X97506Y-49115D01*
X97478Y-49208D01*
X97785Y-49514D01*
X97790Y-49509D01*
X97870Y-49589D01*
X97865Y-49595D01*
X97870Y-49600D01*
X97790Y-49680D01*
X97785Y-49675D01*
X97704Y-49755D01*
X97704Y-49595D01*
X97398Y-49288D01*
X97305Y-49316D01*
X97235Y-49521D01*
X97249Y-49737D01*
X97305Y-49873D01*
X97398Y-49901D01*
X97704Y-49595D01*
X97704Y-49755D01*
X97478Y-49981D01*
X97500Y-50051D01*
X97436Y-50051D01*
X97347Y-50088D01*
X97278Y-50156D01*
X97241Y-50246D01*
X97241Y-50343D01*
X97241Y-50943D01*
X97278Y-51032D01*
X97346Y-51101D01*
X97436Y-51138D01*
X97533Y-51138D01*
X98133Y-51138D01*
X98152Y-51130D01*
X98152Y-58231D01*
M02*
