G04 (created by PCBNEW (2013-07-07 BZR 4022)-stable) date 23/05/2015 19:38:58*
%MOIN*%
G04 Gerber Fmt 3.4, Leading zero omitted, Abs format*
%FSLAX34Y34*%
G01*
G70*
G90*
G04 APERTURE LIST*
%ADD10C,0.00590551*%
%ADD11R,0.03X0.02*%
%ADD12R,0.08X0.144*%
%ADD13R,0.08X0.04*%
%ADD14R,0.0610236X0.023622*%
%ADD15R,0.0314961X0.0393701*%
%ADD16R,0.035X0.055*%
%ADD17R,0.055X0.035*%
%ADD18R,0.025X0.045*%
%ADD19R,0.045X0.025*%
%ADD20R,0.0157X0.0236*%
%ADD21R,0.0236X0.0157*%
%ADD22R,0.0511811X0.0748031*%
%ADD23R,0.06X0.06*%
%ADD24C,0.06*%
%ADD25R,0.011811X0.06*%
%ADD26O,0.011811X0.06*%
%ADD27O,0.06X0.011811*%
%ADD28R,0.0472X0.0472*%
%ADD29C,0.056*%
%ADD30R,0.0393701X0.125984*%
%ADD31R,0.0866X0.063*%
%ADD32R,0.0688976X0.177165*%
%ADD33C,0.023622*%
%ADD34C,0.0314961*%
%ADD35C,0.0393701*%
%ADD36C,0.0433071*%
%ADD37C,0.011811*%
%ADD38C,0.019685*%
%ADD39C,0.0393701*%
%ADD40C,0.0275591*%
%ADD41C,0.0354331*%
%ADD42C,0.00787402*%
%ADD43C,0.015748*%
%ADD44C,0.00866142*%
G04 APERTURE END LIST*
G54D10*
G54D11*
X90727Y-53637D03*
X90727Y-52887D03*
X89727Y-53637D03*
X90727Y-53262D03*
X89727Y-52887D03*
G54D12*
X86550Y-55450D03*
G54D13*
X83950Y-55450D03*
X83950Y-56350D03*
X83950Y-54550D03*
G54D14*
X93747Y-48365D03*
X93747Y-47865D03*
X93747Y-47365D03*
X93747Y-48865D03*
X95872Y-47365D03*
X95872Y-47865D03*
X95872Y-48365D03*
X95872Y-48865D03*
X93797Y-51610D03*
X93797Y-51110D03*
X93797Y-50610D03*
X93797Y-52110D03*
X95922Y-50610D03*
X95922Y-51110D03*
X95922Y-51610D03*
X95922Y-52110D03*
G54D15*
X95380Y-53160D03*
X96699Y-53160D03*
X91920Y-54375D03*
X93239Y-54375D03*
G54D16*
X92180Y-55225D03*
X92930Y-55225D03*
X95325Y-46125D03*
X96075Y-46125D03*
X95410Y-43180D03*
X96160Y-43180D03*
G54D17*
X97740Y-52345D03*
X97740Y-51595D03*
G54D16*
X95385Y-42090D03*
X96135Y-42090D03*
X95230Y-54540D03*
X95980Y-54540D03*
G54D18*
X80350Y-47590D03*
X79750Y-47590D03*
G54D19*
X96790Y-48335D03*
X96790Y-48935D03*
X96885Y-51600D03*
X96885Y-52200D03*
G54D18*
X86750Y-41665D03*
X86150Y-41665D03*
X88150Y-44585D03*
X87550Y-44585D03*
X86140Y-44615D03*
X86740Y-44615D03*
X92650Y-46515D03*
X92050Y-46515D03*
X92650Y-44170D03*
X92050Y-44170D03*
X90075Y-45750D03*
X89475Y-45750D03*
X90090Y-44970D03*
X89490Y-44970D03*
X87525Y-41670D03*
X88125Y-41670D03*
X88570Y-53620D03*
X87970Y-53620D03*
X91600Y-53615D03*
X92200Y-53615D03*
G54D20*
X91553Y-52990D03*
X91907Y-52990D03*
G54D21*
X89120Y-53247D03*
X89120Y-52893D03*
G54D20*
X91558Y-52525D03*
X91912Y-52525D03*
G54D22*
X91257Y-44735D03*
X91257Y-45994D03*
X93422Y-44735D03*
X93422Y-45994D03*
G54D23*
X81130Y-54370D03*
G54D24*
X81130Y-53370D03*
X81130Y-52370D03*
X81130Y-51370D03*
X81130Y-50370D03*
X81130Y-49370D03*
G54D25*
X87996Y-46579D03*
G54D26*
X87799Y-46579D03*
X87602Y-46579D03*
X87405Y-46579D03*
X87208Y-46579D03*
X87012Y-46579D03*
X86815Y-46579D03*
X86618Y-46579D03*
X86421Y-46579D03*
X86224Y-46579D03*
X86027Y-46579D03*
X85831Y-46579D03*
X85634Y-46579D03*
X85437Y-46579D03*
X85240Y-46579D03*
X85043Y-46579D03*
G54D27*
X84145Y-47414D03*
X84145Y-47611D03*
X84145Y-47808D03*
X84145Y-48005D03*
X84145Y-48202D03*
X84145Y-48398D03*
X84145Y-48595D03*
X84145Y-48792D03*
X84145Y-48989D03*
X84145Y-49186D03*
X84145Y-49383D03*
X84145Y-49579D03*
X84145Y-49776D03*
X84145Y-49973D03*
X84145Y-50170D03*
X84145Y-50367D03*
G54D26*
X85043Y-51265D03*
X85240Y-51265D03*
X85437Y-51265D03*
X85634Y-51265D03*
X85831Y-51265D03*
X86027Y-51265D03*
X86224Y-51265D03*
X86421Y-51265D03*
X86618Y-51265D03*
X86815Y-51265D03*
X87012Y-51265D03*
X87208Y-51265D03*
X87405Y-51265D03*
X87602Y-51265D03*
X87799Y-51265D03*
X87996Y-51265D03*
G54D27*
X88831Y-50367D03*
X88831Y-50170D03*
X88831Y-49776D03*
X88838Y-49973D03*
X88831Y-49579D03*
X88831Y-49383D03*
X88831Y-49186D03*
X88831Y-48989D03*
X88831Y-48792D03*
X88831Y-48595D03*
X88831Y-48401D03*
X88831Y-48204D03*
X88831Y-48007D03*
X88831Y-47810D03*
X88831Y-47614D03*
X88831Y-47417D03*
G54D28*
X96947Y-46120D03*
X97773Y-46120D03*
X97037Y-43210D03*
X97863Y-43210D03*
X97037Y-42150D03*
X97863Y-42150D03*
X96887Y-54535D03*
X97713Y-54535D03*
G54D29*
X86135Y-43140D03*
X88135Y-43140D03*
G54D30*
X80887Y-43676D03*
X80887Y-46353D03*
X79312Y-46353D03*
X79312Y-43676D03*
G54D31*
X88220Y-56518D03*
X88220Y-55022D03*
X81570Y-57238D03*
X81570Y-55742D03*
G54D23*
X94844Y-39780D03*
G54D24*
X92844Y-39780D03*
X91844Y-39780D03*
X90844Y-39780D03*
X89844Y-39780D03*
X88844Y-39780D03*
X87844Y-39780D03*
G54D23*
X86244Y-39780D03*
G54D24*
X85244Y-39780D03*
X84244Y-39780D03*
X83244Y-39780D03*
X82244Y-39780D03*
X81245Y-39780D03*
X93844Y-39780D03*
G54D23*
X94844Y-58780D03*
G54D24*
X93844Y-58780D03*
X92844Y-58780D03*
X91844Y-58780D03*
X90844Y-58780D03*
X89844Y-58780D03*
X87844Y-58780D03*
X85844Y-58780D03*
X84844Y-58780D03*
X83844Y-58780D03*
X82844Y-58780D03*
X86844Y-58780D03*
X89844Y-57780D03*
X90844Y-57780D03*
X91844Y-57780D03*
X92844Y-57780D03*
X93844Y-57780D03*
X94844Y-57780D03*
X80245Y-39780D03*
X79245Y-39780D03*
G54D32*
X89660Y-55095D03*
X90939Y-55095D03*
G54D23*
X97785Y-50595D03*
G54D24*
X97785Y-49595D03*
X97785Y-48595D03*
X97785Y-47595D03*
G54D33*
X92590Y-48400D03*
X92990Y-51110D03*
X93130Y-47870D03*
X92600Y-47855D03*
X81875Y-45020D03*
X82850Y-44995D03*
X85100Y-44730D03*
X84170Y-54025D03*
X82230Y-53990D03*
X82700Y-50125D03*
X82960Y-52180D03*
X87015Y-54340D03*
X87215Y-54085D03*
X82980Y-51790D03*
X82980Y-50315D03*
X84520Y-44960D03*
X82820Y-45635D03*
X81855Y-45650D03*
X82380Y-53320D03*
X84850Y-53990D03*
X82850Y-46250D03*
X85475Y-54025D03*
X82750Y-52830D03*
X82005Y-46240D03*
X84300Y-45540D03*
X84455Y-53815D03*
X82355Y-53660D03*
X81855Y-45330D03*
X82825Y-45320D03*
X84740Y-44740D03*
X85155Y-54020D03*
X82525Y-53055D03*
X81845Y-45970D03*
X82825Y-45940D03*
X84320Y-45200D03*
X81970Y-46555D03*
X82940Y-52550D03*
X85810Y-54070D03*
X82835Y-46555D03*
X83345Y-46795D03*
X84900Y-48480D03*
X85550Y-50680D03*
X85630Y-44400D03*
X85175Y-48125D03*
X86020Y-50690D03*
X92105Y-40845D03*
X93755Y-49775D03*
X92455Y-49985D03*
X91640Y-51655D03*
X90750Y-52485D03*
X87135Y-53260D03*
X87345Y-52995D03*
X93785Y-50085D03*
X92480Y-50345D03*
X91800Y-51905D03*
X91110Y-52445D03*
X90785Y-50875D03*
X94720Y-46120D03*
X90615Y-50630D03*
X94970Y-43185D03*
X94480Y-42090D03*
X90390Y-50395D03*
X94645Y-54640D03*
X89715Y-49130D03*
X84685Y-48265D03*
X85220Y-50725D03*
X87415Y-53840D03*
X94345Y-46400D03*
X90625Y-51195D03*
X89655Y-52115D03*
X90375Y-52405D03*
X91420Y-51420D03*
X92100Y-49980D03*
X93555Y-49525D03*
X92135Y-41290D03*
X87160Y-53575D03*
X89150Y-46200D03*
X87455Y-47305D03*
X87020Y-50690D03*
X85730Y-44945D03*
G54D34*
X81920Y-43650D03*
X82990Y-43750D03*
G54D33*
X81355Y-43575D03*
G54D34*
X81950Y-55080D03*
G54D33*
X94310Y-41810D03*
X90620Y-46420D03*
X92275Y-48715D03*
X91585Y-50875D03*
X93245Y-51845D03*
X93570Y-46865D03*
X92240Y-48295D03*
X82260Y-47700D03*
X82570Y-48380D03*
X93720Y-41505D03*
X90515Y-46120D03*
G54D34*
X94850Y-53150D03*
X95145Y-50035D03*
X96715Y-47105D03*
X94065Y-54255D03*
G54D35*
X83375Y-49330D03*
G54D34*
X83045Y-47205D03*
G54D35*
X84790Y-51800D03*
X83705Y-51870D03*
G54D34*
X83335Y-50470D03*
X88265Y-51740D03*
X89430Y-47155D03*
G54D36*
X82740Y-54980D03*
G54D33*
X85715Y-46050D03*
X87335Y-50500D03*
X88270Y-50390D03*
X80705Y-47220D03*
X81215Y-44780D03*
X82680Y-48820D03*
X84770Y-54930D03*
X93465Y-53025D03*
X94355Y-51920D03*
X92390Y-54135D03*
X90240Y-53945D03*
X90260Y-52830D03*
X87895Y-54155D03*
X89670Y-53290D03*
X88450Y-50930D03*
X90010Y-50320D03*
X87375Y-48500D03*
X83570Y-47505D03*
X83625Y-49855D03*
X88045Y-49995D03*
X87765Y-52145D03*
X91120Y-47165D03*
X87420Y-58090D03*
X88610Y-58250D03*
X89080Y-57210D03*
X93080Y-52640D03*
X96325Y-53830D03*
X97755Y-53850D03*
X90250Y-53345D03*
X90280Y-56100D03*
X90600Y-57070D03*
X91085Y-56330D03*
X91105Y-57170D03*
X91595Y-57160D03*
X91600Y-56250D03*
X92100Y-56205D03*
X92100Y-57105D03*
X92605Y-57140D03*
X92585Y-56300D03*
X93350Y-56490D03*
X93345Y-58300D03*
X94090Y-56965D03*
X93690Y-55670D03*
X94030Y-55240D03*
X95105Y-55555D03*
X96780Y-58710D03*
X96120Y-57925D03*
X97745Y-57970D03*
X97660Y-56460D03*
X96040Y-56420D03*
X96140Y-55270D03*
X97730Y-55290D03*
X95195Y-53835D03*
X96070Y-52750D03*
X96840Y-50790D03*
X96600Y-49530D03*
X95210Y-49400D03*
X91460Y-42300D03*
X91450Y-41260D03*
X90210Y-40700D03*
X91030Y-40370D03*
X93270Y-40430D03*
X92400Y-40410D03*
X91660Y-40760D03*
X94280Y-40380D03*
X96790Y-41100D03*
X95760Y-40840D03*
X96030Y-39980D03*
X97560Y-40060D03*
X97830Y-40950D03*
X97235Y-45460D03*
X97960Y-44585D03*
X97055Y-44045D03*
X92395Y-45390D03*
X94975Y-45390D03*
X95830Y-44535D03*
X95195Y-43975D03*
X94250Y-42685D03*
X92640Y-43360D03*
X83610Y-41180D03*
X88790Y-44450D03*
X89640Y-43820D03*
X90600Y-43540D03*
X90470Y-42240D03*
X89450Y-42300D03*
X89210Y-41110D03*
X87120Y-43270D03*
X87705Y-40770D03*
X86400Y-40810D03*
X84910Y-42080D03*
X84980Y-40680D03*
X80110Y-46690D03*
X80130Y-45750D03*
X79360Y-44780D03*
X84225Y-43465D03*
X83110Y-43080D03*
X80180Y-44280D03*
X80150Y-42750D03*
X80140Y-41840D03*
X79220Y-41770D03*
X79420Y-40820D03*
X80360Y-40770D03*
X81010Y-41390D03*
X81215Y-42495D03*
X81880Y-43050D03*
X84035Y-47095D03*
X86485Y-45885D03*
X84685Y-46395D03*
X81915Y-44295D03*
X82815Y-44270D03*
X83460Y-44235D03*
X86655Y-47530D03*
X85610Y-48810D03*
X86525Y-49245D03*
X83940Y-51245D03*
X80940Y-55095D03*
X82840Y-56970D03*
X86740Y-56690D03*
X85900Y-56650D03*
X84430Y-57240D03*
X81370Y-56500D03*
X81540Y-58560D03*
X80770Y-57680D03*
X80850Y-56490D03*
X88270Y-46290D03*
X89730Y-48185D03*
G54D36*
X85055Y-56730D03*
G54D37*
X91370Y-47940D02*
X92260Y-47940D01*
X88831Y-48007D02*
X89568Y-48007D01*
X89635Y-47940D02*
X91370Y-47940D01*
X89568Y-48007D02*
X89635Y-47940D01*
X92590Y-48270D02*
X92590Y-48400D01*
X92260Y-47940D02*
X92590Y-48270D01*
X92990Y-51110D02*
X93797Y-51110D01*
X91690Y-47680D02*
X92425Y-47680D01*
X89465Y-47810D02*
X89595Y-47680D01*
X89595Y-47680D02*
X91690Y-47680D01*
X93130Y-47870D02*
X93135Y-47865D01*
X93747Y-47865D02*
X93135Y-47865D01*
X89465Y-47810D02*
X88831Y-47810D01*
X92425Y-47680D02*
X92600Y-47855D01*
G54D38*
X97740Y-51595D02*
X97740Y-50640D01*
X97740Y-50640D02*
X97785Y-50595D01*
X96885Y-51600D02*
X97735Y-51600D01*
X97735Y-51600D02*
X97740Y-51595D01*
X95922Y-51610D02*
X96875Y-51610D01*
X96875Y-51610D02*
X96885Y-51600D01*
X96790Y-48335D02*
X97525Y-48335D01*
X97525Y-48335D02*
X97785Y-48595D01*
X95872Y-48365D02*
X96760Y-48365D01*
X96760Y-48365D02*
X96790Y-48335D01*
G54D37*
X88831Y-49776D02*
X90441Y-49776D01*
X91275Y-50610D02*
X93797Y-50610D01*
X90441Y-49776D02*
X91275Y-50610D01*
X88831Y-49383D02*
X92032Y-49383D01*
X93165Y-47365D02*
X93747Y-47365D01*
X92855Y-47675D02*
X93165Y-47365D01*
X92855Y-48560D02*
X92855Y-47675D01*
X92032Y-49383D02*
X92855Y-48560D01*
X88838Y-49973D02*
X90323Y-49973D01*
X92460Y-52110D02*
X93797Y-52110D01*
X90323Y-49973D02*
X92460Y-52110D01*
X88831Y-49579D02*
X92191Y-49579D01*
X92905Y-48865D02*
X93747Y-48865D01*
X92191Y-49579D02*
X92905Y-48865D01*
X89475Y-45750D02*
X87885Y-45750D01*
X87602Y-46033D02*
X87602Y-46579D01*
X87885Y-45750D02*
X87602Y-46033D01*
X89490Y-44970D02*
X88355Y-44970D01*
X87405Y-45920D02*
X87405Y-46579D01*
X88355Y-44970D02*
X87405Y-45920D01*
X87550Y-44585D02*
X87550Y-45465D01*
X87189Y-46579D02*
X87208Y-46579D01*
X87189Y-45825D02*
X87189Y-46579D01*
X87550Y-45465D02*
X87189Y-45825D01*
X86740Y-44615D02*
X86740Y-45470D01*
X87012Y-45742D02*
X87012Y-46579D01*
X86740Y-45470D02*
X87012Y-45742D01*
G54D39*
X84844Y-58364D02*
X84844Y-58345D01*
X88220Y-57070D02*
X88220Y-56518D01*
X87920Y-57370D02*
X88220Y-57070D01*
X85820Y-57370D02*
X87920Y-57370D01*
X84844Y-58345D02*
X85820Y-57370D01*
X84844Y-58780D02*
X84844Y-58364D01*
X81570Y-57520D02*
X81570Y-57238D01*
X81860Y-57810D02*
X81570Y-57520D01*
X84290Y-57810D02*
X81860Y-57810D01*
X84844Y-58364D02*
X84290Y-57810D01*
G54D37*
X86224Y-45944D02*
X85100Y-44820D01*
X86224Y-46579D02*
X86224Y-45944D01*
X82825Y-45020D02*
X81875Y-45020D01*
X82850Y-44995D02*
X82825Y-45020D01*
X85100Y-44820D02*
X85100Y-44730D01*
X84085Y-53940D02*
X84170Y-54025D01*
X82280Y-53940D02*
X84085Y-53940D01*
X82230Y-53990D02*
X82280Y-53940D01*
X83658Y-48792D02*
X83058Y-48792D01*
X82700Y-49750D02*
X82700Y-50125D01*
X82960Y-52180D02*
X83180Y-52400D01*
X83180Y-52400D02*
X84575Y-52400D01*
X84575Y-52400D02*
X86515Y-54340D01*
X86515Y-54340D02*
X87015Y-54340D01*
X83658Y-48792D02*
X84145Y-48792D01*
X82700Y-49150D02*
X82700Y-49750D01*
X83058Y-48792D02*
X82700Y-49150D01*
X82980Y-49820D02*
X82980Y-49260D01*
X83251Y-48989D02*
X84145Y-48989D01*
X82980Y-49260D02*
X83251Y-48989D01*
X84145Y-48989D02*
X83781Y-48989D01*
X86545Y-54085D02*
X87215Y-54085D01*
X84660Y-52200D02*
X86545Y-54085D01*
X83390Y-52200D02*
X84660Y-52200D01*
X82980Y-51790D02*
X83390Y-52200D01*
X82980Y-49790D02*
X82980Y-49820D01*
X82980Y-49820D02*
X82980Y-50315D01*
X84850Y-53860D02*
X84850Y-53990D01*
X85437Y-45877D02*
X84520Y-44960D01*
X82820Y-45635D02*
X82805Y-45650D01*
X82805Y-45650D02*
X81855Y-45650D01*
X82380Y-53320D02*
X82385Y-53315D01*
X82385Y-53315D02*
X84305Y-53315D01*
X84305Y-53315D02*
X84850Y-53860D01*
X85437Y-46579D02*
X85437Y-45877D01*
X85475Y-53900D02*
X85475Y-54025D01*
X84375Y-52800D02*
X85475Y-53900D01*
X82780Y-52800D02*
X84375Y-52800D01*
X82750Y-52830D02*
X82780Y-52800D01*
X82840Y-46240D02*
X82005Y-46240D01*
X82850Y-46250D02*
X82840Y-46240D01*
X85043Y-46579D02*
X85043Y-46263D01*
X84320Y-45540D02*
X84300Y-45540D01*
X85043Y-46263D02*
X84320Y-45540D01*
X86027Y-46579D02*
X86027Y-46012D01*
X84210Y-53570D02*
X84455Y-53815D01*
X82445Y-53570D02*
X84210Y-53570D01*
X82355Y-53660D02*
X82445Y-53570D01*
X82815Y-45330D02*
X81855Y-45330D01*
X82825Y-45320D02*
X82815Y-45330D01*
X84765Y-44765D02*
X84740Y-44740D01*
X84765Y-44925D02*
X84765Y-44765D01*
X85615Y-45775D02*
X84765Y-44925D01*
X85790Y-45775D02*
X85615Y-45775D01*
X86027Y-46012D02*
X85790Y-45775D01*
X85240Y-46579D02*
X85240Y-46120D01*
X85160Y-54015D02*
X85155Y-54020D01*
X85160Y-53865D02*
X85160Y-54015D01*
X84380Y-53085D02*
X85160Y-53865D01*
X82555Y-53085D02*
X84380Y-53085D01*
X82525Y-53055D02*
X82555Y-53085D01*
X82795Y-45970D02*
X81845Y-45970D01*
X82825Y-45940D02*
X82795Y-45970D01*
X85240Y-46120D02*
X84320Y-45200D01*
X84145Y-47414D02*
X83904Y-47414D01*
X82395Y-46555D02*
X81970Y-46555D01*
X82940Y-52550D02*
X82975Y-52585D01*
X82975Y-52585D02*
X84460Y-52585D01*
X84460Y-52585D02*
X85810Y-53935D01*
X85810Y-53935D02*
X85810Y-54070D01*
X82835Y-46555D02*
X82395Y-46555D01*
X83345Y-46855D02*
X83345Y-46795D01*
X83904Y-47414D02*
X83345Y-46855D01*
X85831Y-51265D02*
X85831Y-50871D01*
X85335Y-40689D02*
X86244Y-39780D01*
X85335Y-43180D02*
X85335Y-40689D01*
X83785Y-44729D02*
X85335Y-43180D01*
X83785Y-46175D02*
X83785Y-44729D01*
X84930Y-47320D02*
X83785Y-46175D01*
X84930Y-48450D02*
X84930Y-47320D01*
X84900Y-48480D02*
X84930Y-48450D01*
X85640Y-50680D02*
X85550Y-50680D01*
X85831Y-50871D02*
X85640Y-50680D01*
X86027Y-51265D02*
X86027Y-50697D01*
X84730Y-44400D02*
X85630Y-44400D01*
X84050Y-45080D02*
X84730Y-44400D01*
X84050Y-46175D02*
X84050Y-45080D01*
X85135Y-47260D02*
X84050Y-46175D01*
X85135Y-48085D02*
X85135Y-47260D01*
X85175Y-48125D02*
X85135Y-48085D01*
X86027Y-50697D02*
X86020Y-50690D01*
X91040Y-39780D02*
X90844Y-39780D01*
X92105Y-40845D02*
X91040Y-39780D01*
X92665Y-49775D02*
X93755Y-49775D01*
X92455Y-49985D02*
X92665Y-49775D01*
X91545Y-51655D02*
X91640Y-51655D01*
X90850Y-52350D02*
X91545Y-51655D01*
X90850Y-52385D02*
X90850Y-52350D01*
X90750Y-52485D02*
X90850Y-52385D01*
X86224Y-51265D02*
X86224Y-52674D01*
X86810Y-53260D02*
X87135Y-53260D01*
X86224Y-52674D02*
X86810Y-53260D01*
X86421Y-52521D02*
X86895Y-52995D01*
X86895Y-52995D02*
X87345Y-52995D01*
X86421Y-51265D02*
X86421Y-52521D01*
X92740Y-50085D02*
X93785Y-50085D01*
X92480Y-50345D02*
X92740Y-50085D01*
X91650Y-51905D02*
X91800Y-51905D01*
X91110Y-52445D02*
X91650Y-51905D01*
X88530Y-52750D02*
X88650Y-52750D01*
X86618Y-52413D02*
X86955Y-52750D01*
X86955Y-52750D02*
X88530Y-52750D01*
X86618Y-51265D02*
X86618Y-52413D01*
X90525Y-50875D02*
X90785Y-50875D01*
X88650Y-52750D02*
X90525Y-50875D01*
X94725Y-46125D02*
X95325Y-46125D01*
X94720Y-46120D02*
X94725Y-46125D01*
X88405Y-52570D02*
X88570Y-52570D01*
X86815Y-51265D02*
X86815Y-52340D01*
X87045Y-52570D02*
X88405Y-52570D01*
X86815Y-52340D02*
X87045Y-52570D01*
X90510Y-50630D02*
X90615Y-50630D01*
X88570Y-52570D02*
X90510Y-50630D01*
X95410Y-43180D02*
X94975Y-43180D01*
X94975Y-43180D02*
X94970Y-43185D01*
X88220Y-52390D02*
X88475Y-52390D01*
X95385Y-42090D02*
X94480Y-42090D01*
X87012Y-52272D02*
X87012Y-51265D01*
X87130Y-52390D02*
X88220Y-52390D01*
X87012Y-52272D02*
X87130Y-52390D01*
X90390Y-50475D02*
X90390Y-50395D01*
X88475Y-52390D02*
X90390Y-50475D01*
X94645Y-54640D02*
X94745Y-54540D01*
X95230Y-54540D02*
X94745Y-54540D01*
X88831Y-48792D02*
X89227Y-48792D01*
X89565Y-49130D02*
X89715Y-49130D01*
X89227Y-48792D02*
X89565Y-49130D01*
X84685Y-48265D02*
X84685Y-48172D01*
X84630Y-47295D02*
X83585Y-46250D01*
X83585Y-46250D02*
X83585Y-44610D01*
X83585Y-44610D02*
X84620Y-43575D01*
X84620Y-43575D02*
X84620Y-40404D01*
X85244Y-39780D02*
X84620Y-40404D01*
X85240Y-50745D02*
X85240Y-51265D01*
X85240Y-50745D02*
X85220Y-50725D01*
X84752Y-47417D02*
X84630Y-47295D01*
X84752Y-48105D02*
X84752Y-47417D01*
X84685Y-48172D02*
X84752Y-48105D01*
X85437Y-52622D02*
X86655Y-53840D01*
X86655Y-53840D02*
X87415Y-53840D01*
X85437Y-51265D02*
X85437Y-52622D01*
X90694Y-41630D02*
X88844Y-39780D01*
X92330Y-41630D02*
X90694Y-41630D01*
X94425Y-43725D02*
X92330Y-41630D01*
X94425Y-46320D02*
X94425Y-43725D01*
X94345Y-46400D02*
X94425Y-46320D01*
X90575Y-51195D02*
X90625Y-51195D01*
X89655Y-52115D02*
X90575Y-51195D01*
X92135Y-41290D02*
X91850Y-41290D01*
X90375Y-52405D02*
X91360Y-51420D01*
X91360Y-51420D02*
X91420Y-51420D01*
X92100Y-49980D02*
X92555Y-49525D01*
X92555Y-49525D02*
X93555Y-49525D01*
X89844Y-39780D02*
X90924Y-40860D01*
X85634Y-52524D02*
X85634Y-51265D01*
X86685Y-53575D02*
X87160Y-53575D01*
X85634Y-52524D02*
X86685Y-53575D01*
X91039Y-40975D02*
X90924Y-40860D01*
X91535Y-40975D02*
X91039Y-40975D01*
X91850Y-41290D02*
X91535Y-40975D01*
X87208Y-51265D02*
X87208Y-50878D01*
X89150Y-46455D02*
X89150Y-46200D01*
X88807Y-46797D02*
X89150Y-46455D01*
X88347Y-46797D02*
X88807Y-46797D01*
X88064Y-47080D02*
X88347Y-46797D01*
X87680Y-47080D02*
X88064Y-47080D01*
X87455Y-47305D02*
X87680Y-47080D01*
X87208Y-50878D02*
X87020Y-50690D01*
X86060Y-45070D02*
X85855Y-45070D01*
X86815Y-45825D02*
X86060Y-45070D01*
X86815Y-46579D02*
X86815Y-45825D01*
X85855Y-45070D02*
X85730Y-44945D01*
X82890Y-43650D02*
X81920Y-43650D01*
X82990Y-43750D02*
X82890Y-43650D01*
X81253Y-43676D02*
X80887Y-43676D01*
X81355Y-43575D02*
X81253Y-43676D01*
G54D38*
X80995Y-47500D02*
X80995Y-46461D01*
X80995Y-46461D02*
X80887Y-46353D01*
X80600Y-48370D02*
X80600Y-48215D01*
X80600Y-50555D02*
X80600Y-48370D01*
X80995Y-47820D02*
X80995Y-47500D01*
X80600Y-48215D02*
X80995Y-47820D01*
X80995Y-47500D02*
X80410Y-47500D01*
X81950Y-55080D02*
X81950Y-54200D01*
X80785Y-50370D02*
X81130Y-50370D01*
X80600Y-50555D02*
X80785Y-50370D01*
X80600Y-53595D02*
X80600Y-50555D01*
X80880Y-53875D02*
X80600Y-53595D01*
X81625Y-53875D02*
X80880Y-53875D01*
X81950Y-54200D02*
X81625Y-53875D01*
X80887Y-43676D02*
X80887Y-45000D01*
X80887Y-45000D02*
X80887Y-46353D01*
G54D37*
X84145Y-49973D02*
X84847Y-49973D01*
X94844Y-41275D02*
X94844Y-39780D01*
X94310Y-41810D02*
X94844Y-41275D01*
X89750Y-46420D02*
X90620Y-46420D01*
X88995Y-47175D02*
X89750Y-46420D01*
X88485Y-47175D02*
X88995Y-47175D01*
X88320Y-47340D02*
X88485Y-47175D01*
X88320Y-48870D02*
X88320Y-47340D01*
X87320Y-49870D02*
X88320Y-48870D01*
X84950Y-49870D02*
X87320Y-49870D01*
X84847Y-49973D02*
X84950Y-49870D01*
X89530Y-48595D02*
X89650Y-48715D01*
X89650Y-48715D02*
X92275Y-48715D01*
X91585Y-50875D02*
X92555Y-51845D01*
X92555Y-51845D02*
X93245Y-51845D01*
X88831Y-48595D02*
X89530Y-48595D01*
X88831Y-48401D02*
X89616Y-48401D01*
X94345Y-58279D02*
X93844Y-58780D01*
X94345Y-57555D02*
X94345Y-58279D01*
X94400Y-57500D02*
X94345Y-57555D01*
X94400Y-52920D02*
X94400Y-57500D01*
X94645Y-52675D02*
X94400Y-52920D01*
X94645Y-46995D02*
X94645Y-52675D01*
X94470Y-46820D02*
X94645Y-46995D01*
X93615Y-46820D02*
X94470Y-46820D01*
X93570Y-46865D02*
X93615Y-46820D01*
X92105Y-48430D02*
X92240Y-48295D01*
X89645Y-48430D02*
X92105Y-48430D01*
X89616Y-48401D02*
X89645Y-48430D01*
X84145Y-48398D02*
X82958Y-48398D01*
X82958Y-48398D02*
X82260Y-47700D01*
X82785Y-48595D02*
X84145Y-48595D01*
X82570Y-48380D02*
X82785Y-48595D01*
X83090Y-47735D02*
X82735Y-47380D01*
X84244Y-39780D02*
X84244Y-42580D01*
X83090Y-44140D02*
X84245Y-42985D01*
X84245Y-42985D02*
X84245Y-42580D01*
X84245Y-42580D02*
X84244Y-42580D01*
X83360Y-48005D02*
X84145Y-48005D01*
X83360Y-48005D02*
X83090Y-47735D01*
X83090Y-44840D02*
X83090Y-44140D01*
X83090Y-46715D02*
X83090Y-44840D01*
X82735Y-47070D02*
X83090Y-46715D01*
X82735Y-47380D02*
X82735Y-47070D01*
X84145Y-48202D02*
X83212Y-48202D01*
X81600Y-40134D02*
X81245Y-39780D01*
X81600Y-46590D02*
X81600Y-40134D01*
X83212Y-48202D02*
X81600Y-46590D01*
X84145Y-49776D02*
X84764Y-49776D01*
X93844Y-41380D02*
X93844Y-39780D01*
X93720Y-41505D02*
X93844Y-41380D01*
X90395Y-46240D02*
X90515Y-46120D01*
X89655Y-46240D02*
X90395Y-46240D01*
X88912Y-46982D02*
X89655Y-46240D01*
X88412Y-46982D02*
X88912Y-46982D01*
X88130Y-47265D02*
X88412Y-46982D01*
X88130Y-48787D02*
X88130Y-47265D01*
X87247Y-49670D02*
X88130Y-48787D01*
X84870Y-49670D02*
X87247Y-49670D01*
X84764Y-49776D02*
X84870Y-49670D01*
G54D38*
X94860Y-53160D02*
X95380Y-53160D01*
X94850Y-53150D02*
X94860Y-53160D01*
X95470Y-51110D02*
X95922Y-51110D01*
X95320Y-50960D02*
X95470Y-51110D01*
X95320Y-50210D02*
X95320Y-50960D01*
X95145Y-50035D02*
X95320Y-50210D01*
X95872Y-47865D02*
X96445Y-47865D01*
X96715Y-47595D02*
X96715Y-47105D01*
X96445Y-47865D02*
X96715Y-47595D01*
X93645Y-54270D02*
X94050Y-54270D01*
X94050Y-54270D02*
X94065Y-54255D01*
X93239Y-54375D02*
X93239Y-55160D01*
X93175Y-55225D02*
X92930Y-55225D01*
X93239Y-55160D02*
X93175Y-55225D01*
X93239Y-54375D02*
X93540Y-54375D01*
X93075Y-53700D02*
X93645Y-54270D01*
X93075Y-53700D02*
X93065Y-53700D01*
X93540Y-54375D02*
X93645Y-54270D01*
X91907Y-52990D02*
X92530Y-52990D01*
X92980Y-53615D02*
X92200Y-53615D01*
X93065Y-53700D02*
X92980Y-53615D01*
X93065Y-53525D02*
X93065Y-53700D01*
X92530Y-52990D02*
X93065Y-53525D01*
G54D40*
X83335Y-50470D02*
X83335Y-50090D01*
X83285Y-49420D02*
X83375Y-49330D01*
X83285Y-50040D02*
X83285Y-49420D01*
X83335Y-50090D02*
X83285Y-50040D01*
G54D37*
X83523Y-47808D02*
X83453Y-47808D01*
X84145Y-47808D02*
X83658Y-47808D01*
X83658Y-47808D02*
X83523Y-47808D01*
X83045Y-47400D02*
X83045Y-47205D01*
X83453Y-47808D02*
X83045Y-47400D01*
G54D40*
X84770Y-51820D02*
X84790Y-51800D01*
X83755Y-51820D02*
X84770Y-51820D01*
X83705Y-51870D02*
X83755Y-51820D01*
G54D37*
X84145Y-50367D02*
X83438Y-50367D01*
X83438Y-50367D02*
X83335Y-50470D01*
X87996Y-51265D02*
X87996Y-51471D01*
X87996Y-51471D02*
X88265Y-51740D01*
X88831Y-47417D02*
X89168Y-47417D01*
X89168Y-47417D02*
X89430Y-47155D01*
G54D41*
X83950Y-55450D02*
X83210Y-55450D01*
X83210Y-55450D02*
X82740Y-54980D01*
G54D37*
X85634Y-46131D02*
X85634Y-46579D01*
X85715Y-46050D02*
X85634Y-46131D01*
X81130Y-53370D02*
X81130Y-53270D01*
X84750Y-51330D02*
X84750Y-50850D01*
X84530Y-51550D02*
X84750Y-51330D01*
X82850Y-51550D02*
X84530Y-51550D01*
X81130Y-53270D02*
X82850Y-51550D01*
X81130Y-53370D02*
X81130Y-53255D01*
X88293Y-50367D02*
X88831Y-50367D01*
X84750Y-50850D02*
X85175Y-50425D01*
X85175Y-50425D02*
X87260Y-50425D01*
X87260Y-50425D02*
X87335Y-50500D01*
X88270Y-50390D02*
X88293Y-50367D01*
X81130Y-51370D02*
X82305Y-51370D01*
X87602Y-50827D02*
X87602Y-51265D01*
X87602Y-50397D02*
X87602Y-50827D01*
X87445Y-50240D02*
X87602Y-50397D01*
X85100Y-50240D02*
X87445Y-50240D01*
X84375Y-50965D02*
X85100Y-50240D01*
X82710Y-50965D02*
X84375Y-50965D01*
X82305Y-51370D02*
X82710Y-50965D01*
X81130Y-49370D02*
X81585Y-49370D01*
X85025Y-50055D02*
X87415Y-50055D01*
X84300Y-50780D02*
X85025Y-50055D01*
X82995Y-50780D02*
X84300Y-50780D01*
X81585Y-49370D02*
X82995Y-50780D01*
X88284Y-49186D02*
X88831Y-49186D01*
X87415Y-50055D02*
X88284Y-49186D01*
G54D42*
X80110Y-46690D02*
X80175Y-46690D01*
X80175Y-46690D02*
X80705Y-47220D01*
G54D37*
X81290Y-45365D02*
X81290Y-44855D01*
X81290Y-44855D02*
X81215Y-44780D01*
X81270Y-45385D02*
X81290Y-45365D01*
X81290Y-45365D02*
X81310Y-45345D01*
X81270Y-48030D02*
X81270Y-45385D01*
X81930Y-48690D02*
X81270Y-48030D01*
X82550Y-48690D02*
X81930Y-48690D01*
X82680Y-48820D02*
X82550Y-48690D01*
X84390Y-54550D02*
X83950Y-54550D01*
X84770Y-54930D02*
X84390Y-54550D01*
X93770Y-53025D02*
X93465Y-53025D01*
X94310Y-52485D02*
X93770Y-53025D01*
X94310Y-51965D02*
X94310Y-52485D01*
X94355Y-51920D02*
X94310Y-51965D01*
X92180Y-55225D02*
X92180Y-54935D01*
X92640Y-54385D02*
X92390Y-54135D01*
X92640Y-54475D02*
X92640Y-54385D01*
X92180Y-54935D02*
X92640Y-54475D01*
X90240Y-53945D02*
X90295Y-53945D01*
X90250Y-53345D02*
X90250Y-52840D01*
X90250Y-52840D02*
X90260Y-52830D01*
X87970Y-54080D02*
X87895Y-54155D01*
X87970Y-53620D02*
X87970Y-54080D01*
X89725Y-53345D02*
X90250Y-53345D01*
X89670Y-53290D02*
X89725Y-53345D01*
X90010Y-50320D02*
X90010Y-50335D01*
X89415Y-50930D02*
X88450Y-50930D01*
X90010Y-50335D02*
X89415Y-50930D01*
X87880Y-50535D02*
X87799Y-50535D01*
X88310Y-50965D02*
X87880Y-50535D01*
X89365Y-50965D02*
X88310Y-50965D01*
X90010Y-50320D02*
X89365Y-50965D01*
X86655Y-47530D02*
X86655Y-47780D01*
X86655Y-47780D02*
X87375Y-48500D01*
X85831Y-46579D02*
X85831Y-46956D01*
X86405Y-47530D02*
X86655Y-47530D01*
X85831Y-46956D02*
X86405Y-47530D01*
X84145Y-47611D02*
X83676Y-47611D01*
X83676Y-47611D02*
X83570Y-47505D01*
X84145Y-50170D02*
X83675Y-50170D01*
X83625Y-50120D02*
X83625Y-49855D01*
X83675Y-50170D02*
X83625Y-50120D01*
X87799Y-51265D02*
X87799Y-50535D01*
X87799Y-50535D02*
X87799Y-50241D01*
X87799Y-50241D02*
X88045Y-49995D01*
X87799Y-51265D02*
X87799Y-52111D01*
X87799Y-52111D02*
X87765Y-52145D01*
X88831Y-47614D02*
X89371Y-47614D01*
X92650Y-46870D02*
X92355Y-47165D01*
X92355Y-47165D02*
X91120Y-47165D01*
X92650Y-46870D02*
X92650Y-46515D01*
X90930Y-47355D02*
X91120Y-47165D01*
X89630Y-47355D02*
X90930Y-47355D01*
X89371Y-47614D02*
X89630Y-47355D01*
X90280Y-56100D02*
X90190Y-56100D01*
X87580Y-58250D02*
X87420Y-58090D01*
X87580Y-58250D02*
X88610Y-58250D01*
X90190Y-56100D02*
X89080Y-57210D01*
X91912Y-52525D02*
X92965Y-52525D01*
X92965Y-52525D02*
X93080Y-52640D01*
X90250Y-53345D02*
X90645Y-53345D01*
X90645Y-53345D02*
X90727Y-53262D01*
X90295Y-56085D02*
X90295Y-53945D01*
X90280Y-56100D02*
X90295Y-56085D01*
X90600Y-56600D02*
X90600Y-57070D01*
X90905Y-56295D02*
X90600Y-56600D01*
X91050Y-56295D02*
X90905Y-56295D01*
X91085Y-56330D02*
X91050Y-56295D01*
X91585Y-57170D02*
X91105Y-57170D01*
X91595Y-57160D02*
X91585Y-57170D01*
X92055Y-56250D02*
X91600Y-56250D01*
X92100Y-56205D02*
X92055Y-56250D01*
X92570Y-57105D02*
X92100Y-57105D01*
X92605Y-57140D02*
X92570Y-57105D01*
X93160Y-56300D02*
X92585Y-56300D01*
X93350Y-56490D02*
X93160Y-56300D01*
X93345Y-57315D02*
X93345Y-58300D01*
X93490Y-57170D02*
X93345Y-57315D01*
X93885Y-57170D02*
X93490Y-57170D01*
X94090Y-56965D02*
X93885Y-57170D01*
X93690Y-55580D02*
X93690Y-55670D01*
X94030Y-55240D02*
X93690Y-55580D01*
X95655Y-56105D02*
X95105Y-55555D01*
X95655Y-58395D02*
X95655Y-56105D01*
X95940Y-58680D02*
X95655Y-58395D01*
X96750Y-58680D02*
X95940Y-58680D01*
X96780Y-58710D02*
X96750Y-58680D01*
X97700Y-57925D02*
X96120Y-57925D01*
X97745Y-57970D02*
X97700Y-57925D01*
X96080Y-56460D02*
X97660Y-56460D01*
X96040Y-56420D02*
X96080Y-56460D01*
X97710Y-55270D02*
X96140Y-55270D01*
X97730Y-55290D02*
X97710Y-55270D01*
X96325Y-53830D02*
X95200Y-53830D01*
X95200Y-53830D02*
X95195Y-53835D01*
X96070Y-52750D02*
X96070Y-53575D01*
X96070Y-53575D02*
X96325Y-53830D01*
X95922Y-52602D02*
X95922Y-52110D01*
X96070Y-52750D02*
X95922Y-52602D01*
X96840Y-50790D02*
X96840Y-50810D01*
X95340Y-49530D02*
X96600Y-49530D01*
X95210Y-49400D02*
X95340Y-49530D01*
X91030Y-40370D02*
X91270Y-40370D01*
X91450Y-41260D02*
X91390Y-41200D01*
X91390Y-41200D02*
X90710Y-41200D01*
X90710Y-41200D02*
X90210Y-40700D01*
X93270Y-40430D02*
X93250Y-40410D01*
X93250Y-40410D02*
X92400Y-40410D01*
X91270Y-40370D02*
X91660Y-40760D01*
X94280Y-40380D02*
X94285Y-40385D01*
X97863Y-43210D02*
X97863Y-42150D01*
X97863Y-42150D02*
X97830Y-42117D01*
X96020Y-41100D02*
X96790Y-41100D01*
X95760Y-40840D02*
X96020Y-41100D01*
X97480Y-39980D02*
X96030Y-39980D01*
X97560Y-40060D02*
X97480Y-39980D01*
X97830Y-42117D02*
X97830Y-40950D01*
X97960Y-44585D02*
X97960Y-43307D01*
X97960Y-43307D02*
X97863Y-43210D01*
X95830Y-44535D02*
X96565Y-44535D01*
X97235Y-45310D02*
X97235Y-45460D01*
X97960Y-44585D02*
X97235Y-45310D01*
X96565Y-44535D02*
X97055Y-44045D01*
X92650Y-45645D02*
X92650Y-46515D01*
X92395Y-45390D02*
X92650Y-45645D01*
X95830Y-44535D02*
X94975Y-45390D01*
X94505Y-43285D02*
X95195Y-43975D01*
X94505Y-42940D02*
X94505Y-43285D01*
X94250Y-42685D02*
X94505Y-42940D01*
X92640Y-43360D02*
X92640Y-44160D01*
X92640Y-44160D02*
X92650Y-44170D01*
X91460Y-42300D02*
X91460Y-42340D01*
X92480Y-43360D02*
X92640Y-43360D01*
X91460Y-42340D02*
X92480Y-43360D01*
X83110Y-41680D02*
X83610Y-41180D01*
X83110Y-43080D02*
X83110Y-41680D01*
X91090Y-41930D02*
X91460Y-42300D01*
X90280Y-41930D02*
X91090Y-41930D01*
X89460Y-42750D02*
X90280Y-41930D01*
X89460Y-43780D02*
X89460Y-42750D01*
X88790Y-44450D02*
X89460Y-43780D01*
X90320Y-43820D02*
X89640Y-43820D01*
X90600Y-43540D02*
X90320Y-43820D01*
X89510Y-42240D02*
X90470Y-42240D01*
X89450Y-42300D02*
X89510Y-42240D01*
X89120Y-41020D02*
X89210Y-41110D01*
X87330Y-41020D02*
X89120Y-41020D01*
X87160Y-41190D02*
X87330Y-41020D01*
X87160Y-43230D02*
X87160Y-41190D01*
X87120Y-43270D02*
X87160Y-43230D01*
X86440Y-40770D02*
X87705Y-40770D01*
X86400Y-40810D02*
X86440Y-40770D01*
X84910Y-40750D02*
X84910Y-42080D01*
X84980Y-40680D02*
X84910Y-40750D01*
X80110Y-46690D02*
X80060Y-46690D01*
X80060Y-46690D02*
X79723Y-46353D01*
X79723Y-46353D02*
X79312Y-46353D01*
X80130Y-45550D02*
X80130Y-45750D01*
X79360Y-44780D02*
X80130Y-45550D01*
X83460Y-44230D02*
X84225Y-43465D01*
X83110Y-43080D02*
X83080Y-43050D01*
X80180Y-42780D02*
X80180Y-44280D01*
X80150Y-42750D02*
X80180Y-42780D01*
X79290Y-41840D02*
X80140Y-41840D01*
X79220Y-41770D02*
X79290Y-41840D01*
X80310Y-40820D02*
X79420Y-40820D01*
X80360Y-40770D02*
X80310Y-40820D01*
X81010Y-42290D02*
X81010Y-41390D01*
X81215Y-42495D02*
X81010Y-42290D01*
X83080Y-43050D02*
X81880Y-43050D01*
X83460Y-44235D02*
X83460Y-44230D01*
X83365Y-46555D02*
X83365Y-44330D01*
X84035Y-47095D02*
X83495Y-46555D01*
X83495Y-46555D02*
X83365Y-46555D01*
X82790Y-44295D02*
X81915Y-44295D01*
X82815Y-44270D02*
X82790Y-44295D01*
X83365Y-44330D02*
X83460Y-44235D01*
X86640Y-47515D02*
X86625Y-47515D01*
X86655Y-47530D02*
X86640Y-47515D01*
X86090Y-48810D02*
X85610Y-48810D01*
X86525Y-49245D02*
X86090Y-48810D01*
X81130Y-52370D02*
X81270Y-52370D01*
X82805Y-51245D02*
X83940Y-51245D01*
X82365Y-51685D02*
X82805Y-51245D01*
X81955Y-51685D02*
X82365Y-51685D01*
X81270Y-52370D02*
X81955Y-51685D01*
X86740Y-56690D02*
X86700Y-56650D01*
X86700Y-56650D02*
X85900Y-56650D01*
X84430Y-57240D02*
X84160Y-56970D01*
X82840Y-56970D02*
X82630Y-56970D01*
X84160Y-56970D02*
X82840Y-56970D01*
X82630Y-56970D02*
X82160Y-56500D01*
X82160Y-56500D02*
X81370Y-56500D01*
X81530Y-58550D02*
X81500Y-58550D01*
X81540Y-58560D02*
X81530Y-58550D01*
X80770Y-56570D02*
X80770Y-57680D01*
X80850Y-56490D02*
X80770Y-56570D01*
X87996Y-46579D02*
X87996Y-46549D01*
X88255Y-46290D02*
X88270Y-46290D01*
X87996Y-46549D02*
X88255Y-46290D01*
X89711Y-48204D02*
X88831Y-48204D01*
X89730Y-48185D02*
X89711Y-48204D01*
X88135Y-43140D02*
X88135Y-44570D01*
X88135Y-44570D02*
X88150Y-44585D01*
X88125Y-41670D02*
X88125Y-43130D01*
X88125Y-43130D02*
X88135Y-43140D01*
X86135Y-43140D02*
X86135Y-44610D01*
X86135Y-44610D02*
X86140Y-44615D01*
X86150Y-41665D02*
X86150Y-43125D01*
X86150Y-43125D02*
X86135Y-43140D01*
G54D38*
X90075Y-45750D02*
X91012Y-45750D01*
X91012Y-45750D02*
X91257Y-45994D01*
X91257Y-45994D02*
X91257Y-46327D01*
X91445Y-46515D02*
X92050Y-46515D01*
X91257Y-46327D02*
X91445Y-46515D01*
X90090Y-44970D02*
X91022Y-44970D01*
X91022Y-44970D02*
X91257Y-44735D01*
X92050Y-44170D02*
X91405Y-44170D01*
X91257Y-44317D02*
X91257Y-44735D01*
X91405Y-44170D02*
X91257Y-44317D01*
G54D41*
X96160Y-43180D02*
X97007Y-43180D01*
X97007Y-43180D02*
X97037Y-43210D01*
X96075Y-46125D02*
X96942Y-46125D01*
X96942Y-46125D02*
X96947Y-46120D01*
X95980Y-54540D02*
X96882Y-54540D01*
X96882Y-54540D02*
X96887Y-54535D01*
X96135Y-42090D02*
X96977Y-42090D01*
X96977Y-42090D02*
X97037Y-42150D01*
G54D38*
X96699Y-53160D02*
X97425Y-53160D01*
X97740Y-52845D02*
X97740Y-52345D01*
X97425Y-53160D02*
X97740Y-52845D01*
G54D40*
X89660Y-55095D02*
X89660Y-54365D01*
X89315Y-54020D02*
X89315Y-53620D01*
X89660Y-54365D02*
X89315Y-54020D01*
G54D38*
X89120Y-53247D02*
X89120Y-53425D01*
X89120Y-53425D02*
X89315Y-53620D01*
X88570Y-53620D02*
X89315Y-53620D01*
X89315Y-53620D02*
X89710Y-53620D01*
X89710Y-53620D02*
X89727Y-53637D01*
X88220Y-55022D02*
X88220Y-54555D01*
X88570Y-54205D02*
X88570Y-53620D01*
X88220Y-54555D02*
X88570Y-54205D01*
G54D43*
X89727Y-52887D02*
X89125Y-52887D01*
X89125Y-52887D02*
X89120Y-52893D01*
X91177Y-52887D02*
X91177Y-53412D01*
X91380Y-53615D02*
X91600Y-53615D01*
X91177Y-53412D02*
X91380Y-53615D01*
X91177Y-52887D02*
X91177Y-52882D01*
X91535Y-52525D02*
X91558Y-52525D01*
X91177Y-52882D02*
X91535Y-52525D01*
X90727Y-52887D02*
X91177Y-52887D01*
X91280Y-52990D02*
X91553Y-52990D01*
X91177Y-52887D02*
X91280Y-52990D01*
G54D41*
X84675Y-56350D02*
X85055Y-56730D01*
X84675Y-56350D02*
X83950Y-56350D01*
X81570Y-55742D02*
X82312Y-55742D01*
X82920Y-56350D02*
X83950Y-56350D01*
X82312Y-55742D02*
X82920Y-56350D01*
G54D40*
X90939Y-54010D02*
X90985Y-54010D01*
X91350Y-54375D02*
X91920Y-54375D01*
X90985Y-54010D02*
X91350Y-54375D01*
X90727Y-53637D02*
X90777Y-53637D01*
X90939Y-53799D02*
X90939Y-54010D01*
X90939Y-54010D02*
X90939Y-55095D01*
X90777Y-53637D02*
X90939Y-53799D01*
G54D10*
G36*
X81297Y-42925D02*
X81290Y-42908D01*
X81222Y-42840D01*
X81132Y-42803D01*
X81036Y-42803D01*
X80642Y-42803D01*
X80552Y-42840D01*
X80484Y-42908D01*
X80447Y-42997D01*
X80447Y-43094D01*
X80447Y-44354D01*
X80484Y-44443D01*
X80545Y-44505D01*
X80545Y-45000D01*
X80545Y-45524D01*
X80484Y-45585D01*
X80447Y-45675D01*
X80447Y-45771D01*
X80447Y-47031D01*
X80484Y-47121D01*
X80484Y-47121D01*
X80426Y-47121D01*
X80176Y-47121D01*
X80087Y-47158D01*
X80050Y-47195D01*
X80012Y-47158D01*
X79923Y-47121D01*
X79867Y-47121D01*
X79806Y-47182D01*
X79806Y-47533D01*
X79814Y-47533D01*
X79814Y-47646D01*
X79806Y-47646D01*
X79806Y-47654D01*
X79693Y-47654D01*
X79693Y-47646D01*
X79685Y-47646D01*
X79685Y-47533D01*
X79693Y-47533D01*
X79693Y-47182D01*
X79673Y-47163D01*
X79715Y-47121D01*
X79752Y-47031D01*
X79752Y-45675D01*
X79752Y-44354D01*
X79752Y-42998D01*
X79715Y-42908D01*
X79647Y-42840D01*
X79558Y-42803D01*
X79461Y-42803D01*
X79430Y-42803D01*
X79369Y-42864D01*
X79369Y-43619D01*
X79691Y-43619D01*
X79752Y-43558D01*
X79752Y-42998D01*
X79752Y-44354D01*
X79752Y-43793D01*
X79691Y-43733D01*
X79369Y-43733D01*
X79369Y-44488D01*
X79430Y-44549D01*
X79461Y-44549D01*
X79558Y-44549D01*
X79647Y-44512D01*
X79715Y-44443D01*
X79752Y-44354D01*
X79752Y-45675D01*
X79715Y-45586D01*
X79647Y-45517D01*
X79558Y-45480D01*
X79461Y-45480D01*
X79430Y-45480D01*
X79369Y-45541D01*
X79369Y-46296D01*
X79691Y-46296D01*
X79752Y-46236D01*
X79752Y-45675D01*
X79752Y-47031D01*
X79752Y-46471D01*
X79691Y-46410D01*
X79369Y-46410D01*
X79369Y-47165D01*
X79424Y-47221D01*
X79418Y-47226D01*
X79381Y-47316D01*
X79381Y-47380D01*
X79211Y-47210D01*
X79255Y-47165D01*
X79255Y-46410D01*
X79248Y-46410D01*
X79248Y-46296D01*
X79255Y-46296D01*
X79255Y-45541D01*
X79195Y-45480D01*
X79163Y-45480D01*
X79067Y-45480D01*
X79012Y-45502D01*
X79012Y-44527D01*
X79067Y-44549D01*
X79163Y-44549D01*
X79195Y-44549D01*
X79255Y-44488D01*
X79255Y-43733D01*
X79248Y-43733D01*
X79248Y-43619D01*
X79255Y-43619D01*
X79255Y-42864D01*
X79195Y-42803D01*
X79163Y-42803D01*
X79067Y-42803D01*
X79012Y-42825D01*
X79012Y-40271D01*
X79137Y-40323D01*
X79353Y-40323D01*
X79553Y-40240D01*
X79706Y-40088D01*
X79745Y-39992D01*
X79784Y-40087D01*
X79937Y-40240D01*
X80137Y-40323D01*
X80353Y-40323D01*
X80553Y-40240D01*
X80706Y-40088D01*
X80745Y-39992D01*
X80784Y-40087D01*
X80937Y-40240D01*
X81137Y-40323D01*
X81297Y-40323D01*
X81297Y-42925D01*
X81297Y-42925D01*
G37*
G54D44*
X81297Y-42925D02*
X81290Y-42908D01*
X81222Y-42840D01*
X81132Y-42803D01*
X81036Y-42803D01*
X80642Y-42803D01*
X80552Y-42840D01*
X80484Y-42908D01*
X80447Y-42997D01*
X80447Y-43094D01*
X80447Y-44354D01*
X80484Y-44443D01*
X80545Y-44505D01*
X80545Y-45000D01*
X80545Y-45524D01*
X80484Y-45585D01*
X80447Y-45675D01*
X80447Y-45771D01*
X80447Y-47031D01*
X80484Y-47121D01*
X80484Y-47121D01*
X80426Y-47121D01*
X80176Y-47121D01*
X80087Y-47158D01*
X80050Y-47195D01*
X80012Y-47158D01*
X79923Y-47121D01*
X79867Y-47121D01*
X79806Y-47182D01*
X79806Y-47533D01*
X79814Y-47533D01*
X79814Y-47646D01*
X79806Y-47646D01*
X79806Y-47654D01*
X79693Y-47654D01*
X79693Y-47646D01*
X79685Y-47646D01*
X79685Y-47533D01*
X79693Y-47533D01*
X79693Y-47182D01*
X79673Y-47163D01*
X79715Y-47121D01*
X79752Y-47031D01*
X79752Y-45675D01*
X79752Y-44354D01*
X79752Y-42998D01*
X79715Y-42908D01*
X79647Y-42840D01*
X79558Y-42803D01*
X79461Y-42803D01*
X79430Y-42803D01*
X79369Y-42864D01*
X79369Y-43619D01*
X79691Y-43619D01*
X79752Y-43558D01*
X79752Y-42998D01*
X79752Y-44354D01*
X79752Y-43793D01*
X79691Y-43733D01*
X79369Y-43733D01*
X79369Y-44488D01*
X79430Y-44549D01*
X79461Y-44549D01*
X79558Y-44549D01*
X79647Y-44512D01*
X79715Y-44443D01*
X79752Y-44354D01*
X79752Y-45675D01*
X79715Y-45586D01*
X79647Y-45517D01*
X79558Y-45480D01*
X79461Y-45480D01*
X79430Y-45480D01*
X79369Y-45541D01*
X79369Y-46296D01*
X79691Y-46296D01*
X79752Y-46236D01*
X79752Y-45675D01*
X79752Y-47031D01*
X79752Y-46471D01*
X79691Y-46410D01*
X79369Y-46410D01*
X79369Y-47165D01*
X79424Y-47221D01*
X79418Y-47226D01*
X79381Y-47316D01*
X79381Y-47380D01*
X79211Y-47210D01*
X79255Y-47165D01*
X79255Y-46410D01*
X79248Y-46410D01*
X79248Y-46296D01*
X79255Y-46296D01*
X79255Y-45541D01*
X79195Y-45480D01*
X79163Y-45480D01*
X79067Y-45480D01*
X79012Y-45502D01*
X79012Y-44527D01*
X79067Y-44549D01*
X79163Y-44549D01*
X79195Y-44549D01*
X79255Y-44488D01*
X79255Y-43733D01*
X79248Y-43733D01*
X79248Y-43619D01*
X79255Y-43619D01*
X79255Y-42864D01*
X79195Y-42803D01*
X79163Y-42803D01*
X79067Y-42803D01*
X79012Y-42825D01*
X79012Y-40271D01*
X79137Y-40323D01*
X79353Y-40323D01*
X79553Y-40240D01*
X79706Y-40088D01*
X79745Y-39992D01*
X79784Y-40087D01*
X79937Y-40240D01*
X80137Y-40323D01*
X80353Y-40323D01*
X80553Y-40240D01*
X80706Y-40088D01*
X80745Y-39992D01*
X80784Y-40087D01*
X80937Y-40240D01*
X81137Y-40323D01*
X81297Y-40323D01*
X81297Y-42925D01*
G54D10*
G36*
X81297Y-45602D02*
X81290Y-45586D01*
X81229Y-45524D01*
X81229Y-45000D01*
X81229Y-44505D01*
X81290Y-44444D01*
X81297Y-44426D01*
X81297Y-45602D01*
X81297Y-45602D01*
G37*
G54D44*
X81297Y-45602D02*
X81290Y-45586D01*
X81229Y-45524D01*
X81229Y-45000D01*
X81229Y-44505D01*
X81290Y-44444D01*
X81297Y-44426D01*
X81297Y-45602D01*
G54D10*
G36*
X82300Y-51672D02*
X81670Y-52302D01*
X81665Y-52227D01*
X81609Y-52091D01*
X81516Y-52063D01*
X81210Y-52370D01*
X81215Y-52375D01*
X81135Y-52455D01*
X81130Y-52450D01*
X81124Y-52455D01*
X81044Y-52375D01*
X81049Y-52370D01*
X81044Y-52364D01*
X81124Y-52284D01*
X81130Y-52289D01*
X81436Y-51983D01*
X81408Y-51890D01*
X81344Y-51869D01*
X81437Y-51830D01*
X81590Y-51678D01*
X81592Y-51672D01*
X82300Y-51672D01*
X82300Y-51672D01*
G37*
G54D44*
X82300Y-51672D02*
X81670Y-52302D01*
X81665Y-52227D01*
X81609Y-52091D01*
X81516Y-52063D01*
X81210Y-52370D01*
X81215Y-52375D01*
X81135Y-52455D01*
X81130Y-52450D01*
X81124Y-52455D01*
X81044Y-52375D01*
X81049Y-52370D01*
X81044Y-52364D01*
X81124Y-52284D01*
X81130Y-52289D01*
X81436Y-51983D01*
X81408Y-51890D01*
X81344Y-51869D01*
X81437Y-51830D01*
X81590Y-51678D01*
X81592Y-51672D01*
X82300Y-51672D01*
G54D10*
G36*
X82596Y-48825D02*
X82486Y-48936D01*
X82420Y-49034D01*
X82397Y-49150D01*
X82397Y-49750D01*
X82397Y-49755D01*
X81798Y-49156D01*
X81700Y-49090D01*
X81593Y-49069D01*
X81590Y-49062D01*
X81438Y-48909D01*
X81238Y-48826D01*
X81022Y-48826D01*
X80941Y-48859D01*
X80941Y-48370D01*
X80941Y-48356D01*
X81236Y-48061D01*
X81236Y-48061D01*
X81236Y-48061D01*
X81310Y-47950D01*
X81336Y-47820D01*
X81336Y-47500D01*
X81336Y-46729D01*
X81386Y-46803D01*
X82015Y-47433D01*
X81953Y-47495D01*
X81898Y-47627D01*
X81898Y-47771D01*
X81953Y-47904D01*
X82055Y-48006D01*
X82187Y-48061D01*
X82193Y-48061D01*
X82285Y-48153D01*
X82263Y-48175D01*
X82208Y-48307D01*
X82208Y-48451D01*
X82263Y-48584D01*
X82365Y-48686D01*
X82497Y-48741D01*
X82503Y-48741D01*
X82571Y-48808D01*
X82596Y-48825D01*
X82596Y-48825D01*
G37*
G54D44*
X82596Y-48825D02*
X82486Y-48936D01*
X82420Y-49034D01*
X82397Y-49150D01*
X82397Y-49750D01*
X82397Y-49755D01*
X81798Y-49156D01*
X81700Y-49090D01*
X81593Y-49069D01*
X81590Y-49062D01*
X81438Y-48909D01*
X81238Y-48826D01*
X81022Y-48826D01*
X80941Y-48859D01*
X80941Y-48370D01*
X80941Y-48356D01*
X81236Y-48061D01*
X81236Y-48061D01*
X81236Y-48061D01*
X81310Y-47950D01*
X81336Y-47820D01*
X81336Y-47500D01*
X81336Y-46729D01*
X81386Y-46803D01*
X82015Y-47433D01*
X81953Y-47495D01*
X81898Y-47627D01*
X81898Y-47771D01*
X81953Y-47904D01*
X82055Y-48006D01*
X82187Y-48061D01*
X82193Y-48061D01*
X82285Y-48153D01*
X82263Y-48175D01*
X82208Y-48307D01*
X82208Y-48451D01*
X82263Y-48584D01*
X82365Y-48686D01*
X82497Y-48741D01*
X82503Y-48741D01*
X82571Y-48808D01*
X82596Y-48825D01*
G54D10*
G36*
X82794Y-44102D02*
X82787Y-44140D01*
X82787Y-44633D01*
X82778Y-44633D01*
X82645Y-44688D01*
X82616Y-44717D01*
X82083Y-44717D01*
X82079Y-44713D01*
X81947Y-44658D01*
X81902Y-44658D01*
X81902Y-44050D01*
X81999Y-44050D01*
X82146Y-43989D01*
X82184Y-43952D01*
X82639Y-43952D01*
X82650Y-43976D01*
X82762Y-44089D01*
X82794Y-44102D01*
X82794Y-44102D01*
G37*
G54D44*
X82794Y-44102D02*
X82787Y-44140D01*
X82787Y-44633D01*
X82778Y-44633D01*
X82645Y-44688D01*
X82616Y-44717D01*
X82083Y-44717D01*
X82079Y-44713D01*
X81947Y-44658D01*
X81902Y-44658D01*
X81902Y-44050D01*
X81999Y-44050D01*
X82146Y-43989D01*
X82184Y-43952D01*
X82639Y-43952D01*
X82650Y-43976D01*
X82762Y-44089D01*
X82794Y-44102D01*
G54D10*
G36*
X83942Y-42859D02*
X83304Y-43497D01*
X83217Y-43410D01*
X83070Y-43349D01*
X82910Y-43349D01*
X82906Y-43350D01*
X82890Y-43347D01*
X82184Y-43347D01*
X82147Y-43310D01*
X82000Y-43249D01*
X81902Y-43249D01*
X81902Y-40206D01*
X81936Y-40240D01*
X82135Y-40323D01*
X82351Y-40323D01*
X82551Y-40240D01*
X82704Y-40088D01*
X82744Y-39992D01*
X82783Y-40087D01*
X82936Y-40240D01*
X83135Y-40323D01*
X83351Y-40323D01*
X83551Y-40240D01*
X83704Y-40088D01*
X83744Y-39992D01*
X83783Y-40087D01*
X83936Y-40240D01*
X83941Y-40242D01*
X83941Y-42580D01*
X83942Y-42583D01*
X83942Y-42859D01*
X83942Y-42859D01*
G37*
G54D44*
X83942Y-42859D02*
X83304Y-43497D01*
X83217Y-43410D01*
X83070Y-43349D01*
X82910Y-43349D01*
X82906Y-43350D01*
X82890Y-43347D01*
X82184Y-43347D01*
X82147Y-43310D01*
X82000Y-43249D01*
X81902Y-43249D01*
X81902Y-40206D01*
X81936Y-40240D01*
X82135Y-40323D01*
X82351Y-40323D01*
X82551Y-40240D01*
X82704Y-40088D01*
X82744Y-39992D01*
X82783Y-40087D01*
X82936Y-40240D01*
X83135Y-40323D01*
X83351Y-40323D01*
X83551Y-40240D01*
X83704Y-40088D01*
X83744Y-39992D01*
X83783Y-40087D01*
X83936Y-40240D01*
X83941Y-40242D01*
X83941Y-42580D01*
X83942Y-42583D01*
X83942Y-42859D01*
G54D10*
G36*
X84317Y-43449D02*
X83392Y-44375D01*
X83392Y-44265D01*
X84317Y-43339D01*
X84317Y-43449D01*
X84317Y-43449D01*
G37*
G54D44*
X84317Y-43449D02*
X83392Y-44375D01*
X83392Y-44265D01*
X84317Y-43339D01*
X84317Y-43449D01*
G54D10*
G36*
X85273Y-40323D02*
X85121Y-40475D01*
X85055Y-40573D01*
X85032Y-40689D01*
X85032Y-43054D01*
X84922Y-43165D01*
X84922Y-40529D01*
X85130Y-40321D01*
X85135Y-40323D01*
X85273Y-40323D01*
X85273Y-40323D01*
G37*
G54D44*
X85273Y-40323D02*
X85121Y-40475D01*
X85055Y-40573D01*
X85032Y-40689D01*
X85032Y-43054D01*
X84922Y-43165D01*
X84922Y-40529D01*
X85130Y-40321D01*
X85135Y-40323D01*
X85273Y-40323D01*
G54D10*
G36*
X87827Y-48662D02*
X87122Y-49367D01*
X84870Y-49367D01*
X84754Y-49390D01*
X84688Y-49434D01*
X84698Y-49383D01*
X84679Y-49284D01*
X84698Y-49186D01*
X84679Y-49087D01*
X84698Y-48989D01*
X84679Y-48890D01*
X84698Y-48792D01*
X84698Y-48787D01*
X84827Y-48841D01*
X84971Y-48841D01*
X85104Y-48786D01*
X85206Y-48684D01*
X85261Y-48552D01*
X85261Y-48480D01*
X85379Y-48431D01*
X85481Y-48329D01*
X85536Y-48197D01*
X85536Y-48053D01*
X85481Y-47920D01*
X85437Y-47876D01*
X85437Y-47260D01*
X85414Y-47144D01*
X85402Y-47126D01*
X85437Y-47132D01*
X85535Y-47113D01*
X85634Y-47132D01*
X85748Y-47110D01*
X85754Y-47112D01*
X85767Y-47097D01*
X85830Y-47055D01*
X85895Y-47099D01*
X85907Y-47112D01*
X85912Y-47110D01*
X86027Y-47132D01*
X86125Y-47113D01*
X86224Y-47132D01*
X86322Y-47113D01*
X86421Y-47132D01*
X86519Y-47113D01*
X86618Y-47132D01*
X86716Y-47113D01*
X86815Y-47132D01*
X86913Y-47113D01*
X87012Y-47132D01*
X87110Y-47113D01*
X87140Y-47119D01*
X87093Y-47232D01*
X87093Y-47376D01*
X87148Y-47509D01*
X87250Y-47611D01*
X87382Y-47666D01*
X87526Y-47666D01*
X87659Y-47611D01*
X87761Y-47509D01*
X87814Y-47382D01*
X87827Y-47382D01*
X87827Y-48662D01*
X87827Y-48662D01*
G37*
G54D44*
X87827Y-48662D02*
X87122Y-49367D01*
X84870Y-49367D01*
X84754Y-49390D01*
X84688Y-49434D01*
X84698Y-49383D01*
X84679Y-49284D01*
X84698Y-49186D01*
X84679Y-49087D01*
X84698Y-48989D01*
X84679Y-48890D01*
X84698Y-48792D01*
X84698Y-48787D01*
X84827Y-48841D01*
X84971Y-48841D01*
X85104Y-48786D01*
X85206Y-48684D01*
X85261Y-48552D01*
X85261Y-48480D01*
X85379Y-48431D01*
X85481Y-48329D01*
X85536Y-48197D01*
X85536Y-48053D01*
X85481Y-47920D01*
X85437Y-47876D01*
X85437Y-47260D01*
X85414Y-47144D01*
X85402Y-47126D01*
X85437Y-47132D01*
X85535Y-47113D01*
X85634Y-47132D01*
X85748Y-47110D01*
X85754Y-47112D01*
X85767Y-47097D01*
X85830Y-47055D01*
X85895Y-47099D01*
X85907Y-47112D01*
X85912Y-47110D01*
X86027Y-47132D01*
X86125Y-47113D01*
X86224Y-47132D01*
X86322Y-47113D01*
X86421Y-47132D01*
X86519Y-47113D01*
X86618Y-47132D01*
X86716Y-47113D01*
X86815Y-47132D01*
X86913Y-47113D01*
X87012Y-47132D01*
X87110Y-47113D01*
X87140Y-47119D01*
X87093Y-47232D01*
X87093Y-47376D01*
X87148Y-47509D01*
X87250Y-47611D01*
X87382Y-47666D01*
X87526Y-47666D01*
X87659Y-47611D01*
X87761Y-47509D01*
X87814Y-47382D01*
X87827Y-47382D01*
X87827Y-48662D01*
G54D10*
G36*
X90048Y-50275D02*
X90028Y-50322D01*
X90028Y-50408D01*
X88665Y-51771D01*
X88665Y-51660D01*
X88604Y-51513D01*
X88492Y-51400D01*
X88345Y-51339D01*
X88298Y-51339D01*
X88298Y-51265D01*
X88298Y-51013D01*
X88275Y-50897D01*
X88209Y-50799D01*
X88111Y-50734D01*
X87996Y-50711D01*
X87904Y-50729D01*
X87904Y-50397D01*
X87881Y-50281D01*
X87815Y-50183D01*
X87765Y-50132D01*
X88283Y-49613D01*
X88296Y-49677D01*
X88277Y-49776D01*
X88300Y-49891D01*
X88300Y-49891D01*
X88284Y-49973D01*
X88295Y-50028D01*
X88198Y-50028D01*
X88065Y-50083D01*
X87963Y-50185D01*
X87908Y-50317D01*
X87908Y-50461D01*
X87963Y-50594D01*
X88065Y-50696D01*
X88197Y-50751D01*
X88341Y-50751D01*
X88474Y-50696D01*
X88501Y-50669D01*
X88579Y-50669D01*
X88831Y-50669D01*
X89082Y-50669D01*
X89198Y-50646D01*
X89296Y-50580D01*
X89361Y-50482D01*
X89384Y-50367D01*
X89366Y-50275D01*
X90048Y-50275D01*
X90048Y-50275D01*
G37*
G54D44*
X90048Y-50275D02*
X90028Y-50322D01*
X90028Y-50408D01*
X88665Y-51771D01*
X88665Y-51660D01*
X88604Y-51513D01*
X88492Y-51400D01*
X88345Y-51339D01*
X88298Y-51339D01*
X88298Y-51265D01*
X88298Y-51013D01*
X88275Y-50897D01*
X88209Y-50799D01*
X88111Y-50734D01*
X87996Y-50711D01*
X87904Y-50729D01*
X87904Y-50397D01*
X87881Y-50281D01*
X87815Y-50183D01*
X87765Y-50132D01*
X88283Y-49613D01*
X88296Y-49677D01*
X88277Y-49776D01*
X88300Y-49891D01*
X88300Y-49891D01*
X88284Y-49973D01*
X88295Y-50028D01*
X88198Y-50028D01*
X88065Y-50083D01*
X87963Y-50185D01*
X87908Y-50317D01*
X87908Y-50461D01*
X87963Y-50594D01*
X88065Y-50696D01*
X88197Y-50751D01*
X88341Y-50751D01*
X88474Y-50696D01*
X88501Y-50669D01*
X88579Y-50669D01*
X88831Y-50669D01*
X89082Y-50669D01*
X89198Y-50646D01*
X89296Y-50580D01*
X89361Y-50482D01*
X89384Y-50367D01*
X89366Y-50275D01*
X90048Y-50275D01*
G54D10*
G36*
X91460Y-41327D02*
X90819Y-41327D01*
X89815Y-40323D01*
X89951Y-40323D01*
X89957Y-40321D01*
X90710Y-41073D01*
X90825Y-41188D01*
X90825Y-41188D01*
X90923Y-41254D01*
X91039Y-41277D01*
X91039Y-41277D01*
X91409Y-41277D01*
X91460Y-41327D01*
X91460Y-41327D01*
G37*
G54D44*
X91460Y-41327D02*
X90819Y-41327D01*
X89815Y-40323D01*
X89951Y-40323D01*
X89957Y-40321D01*
X90710Y-41073D01*
X90825Y-41188D01*
X90825Y-41188D01*
X90923Y-41254D01*
X91039Y-41277D01*
X91039Y-41277D01*
X91409Y-41277D01*
X91460Y-41327D01*
G54D10*
G36*
X91505Y-40672D02*
X91164Y-40672D01*
X91138Y-40646D01*
X90815Y-40323D01*
X90951Y-40323D01*
X91096Y-40263D01*
X91505Y-40672D01*
X91505Y-40672D01*
G37*
G54D44*
X91505Y-40672D02*
X91164Y-40672D01*
X91138Y-40646D01*
X90815Y-40323D01*
X90951Y-40323D01*
X91096Y-40263D01*
X91505Y-40672D01*
G54D10*
G36*
X92903Y-54012D02*
X92875Y-54040D01*
X92838Y-54129D01*
X92838Y-54226D01*
X92838Y-54620D01*
X92874Y-54706D01*
X92706Y-54706D01*
X92617Y-54743D01*
X92555Y-54805D01*
X92492Y-54743D01*
X92403Y-54706D01*
X92297Y-54706D01*
X92236Y-54767D01*
X92236Y-54757D01*
X92284Y-54709D01*
X92321Y-54620D01*
X92321Y-54523D01*
X92321Y-54129D01*
X92302Y-54083D01*
X92373Y-54083D01*
X92462Y-54046D01*
X92531Y-53978D01*
X92539Y-53956D01*
X92845Y-53956D01*
X92845Y-53956D01*
X92853Y-53961D01*
X92903Y-54012D01*
X92903Y-54012D01*
G37*
G54D44*
X92903Y-54012D02*
X92875Y-54040D01*
X92838Y-54129D01*
X92838Y-54226D01*
X92838Y-54620D01*
X92874Y-54706D01*
X92706Y-54706D01*
X92617Y-54743D01*
X92555Y-54805D01*
X92492Y-54743D01*
X92403Y-54706D01*
X92297Y-54706D01*
X92236Y-54767D01*
X92236Y-54757D01*
X92284Y-54709D01*
X92321Y-54620D01*
X92321Y-54523D01*
X92321Y-54129D01*
X92302Y-54083D01*
X92373Y-54083D01*
X92462Y-54046D01*
X92531Y-53978D01*
X92539Y-53956D01*
X92845Y-53956D01*
X92845Y-53956D01*
X92853Y-53961D01*
X92903Y-54012D01*
G54D10*
G36*
X93631Y-58279D02*
X93536Y-58319D01*
X93383Y-58471D01*
X93344Y-58567D01*
X93305Y-58472D01*
X93152Y-58319D01*
X93056Y-58280D01*
X93151Y-58240D01*
X93304Y-58088D01*
X93344Y-57992D01*
X93383Y-58087D01*
X93536Y-58240D01*
X93631Y-58279D01*
X93631Y-58279D01*
G37*
G54D44*
X93631Y-58279D02*
X93536Y-58319D01*
X93383Y-58471D01*
X93344Y-58567D01*
X93305Y-58472D01*
X93152Y-58319D01*
X93056Y-58280D01*
X93151Y-58240D01*
X93304Y-58088D01*
X93344Y-57992D01*
X93383Y-58087D01*
X93536Y-58240D01*
X93631Y-58279D01*
G54D10*
G36*
X94097Y-57296D02*
X93952Y-57236D01*
X93736Y-57236D01*
X93536Y-57319D01*
X93383Y-57471D01*
X93344Y-57567D01*
X93305Y-57472D01*
X93152Y-57319D01*
X92952Y-57236D01*
X92736Y-57236D01*
X92536Y-57319D01*
X92383Y-57471D01*
X92344Y-57567D01*
X92305Y-57472D01*
X92152Y-57319D01*
X92123Y-57307D01*
X92123Y-55682D01*
X92123Y-55281D01*
X91822Y-55281D01*
X91761Y-55342D01*
X91761Y-55451D01*
X91761Y-55548D01*
X91798Y-55638D01*
X91867Y-55706D01*
X91956Y-55743D01*
X92062Y-55743D01*
X92123Y-55682D01*
X92123Y-57307D01*
X91952Y-57236D01*
X91736Y-57236D01*
X91536Y-57319D01*
X91383Y-57471D01*
X91344Y-57567D01*
X91305Y-57472D01*
X91152Y-57319D01*
X90952Y-57236D01*
X90736Y-57236D01*
X90536Y-57319D01*
X90383Y-57471D01*
X90344Y-57567D01*
X90305Y-57472D01*
X90152Y-57319D01*
X89952Y-57236D01*
X89736Y-57236D01*
X89536Y-57319D01*
X89383Y-57471D01*
X89301Y-57671D01*
X89300Y-57887D01*
X89383Y-58087D01*
X89536Y-58240D01*
X89631Y-58279D01*
X89536Y-58319D01*
X89383Y-58471D01*
X89301Y-58671D01*
X89300Y-58837D01*
X88387Y-58837D01*
X88387Y-58672D01*
X88305Y-58472D01*
X88152Y-58319D01*
X87952Y-58236D01*
X87736Y-58236D01*
X87536Y-58319D01*
X87383Y-58471D01*
X87347Y-58559D01*
X87323Y-58501D01*
X87230Y-58473D01*
X87150Y-58553D01*
X87150Y-58393D01*
X87122Y-58300D01*
X86917Y-58230D01*
X86702Y-58244D01*
X86566Y-58300D01*
X86537Y-58393D01*
X86844Y-58699D01*
X87150Y-58393D01*
X87150Y-58553D01*
X86924Y-58780D01*
X86929Y-58785D01*
X86878Y-58837D01*
X86810Y-58837D01*
X86758Y-58785D01*
X86764Y-58780D01*
X86457Y-58473D01*
X86365Y-58501D01*
X86346Y-58557D01*
X86323Y-58501D01*
X86230Y-58473D01*
X86150Y-58553D01*
X86150Y-58393D01*
X86122Y-58300D01*
X85917Y-58230D01*
X85702Y-58244D01*
X85566Y-58300D01*
X85537Y-58393D01*
X85844Y-58699D01*
X86150Y-58393D01*
X86150Y-58553D01*
X85924Y-58780D01*
X85929Y-58785D01*
X85878Y-58837D01*
X85810Y-58837D01*
X85758Y-58785D01*
X85764Y-58780D01*
X85457Y-58473D01*
X85365Y-58501D01*
X85343Y-58565D01*
X85315Y-58497D01*
X86002Y-57810D01*
X87920Y-57810D01*
X87920Y-57810D01*
X88088Y-57776D01*
X88231Y-57681D01*
X88531Y-57381D01*
X88531Y-57381D01*
X88626Y-57238D01*
X88658Y-57076D01*
X88658Y-57076D01*
X88701Y-57076D01*
X88790Y-57039D01*
X88859Y-56971D01*
X88896Y-56881D01*
X88896Y-56784D01*
X88896Y-56154D01*
X88859Y-56065D01*
X88791Y-55996D01*
X88701Y-55959D01*
X88604Y-55959D01*
X87738Y-55959D01*
X87649Y-55996D01*
X87580Y-56064D01*
X87543Y-56154D01*
X87543Y-56251D01*
X87543Y-56881D01*
X87563Y-56929D01*
X85820Y-56929D01*
X85651Y-56963D01*
X85508Y-57058D01*
X84835Y-57732D01*
X84601Y-57498D01*
X84458Y-57403D01*
X84290Y-57369D01*
X82246Y-57369D01*
X82246Y-56874D01*
X82209Y-56785D01*
X82141Y-56716D01*
X82051Y-56679D01*
X81954Y-56679D01*
X81088Y-56679D01*
X80999Y-56716D01*
X80930Y-56784D01*
X80893Y-56874D01*
X80893Y-56971D01*
X80893Y-57601D01*
X80930Y-57690D01*
X80998Y-57759D01*
X81088Y-57796D01*
X81185Y-57796D01*
X81235Y-57796D01*
X81258Y-57831D01*
X81548Y-58121D01*
X81548Y-58121D01*
X81691Y-58216D01*
X81859Y-58250D01*
X81860Y-58250D01*
X82703Y-58250D01*
X82536Y-58319D01*
X82383Y-58471D01*
X82301Y-58671D01*
X82300Y-58837D01*
X80913Y-58837D01*
X80642Y-58566D01*
X80642Y-54826D01*
X80691Y-54876D01*
X80781Y-54913D01*
X80878Y-54913D01*
X81478Y-54913D01*
X81567Y-54876D01*
X81608Y-54835D01*
X81608Y-54857D01*
X81549Y-54999D01*
X81549Y-55159D01*
X81559Y-55183D01*
X81088Y-55183D01*
X80999Y-55220D01*
X80930Y-55288D01*
X80893Y-55378D01*
X80893Y-55475D01*
X80893Y-56105D01*
X80930Y-56194D01*
X80998Y-56263D01*
X81088Y-56300D01*
X81185Y-56300D01*
X82051Y-56300D01*
X82140Y-56263D01*
X82189Y-56214D01*
X82622Y-56647D01*
X82759Y-56738D01*
X82920Y-56770D01*
X83446Y-56770D01*
X83501Y-56793D01*
X83598Y-56793D01*
X84398Y-56793D01*
X84453Y-56770D01*
X84500Y-56770D01*
X84625Y-56895D01*
X84664Y-56990D01*
X84794Y-57119D01*
X84963Y-57189D01*
X85146Y-57189D01*
X85315Y-57120D01*
X85444Y-56990D01*
X85514Y-56821D01*
X85514Y-56638D01*
X85445Y-56469D01*
X85315Y-56340D01*
X85220Y-56300D01*
X84972Y-56052D01*
X84835Y-55961D01*
X84675Y-55929D01*
X84453Y-55929D01*
X84398Y-55906D01*
X84301Y-55906D01*
X83501Y-55906D01*
X83446Y-55929D01*
X83094Y-55929D01*
X82609Y-55444D01*
X82526Y-55389D01*
X82574Y-55409D01*
X82912Y-55747D01*
X83049Y-55838D01*
X83210Y-55870D01*
X83446Y-55870D01*
X83501Y-55893D01*
X83598Y-55893D01*
X84398Y-55893D01*
X84487Y-55856D01*
X84556Y-55788D01*
X84593Y-55698D01*
X84593Y-55601D01*
X84593Y-55201D01*
X84593Y-54798D01*
X84593Y-54667D01*
X84532Y-54606D01*
X84006Y-54606D01*
X84006Y-54932D01*
X84067Y-54993D01*
X84301Y-54993D01*
X84398Y-54993D01*
X84488Y-54956D01*
X84556Y-54887D01*
X84593Y-54798D01*
X84593Y-55201D01*
X84556Y-55112D01*
X84488Y-55043D01*
X84398Y-55006D01*
X84301Y-55006D01*
X83893Y-55006D01*
X83893Y-54932D01*
X83893Y-54606D01*
X83367Y-54606D01*
X83306Y-54667D01*
X83306Y-54798D01*
X83343Y-54887D01*
X83411Y-54956D01*
X83501Y-54993D01*
X83598Y-54993D01*
X83832Y-54993D01*
X83893Y-54932D01*
X83893Y-55006D01*
X83501Y-55006D01*
X83446Y-55029D01*
X83384Y-55029D01*
X83169Y-54814D01*
X83130Y-54719D01*
X83000Y-54590D01*
X82831Y-54520D01*
X82648Y-54520D01*
X82479Y-54589D01*
X82350Y-54719D01*
X82292Y-54858D01*
X82291Y-54857D01*
X82291Y-54351D01*
X82301Y-54351D01*
X82434Y-54296D01*
X82488Y-54242D01*
X83331Y-54242D01*
X83306Y-54301D01*
X83306Y-54432D01*
X83367Y-54493D01*
X83893Y-54493D01*
X83893Y-54485D01*
X84006Y-54485D01*
X84006Y-54493D01*
X84532Y-54493D01*
X84593Y-54432D01*
X84593Y-54301D01*
X84556Y-54212D01*
X84520Y-54176D01*
X84526Y-54176D01*
X84534Y-54173D01*
X84543Y-54194D01*
X84645Y-54296D01*
X84777Y-54351D01*
X84921Y-54351D01*
X84966Y-54332D01*
X85082Y-54381D01*
X85226Y-54381D01*
X85309Y-54347D01*
X85402Y-54386D01*
X85546Y-54386D01*
X85595Y-54366D01*
X85605Y-54376D01*
X85737Y-54431D01*
X85881Y-54431D01*
X86014Y-54376D01*
X86069Y-54321D01*
X86234Y-54486D01*
X86101Y-54486D01*
X86012Y-54523D01*
X85943Y-54591D01*
X85906Y-54681D01*
X85906Y-54778D01*
X85906Y-56218D01*
X85943Y-56307D01*
X86011Y-56376D01*
X86101Y-56413D01*
X86198Y-56413D01*
X86998Y-56413D01*
X87087Y-56376D01*
X87156Y-56308D01*
X87193Y-56218D01*
X87193Y-56121D01*
X87193Y-54681D01*
X87184Y-54660D01*
X87219Y-54646D01*
X87321Y-54544D01*
X87376Y-54412D01*
X87376Y-54409D01*
X87419Y-54391D01*
X87521Y-54289D01*
X87572Y-54165D01*
X87619Y-54146D01*
X87712Y-54053D01*
X87796Y-54088D01*
X87852Y-54088D01*
X87913Y-54027D01*
X87913Y-53676D01*
X87905Y-53676D01*
X87905Y-53563D01*
X87913Y-53563D01*
X87913Y-53212D01*
X87852Y-53151D01*
X87796Y-53151D01*
X87707Y-53188D01*
X87638Y-53256D01*
X87601Y-53346D01*
X87601Y-53443D01*
X87601Y-53502D01*
X87662Y-53563D01*
X87649Y-53563D01*
X87619Y-53533D01*
X87516Y-53490D01*
X87473Y-53387D01*
X87496Y-53332D01*
X87496Y-53323D01*
X87549Y-53301D01*
X87651Y-53199D01*
X87706Y-53067D01*
X87706Y-53052D01*
X88530Y-53052D01*
X88650Y-53052D01*
X88762Y-53029D01*
X88779Y-53070D01*
X88758Y-53119D01*
X88758Y-53158D01*
X88743Y-53151D01*
X88646Y-53151D01*
X88396Y-53151D01*
X88307Y-53188D01*
X88270Y-53225D01*
X88232Y-53188D01*
X88143Y-53151D01*
X88087Y-53151D01*
X88026Y-53212D01*
X88026Y-53563D01*
X88034Y-53563D01*
X88034Y-53676D01*
X88026Y-53676D01*
X88026Y-54027D01*
X88087Y-54088D01*
X88143Y-54088D01*
X88228Y-54053D01*
X88228Y-54063D01*
X87978Y-54313D01*
X87904Y-54424D01*
X87896Y-54463D01*
X87738Y-54463D01*
X87649Y-54500D01*
X87580Y-54568D01*
X87543Y-54658D01*
X87543Y-54755D01*
X87543Y-55385D01*
X87580Y-55474D01*
X87648Y-55543D01*
X87738Y-55580D01*
X87835Y-55580D01*
X88701Y-55580D01*
X88790Y-55543D01*
X88859Y-55475D01*
X88896Y-55385D01*
X88896Y-55288D01*
X88896Y-54658D01*
X88859Y-54569D01*
X88791Y-54500D01*
X88767Y-54491D01*
X88811Y-54446D01*
X88811Y-54446D01*
X88811Y-54446D01*
X88885Y-54335D01*
X88885Y-54335D01*
X88906Y-54231D01*
X88911Y-54205D01*
X88911Y-54205D01*
X88911Y-54205D01*
X88911Y-53961D01*
X88933Y-53961D01*
X88933Y-54020D01*
X88962Y-54165D01*
X89045Y-54289D01*
X89072Y-54316D01*
X89072Y-56029D01*
X89109Y-56118D01*
X89177Y-56186D01*
X89267Y-56224D01*
X89363Y-56224D01*
X90052Y-56224D01*
X90142Y-56187D01*
X90210Y-56118D01*
X90247Y-56029D01*
X90248Y-55932D01*
X90248Y-54160D01*
X90211Y-54071D01*
X90142Y-54003D01*
X90053Y-53965D01*
X89962Y-53965D01*
X90015Y-53943D01*
X90083Y-53875D01*
X90120Y-53786D01*
X90120Y-53689D01*
X90120Y-53489D01*
X90083Y-53399D01*
X90015Y-53331D01*
X89926Y-53294D01*
X89829Y-53294D01*
X89789Y-53294D01*
X89710Y-53278D01*
X89481Y-53278D01*
X89481Y-53277D01*
X89481Y-53211D01*
X89528Y-53230D01*
X89625Y-53230D01*
X89925Y-53230D01*
X90015Y-53193D01*
X90083Y-53125D01*
X90120Y-53036D01*
X90120Y-52939D01*
X90120Y-52739D01*
X90083Y-52649D01*
X90015Y-52581D01*
X89926Y-52544D01*
X89829Y-52544D01*
X89529Y-52544D01*
X89477Y-52565D01*
X89262Y-52565D01*
X89428Y-52399D01*
X89450Y-52421D01*
X89582Y-52476D01*
X89726Y-52476D01*
X89859Y-52421D01*
X89961Y-52319D01*
X90016Y-52187D01*
X90016Y-52181D01*
X90641Y-51556D01*
X90696Y-51556D01*
X90829Y-51501D01*
X90931Y-51399D01*
X90986Y-51267D01*
X90986Y-51182D01*
X90989Y-51181D01*
X91046Y-51124D01*
X91125Y-51203D01*
X91113Y-51215D01*
X91097Y-51255D01*
X90308Y-52043D01*
X90303Y-52043D01*
X90170Y-52098D01*
X90068Y-52200D01*
X90013Y-52332D01*
X90013Y-52476D01*
X90068Y-52609D01*
X90170Y-52711D01*
X90302Y-52766D01*
X90334Y-52766D01*
X90334Y-52835D01*
X90334Y-53035D01*
X90350Y-53075D01*
X90334Y-53114D01*
X90334Y-53151D01*
X90395Y-53212D01*
X90484Y-53212D01*
X90528Y-53230D01*
X90625Y-53230D01*
X90792Y-53230D01*
X90792Y-53259D01*
X90777Y-53256D01*
X90727Y-53256D01*
X90581Y-53285D01*
X90568Y-53294D01*
X90529Y-53294D01*
X90484Y-53312D01*
X90395Y-53312D01*
X90334Y-53373D01*
X90334Y-53410D01*
X90350Y-53449D01*
X90334Y-53488D01*
X90334Y-53585D01*
X90334Y-53785D01*
X90371Y-53875D01*
X90439Y-53943D01*
X90519Y-53977D01*
X90457Y-54002D01*
X90389Y-54071D01*
X90352Y-54160D01*
X90351Y-54257D01*
X90351Y-56029D01*
X90388Y-56118D01*
X90457Y-56186D01*
X90546Y-56224D01*
X90643Y-56224D01*
X91332Y-56224D01*
X91421Y-56187D01*
X91490Y-56118D01*
X91527Y-56029D01*
X91527Y-55932D01*
X91527Y-54756D01*
X91603Y-54756D01*
X91625Y-54777D01*
X91714Y-54815D01*
X91797Y-54815D01*
X91761Y-54901D01*
X91761Y-54998D01*
X91761Y-55107D01*
X91822Y-55168D01*
X92123Y-55168D01*
X92123Y-55160D01*
X92236Y-55160D01*
X92236Y-55168D01*
X92244Y-55168D01*
X92244Y-55281D01*
X92236Y-55281D01*
X92236Y-55682D01*
X92297Y-55743D01*
X92403Y-55743D01*
X92492Y-55706D01*
X92555Y-55644D01*
X92616Y-55706D01*
X92706Y-55743D01*
X92803Y-55743D01*
X93153Y-55743D01*
X93242Y-55706D01*
X93311Y-55638D01*
X93348Y-55548D01*
X93348Y-55512D01*
X93416Y-55466D01*
X93481Y-55402D01*
X93481Y-55402D01*
X93481Y-55402D01*
X93555Y-55291D01*
X93555Y-55291D01*
X93576Y-55186D01*
X93581Y-55160D01*
X93581Y-55160D01*
X93581Y-55160D01*
X93581Y-54731D01*
X93603Y-54709D01*
X93605Y-54703D01*
X93670Y-54690D01*
X93781Y-54616D01*
X93786Y-54611D01*
X93879Y-54611D01*
X93984Y-54655D01*
X94097Y-54655D01*
X94097Y-57296D01*
X94097Y-57296D01*
G37*
G54D44*
X94097Y-57296D02*
X93952Y-57236D01*
X93736Y-57236D01*
X93536Y-57319D01*
X93383Y-57471D01*
X93344Y-57567D01*
X93305Y-57472D01*
X93152Y-57319D01*
X92952Y-57236D01*
X92736Y-57236D01*
X92536Y-57319D01*
X92383Y-57471D01*
X92344Y-57567D01*
X92305Y-57472D01*
X92152Y-57319D01*
X92123Y-57307D01*
X92123Y-55682D01*
X92123Y-55281D01*
X91822Y-55281D01*
X91761Y-55342D01*
X91761Y-55451D01*
X91761Y-55548D01*
X91798Y-55638D01*
X91867Y-55706D01*
X91956Y-55743D01*
X92062Y-55743D01*
X92123Y-55682D01*
X92123Y-57307D01*
X91952Y-57236D01*
X91736Y-57236D01*
X91536Y-57319D01*
X91383Y-57471D01*
X91344Y-57567D01*
X91305Y-57472D01*
X91152Y-57319D01*
X90952Y-57236D01*
X90736Y-57236D01*
X90536Y-57319D01*
X90383Y-57471D01*
X90344Y-57567D01*
X90305Y-57472D01*
X90152Y-57319D01*
X89952Y-57236D01*
X89736Y-57236D01*
X89536Y-57319D01*
X89383Y-57471D01*
X89301Y-57671D01*
X89300Y-57887D01*
X89383Y-58087D01*
X89536Y-58240D01*
X89631Y-58279D01*
X89536Y-58319D01*
X89383Y-58471D01*
X89301Y-58671D01*
X89300Y-58837D01*
X88387Y-58837D01*
X88387Y-58672D01*
X88305Y-58472D01*
X88152Y-58319D01*
X87952Y-58236D01*
X87736Y-58236D01*
X87536Y-58319D01*
X87383Y-58471D01*
X87347Y-58559D01*
X87323Y-58501D01*
X87230Y-58473D01*
X87150Y-58553D01*
X87150Y-58393D01*
X87122Y-58300D01*
X86917Y-58230D01*
X86702Y-58244D01*
X86566Y-58300D01*
X86537Y-58393D01*
X86844Y-58699D01*
X87150Y-58393D01*
X87150Y-58553D01*
X86924Y-58780D01*
X86929Y-58785D01*
X86878Y-58837D01*
X86810Y-58837D01*
X86758Y-58785D01*
X86764Y-58780D01*
X86457Y-58473D01*
X86365Y-58501D01*
X86346Y-58557D01*
X86323Y-58501D01*
X86230Y-58473D01*
X86150Y-58553D01*
X86150Y-58393D01*
X86122Y-58300D01*
X85917Y-58230D01*
X85702Y-58244D01*
X85566Y-58300D01*
X85537Y-58393D01*
X85844Y-58699D01*
X86150Y-58393D01*
X86150Y-58553D01*
X85924Y-58780D01*
X85929Y-58785D01*
X85878Y-58837D01*
X85810Y-58837D01*
X85758Y-58785D01*
X85764Y-58780D01*
X85457Y-58473D01*
X85365Y-58501D01*
X85343Y-58565D01*
X85315Y-58497D01*
X86002Y-57810D01*
X87920Y-57810D01*
X87920Y-57810D01*
X88088Y-57776D01*
X88231Y-57681D01*
X88531Y-57381D01*
X88531Y-57381D01*
X88626Y-57238D01*
X88658Y-57076D01*
X88658Y-57076D01*
X88701Y-57076D01*
X88790Y-57039D01*
X88859Y-56971D01*
X88896Y-56881D01*
X88896Y-56784D01*
X88896Y-56154D01*
X88859Y-56065D01*
X88791Y-55996D01*
X88701Y-55959D01*
X88604Y-55959D01*
X87738Y-55959D01*
X87649Y-55996D01*
X87580Y-56064D01*
X87543Y-56154D01*
X87543Y-56251D01*
X87543Y-56881D01*
X87563Y-56929D01*
X85820Y-56929D01*
X85651Y-56963D01*
X85508Y-57058D01*
X84835Y-57732D01*
X84601Y-57498D01*
X84458Y-57403D01*
X84290Y-57369D01*
X82246Y-57369D01*
X82246Y-56874D01*
X82209Y-56785D01*
X82141Y-56716D01*
X82051Y-56679D01*
X81954Y-56679D01*
X81088Y-56679D01*
X80999Y-56716D01*
X80930Y-56784D01*
X80893Y-56874D01*
X80893Y-56971D01*
X80893Y-57601D01*
X80930Y-57690D01*
X80998Y-57759D01*
X81088Y-57796D01*
X81185Y-57796D01*
X81235Y-57796D01*
X81258Y-57831D01*
X81548Y-58121D01*
X81548Y-58121D01*
X81691Y-58216D01*
X81859Y-58250D01*
X81860Y-58250D01*
X82703Y-58250D01*
X82536Y-58319D01*
X82383Y-58471D01*
X82301Y-58671D01*
X82300Y-58837D01*
X80913Y-58837D01*
X80642Y-58566D01*
X80642Y-54826D01*
X80691Y-54876D01*
X80781Y-54913D01*
X80878Y-54913D01*
X81478Y-54913D01*
X81567Y-54876D01*
X81608Y-54835D01*
X81608Y-54857D01*
X81549Y-54999D01*
X81549Y-55159D01*
X81559Y-55183D01*
X81088Y-55183D01*
X80999Y-55220D01*
X80930Y-55288D01*
X80893Y-55378D01*
X80893Y-55475D01*
X80893Y-56105D01*
X80930Y-56194D01*
X80998Y-56263D01*
X81088Y-56300D01*
X81185Y-56300D01*
X82051Y-56300D01*
X82140Y-56263D01*
X82189Y-56214D01*
X82622Y-56647D01*
X82759Y-56738D01*
X82920Y-56770D01*
X83446Y-56770D01*
X83501Y-56793D01*
X83598Y-56793D01*
X84398Y-56793D01*
X84453Y-56770D01*
X84500Y-56770D01*
X84625Y-56895D01*
X84664Y-56990D01*
X84794Y-57119D01*
X84963Y-57189D01*
X85146Y-57189D01*
X85315Y-57120D01*
X85444Y-56990D01*
X85514Y-56821D01*
X85514Y-56638D01*
X85445Y-56469D01*
X85315Y-56340D01*
X85220Y-56300D01*
X84972Y-56052D01*
X84835Y-55961D01*
X84675Y-55929D01*
X84453Y-55929D01*
X84398Y-55906D01*
X84301Y-55906D01*
X83501Y-55906D01*
X83446Y-55929D01*
X83094Y-55929D01*
X82609Y-55444D01*
X82526Y-55389D01*
X82574Y-55409D01*
X82912Y-55747D01*
X83049Y-55838D01*
X83210Y-55870D01*
X83446Y-55870D01*
X83501Y-55893D01*
X83598Y-55893D01*
X84398Y-55893D01*
X84487Y-55856D01*
X84556Y-55788D01*
X84593Y-55698D01*
X84593Y-55601D01*
X84593Y-55201D01*
X84593Y-54798D01*
X84593Y-54667D01*
X84532Y-54606D01*
X84006Y-54606D01*
X84006Y-54932D01*
X84067Y-54993D01*
X84301Y-54993D01*
X84398Y-54993D01*
X84488Y-54956D01*
X84556Y-54887D01*
X84593Y-54798D01*
X84593Y-55201D01*
X84556Y-55112D01*
X84488Y-55043D01*
X84398Y-55006D01*
X84301Y-55006D01*
X83893Y-55006D01*
X83893Y-54932D01*
X83893Y-54606D01*
X83367Y-54606D01*
X83306Y-54667D01*
X83306Y-54798D01*
X83343Y-54887D01*
X83411Y-54956D01*
X83501Y-54993D01*
X83598Y-54993D01*
X83832Y-54993D01*
X83893Y-54932D01*
X83893Y-55006D01*
X83501Y-55006D01*
X83446Y-55029D01*
X83384Y-55029D01*
X83169Y-54814D01*
X83130Y-54719D01*
X83000Y-54590D01*
X82831Y-54520D01*
X82648Y-54520D01*
X82479Y-54589D01*
X82350Y-54719D01*
X82292Y-54858D01*
X82291Y-54857D01*
X82291Y-54351D01*
X82301Y-54351D01*
X82434Y-54296D01*
X82488Y-54242D01*
X83331Y-54242D01*
X83306Y-54301D01*
X83306Y-54432D01*
X83367Y-54493D01*
X83893Y-54493D01*
X83893Y-54485D01*
X84006Y-54485D01*
X84006Y-54493D01*
X84532Y-54493D01*
X84593Y-54432D01*
X84593Y-54301D01*
X84556Y-54212D01*
X84520Y-54176D01*
X84526Y-54176D01*
X84534Y-54173D01*
X84543Y-54194D01*
X84645Y-54296D01*
X84777Y-54351D01*
X84921Y-54351D01*
X84966Y-54332D01*
X85082Y-54381D01*
X85226Y-54381D01*
X85309Y-54347D01*
X85402Y-54386D01*
X85546Y-54386D01*
X85595Y-54366D01*
X85605Y-54376D01*
X85737Y-54431D01*
X85881Y-54431D01*
X86014Y-54376D01*
X86069Y-54321D01*
X86234Y-54486D01*
X86101Y-54486D01*
X86012Y-54523D01*
X85943Y-54591D01*
X85906Y-54681D01*
X85906Y-54778D01*
X85906Y-56218D01*
X85943Y-56307D01*
X86011Y-56376D01*
X86101Y-56413D01*
X86198Y-56413D01*
X86998Y-56413D01*
X87087Y-56376D01*
X87156Y-56308D01*
X87193Y-56218D01*
X87193Y-56121D01*
X87193Y-54681D01*
X87184Y-54660D01*
X87219Y-54646D01*
X87321Y-54544D01*
X87376Y-54412D01*
X87376Y-54409D01*
X87419Y-54391D01*
X87521Y-54289D01*
X87572Y-54165D01*
X87619Y-54146D01*
X87712Y-54053D01*
X87796Y-54088D01*
X87852Y-54088D01*
X87913Y-54027D01*
X87913Y-53676D01*
X87905Y-53676D01*
X87905Y-53563D01*
X87913Y-53563D01*
X87913Y-53212D01*
X87852Y-53151D01*
X87796Y-53151D01*
X87707Y-53188D01*
X87638Y-53256D01*
X87601Y-53346D01*
X87601Y-53443D01*
X87601Y-53502D01*
X87662Y-53563D01*
X87649Y-53563D01*
X87619Y-53533D01*
X87516Y-53490D01*
X87473Y-53387D01*
X87496Y-53332D01*
X87496Y-53323D01*
X87549Y-53301D01*
X87651Y-53199D01*
X87706Y-53067D01*
X87706Y-53052D01*
X88530Y-53052D01*
X88650Y-53052D01*
X88762Y-53029D01*
X88779Y-53070D01*
X88758Y-53119D01*
X88758Y-53158D01*
X88743Y-53151D01*
X88646Y-53151D01*
X88396Y-53151D01*
X88307Y-53188D01*
X88270Y-53225D01*
X88232Y-53188D01*
X88143Y-53151D01*
X88087Y-53151D01*
X88026Y-53212D01*
X88026Y-53563D01*
X88034Y-53563D01*
X88034Y-53676D01*
X88026Y-53676D01*
X88026Y-54027D01*
X88087Y-54088D01*
X88143Y-54088D01*
X88228Y-54053D01*
X88228Y-54063D01*
X87978Y-54313D01*
X87904Y-54424D01*
X87896Y-54463D01*
X87738Y-54463D01*
X87649Y-54500D01*
X87580Y-54568D01*
X87543Y-54658D01*
X87543Y-54755D01*
X87543Y-55385D01*
X87580Y-55474D01*
X87648Y-55543D01*
X87738Y-55580D01*
X87835Y-55580D01*
X88701Y-55580D01*
X88790Y-55543D01*
X88859Y-55475D01*
X88896Y-55385D01*
X88896Y-55288D01*
X88896Y-54658D01*
X88859Y-54569D01*
X88791Y-54500D01*
X88767Y-54491D01*
X88811Y-54446D01*
X88811Y-54446D01*
X88811Y-54446D01*
X88885Y-54335D01*
X88885Y-54335D01*
X88906Y-54231D01*
X88911Y-54205D01*
X88911Y-54205D01*
X88911Y-54205D01*
X88911Y-53961D01*
X88933Y-53961D01*
X88933Y-54020D01*
X88962Y-54165D01*
X89045Y-54289D01*
X89072Y-54316D01*
X89072Y-56029D01*
X89109Y-56118D01*
X89177Y-56186D01*
X89267Y-56224D01*
X89363Y-56224D01*
X90052Y-56224D01*
X90142Y-56187D01*
X90210Y-56118D01*
X90247Y-56029D01*
X90248Y-55932D01*
X90248Y-54160D01*
X90211Y-54071D01*
X90142Y-54003D01*
X90053Y-53965D01*
X89962Y-53965D01*
X90015Y-53943D01*
X90083Y-53875D01*
X90120Y-53786D01*
X90120Y-53689D01*
X90120Y-53489D01*
X90083Y-53399D01*
X90015Y-53331D01*
X89926Y-53294D01*
X89829Y-53294D01*
X89789Y-53294D01*
X89710Y-53278D01*
X89481Y-53278D01*
X89481Y-53277D01*
X89481Y-53211D01*
X89528Y-53230D01*
X89625Y-53230D01*
X89925Y-53230D01*
X90015Y-53193D01*
X90083Y-53125D01*
X90120Y-53036D01*
X90120Y-52939D01*
X90120Y-52739D01*
X90083Y-52649D01*
X90015Y-52581D01*
X89926Y-52544D01*
X89829Y-52544D01*
X89529Y-52544D01*
X89477Y-52565D01*
X89262Y-52565D01*
X89428Y-52399D01*
X89450Y-52421D01*
X89582Y-52476D01*
X89726Y-52476D01*
X89859Y-52421D01*
X89961Y-52319D01*
X90016Y-52187D01*
X90016Y-52181D01*
X90641Y-51556D01*
X90696Y-51556D01*
X90829Y-51501D01*
X90931Y-51399D01*
X90986Y-51267D01*
X90986Y-51182D01*
X90989Y-51181D01*
X91046Y-51124D01*
X91125Y-51203D01*
X91113Y-51215D01*
X91097Y-51255D01*
X90308Y-52043D01*
X90303Y-52043D01*
X90170Y-52098D01*
X90068Y-52200D01*
X90013Y-52332D01*
X90013Y-52476D01*
X90068Y-52609D01*
X90170Y-52711D01*
X90302Y-52766D01*
X90334Y-52766D01*
X90334Y-52835D01*
X90334Y-53035D01*
X90350Y-53075D01*
X90334Y-53114D01*
X90334Y-53151D01*
X90395Y-53212D01*
X90484Y-53212D01*
X90528Y-53230D01*
X90625Y-53230D01*
X90792Y-53230D01*
X90792Y-53259D01*
X90777Y-53256D01*
X90727Y-53256D01*
X90581Y-53285D01*
X90568Y-53294D01*
X90529Y-53294D01*
X90484Y-53312D01*
X90395Y-53312D01*
X90334Y-53373D01*
X90334Y-53410D01*
X90350Y-53449D01*
X90334Y-53488D01*
X90334Y-53585D01*
X90334Y-53785D01*
X90371Y-53875D01*
X90439Y-53943D01*
X90519Y-53977D01*
X90457Y-54002D01*
X90389Y-54071D01*
X90352Y-54160D01*
X90351Y-54257D01*
X90351Y-56029D01*
X90388Y-56118D01*
X90457Y-56186D01*
X90546Y-56224D01*
X90643Y-56224D01*
X91332Y-56224D01*
X91421Y-56187D01*
X91490Y-56118D01*
X91527Y-56029D01*
X91527Y-55932D01*
X91527Y-54756D01*
X91603Y-54756D01*
X91625Y-54777D01*
X91714Y-54815D01*
X91797Y-54815D01*
X91761Y-54901D01*
X91761Y-54998D01*
X91761Y-55107D01*
X91822Y-55168D01*
X92123Y-55168D01*
X92123Y-55160D01*
X92236Y-55160D01*
X92236Y-55168D01*
X92244Y-55168D01*
X92244Y-55281D01*
X92236Y-55281D01*
X92236Y-55682D01*
X92297Y-55743D01*
X92403Y-55743D01*
X92492Y-55706D01*
X92555Y-55644D01*
X92616Y-55706D01*
X92706Y-55743D01*
X92803Y-55743D01*
X93153Y-55743D01*
X93242Y-55706D01*
X93311Y-55638D01*
X93348Y-55548D01*
X93348Y-55512D01*
X93416Y-55466D01*
X93481Y-55402D01*
X93481Y-55402D01*
X93481Y-55402D01*
X93555Y-55291D01*
X93555Y-55291D01*
X93576Y-55186D01*
X93581Y-55160D01*
X93581Y-55160D01*
X93581Y-55160D01*
X93581Y-54731D01*
X93603Y-54709D01*
X93605Y-54703D01*
X93670Y-54690D01*
X93781Y-54616D01*
X93786Y-54611D01*
X93879Y-54611D01*
X93984Y-54655D01*
X94097Y-54655D01*
X94097Y-57296D01*
G54D10*
G36*
X94122Y-46111D02*
X94038Y-46195D01*
X93983Y-46327D01*
X93983Y-46471D01*
X94002Y-46517D01*
X93874Y-46517D01*
X93884Y-46506D01*
X93921Y-46417D01*
X93921Y-46320D01*
X93921Y-45572D01*
X93921Y-45060D01*
X93921Y-44312D01*
X93884Y-44223D01*
X93816Y-44154D01*
X93727Y-44117D01*
X93630Y-44117D01*
X93118Y-44117D01*
X93029Y-44154D01*
X93018Y-44165D01*
X93018Y-44165D01*
X93018Y-44113D01*
X92957Y-44113D01*
X93018Y-44052D01*
X93018Y-43993D01*
X93018Y-43896D01*
X92981Y-43806D01*
X92912Y-43738D01*
X92823Y-43701D01*
X92767Y-43701D01*
X92706Y-43762D01*
X92706Y-44113D01*
X92714Y-44113D01*
X92714Y-44226D01*
X92706Y-44226D01*
X92706Y-44577D01*
X92767Y-44638D01*
X92823Y-44638D01*
X92912Y-44601D01*
X92923Y-44590D01*
X92923Y-45157D01*
X92960Y-45246D01*
X93028Y-45315D01*
X93118Y-45352D01*
X93214Y-45352D01*
X93726Y-45352D01*
X93816Y-45315D01*
X93884Y-45247D01*
X93921Y-45157D01*
X93921Y-45060D01*
X93921Y-45572D01*
X93884Y-45483D01*
X93816Y-45414D01*
X93727Y-45377D01*
X93630Y-45377D01*
X93118Y-45377D01*
X93029Y-45414D01*
X92960Y-45482D01*
X92923Y-45572D01*
X92923Y-45669D01*
X92923Y-46094D01*
X92912Y-46083D01*
X92823Y-46046D01*
X92767Y-46046D01*
X92706Y-46107D01*
X92706Y-46458D01*
X92714Y-46458D01*
X92714Y-46571D01*
X92706Y-46571D01*
X92706Y-46922D01*
X92767Y-46983D01*
X92823Y-46983D01*
X92912Y-46946D01*
X92981Y-46878D01*
X93018Y-46788D01*
X93018Y-46691D01*
X93018Y-46632D01*
X92957Y-46571D01*
X93018Y-46571D01*
X93018Y-46564D01*
X93028Y-46575D01*
X93118Y-46612D01*
X93214Y-46612D01*
X93311Y-46612D01*
X93263Y-46660D01*
X93208Y-46792D01*
X93208Y-46936D01*
X93260Y-47062D01*
X93165Y-47062D01*
X93049Y-47085D01*
X93018Y-47106D01*
X92951Y-47151D01*
X92951Y-47151D01*
X92951Y-47151D01*
X92641Y-47461D01*
X92638Y-47465D01*
X92540Y-47400D01*
X92425Y-47377D01*
X91690Y-47377D01*
X89771Y-47377D01*
X89830Y-47235D01*
X89830Y-47075D01*
X89769Y-46928D01*
X89719Y-46877D01*
X89875Y-46722D01*
X90411Y-46722D01*
X90415Y-46726D01*
X90547Y-46781D01*
X90691Y-46781D01*
X90824Y-46726D01*
X90926Y-46624D01*
X90934Y-46604D01*
X90952Y-46612D01*
X91049Y-46612D01*
X91059Y-46612D01*
X91203Y-46756D01*
X91203Y-46756D01*
X91314Y-46830D01*
X91445Y-46856D01*
X91709Y-46856D01*
X91718Y-46877D01*
X91786Y-46946D01*
X91876Y-46983D01*
X91973Y-46983D01*
X92223Y-46983D01*
X92312Y-46946D01*
X92350Y-46909D01*
X92387Y-46946D01*
X92476Y-46983D01*
X92532Y-46983D01*
X92593Y-46922D01*
X92593Y-46571D01*
X92585Y-46571D01*
X92585Y-46458D01*
X92593Y-46458D01*
X92593Y-46107D01*
X92532Y-46046D01*
X92476Y-46046D01*
X92387Y-46083D01*
X92349Y-46120D01*
X92313Y-46083D01*
X92223Y-46046D01*
X92126Y-46046D01*
X91876Y-46046D01*
X91787Y-46083D01*
X91756Y-46114D01*
X91756Y-45572D01*
X91719Y-45483D01*
X91651Y-45414D01*
X91561Y-45377D01*
X91465Y-45377D01*
X90953Y-45377D01*
X90878Y-45408D01*
X90415Y-45408D01*
X90406Y-45387D01*
X90386Y-45367D01*
X90421Y-45333D01*
X90429Y-45311D01*
X90859Y-45311D01*
X90863Y-45315D01*
X90952Y-45352D01*
X91049Y-45352D01*
X91561Y-45352D01*
X91650Y-45315D01*
X91719Y-45247D01*
X91756Y-45157D01*
X91756Y-45060D01*
X91756Y-44570D01*
X91786Y-44601D01*
X91876Y-44638D01*
X91973Y-44638D01*
X92223Y-44638D01*
X92312Y-44601D01*
X92350Y-44564D01*
X92387Y-44601D01*
X92476Y-44638D01*
X92532Y-44638D01*
X92593Y-44577D01*
X92593Y-44226D01*
X92585Y-44226D01*
X92585Y-44113D01*
X92593Y-44113D01*
X92593Y-43762D01*
X92532Y-43701D01*
X92476Y-43701D01*
X92387Y-43738D01*
X92349Y-43775D01*
X92313Y-43738D01*
X92223Y-43701D01*
X92126Y-43701D01*
X91876Y-43701D01*
X91787Y-43738D01*
X91718Y-43806D01*
X91710Y-43828D01*
X91405Y-43828D01*
X91274Y-43854D01*
X91163Y-43928D01*
X91163Y-43928D01*
X91015Y-44076D01*
X90987Y-44117D01*
X90953Y-44117D01*
X90863Y-44154D01*
X90795Y-44223D01*
X90758Y-44312D01*
X90758Y-44409D01*
X90758Y-44628D01*
X90430Y-44628D01*
X90421Y-44607D01*
X90353Y-44538D01*
X90263Y-44501D01*
X90166Y-44501D01*
X89916Y-44501D01*
X89827Y-44538D01*
X89789Y-44575D01*
X89753Y-44538D01*
X89663Y-44501D01*
X89566Y-44501D01*
X89316Y-44501D01*
X89227Y-44538D01*
X89158Y-44606D01*
X89133Y-44667D01*
X88518Y-44667D01*
X88518Y-44311D01*
X88481Y-44222D01*
X88437Y-44178D01*
X88437Y-43577D01*
X88578Y-43436D01*
X88658Y-43244D01*
X88658Y-43036D01*
X88578Y-42843D01*
X88431Y-42696D01*
X88427Y-42694D01*
X88427Y-42061D01*
X88456Y-42033D01*
X88493Y-41943D01*
X88493Y-41846D01*
X88493Y-41396D01*
X88456Y-41307D01*
X88388Y-41238D01*
X88298Y-41201D01*
X88201Y-41201D01*
X87951Y-41201D01*
X87862Y-41238D01*
X87825Y-41275D01*
X87787Y-41238D01*
X87698Y-41201D01*
X87642Y-41201D01*
X87581Y-41262D01*
X87581Y-41613D01*
X87589Y-41613D01*
X87589Y-41726D01*
X87581Y-41726D01*
X87581Y-42077D01*
X87642Y-42138D01*
X87698Y-42138D01*
X87787Y-42101D01*
X87822Y-42066D01*
X87822Y-42712D01*
X87691Y-42843D01*
X87611Y-43035D01*
X87611Y-43243D01*
X87691Y-43436D01*
X87832Y-43577D01*
X87832Y-44173D01*
X87813Y-44153D01*
X87723Y-44116D01*
X87626Y-44116D01*
X87468Y-44116D01*
X87468Y-42077D01*
X87468Y-41726D01*
X87468Y-41613D01*
X87468Y-41262D01*
X87407Y-41201D01*
X87351Y-41201D01*
X87262Y-41238D01*
X87193Y-41306D01*
X87156Y-41396D01*
X87156Y-41493D01*
X87156Y-41552D01*
X87217Y-41613D01*
X87468Y-41613D01*
X87468Y-41726D01*
X87217Y-41726D01*
X87156Y-41787D01*
X87156Y-41846D01*
X87156Y-41943D01*
X87193Y-42033D01*
X87262Y-42101D01*
X87351Y-42138D01*
X87407Y-42138D01*
X87468Y-42077D01*
X87468Y-44116D01*
X87376Y-44116D01*
X87287Y-44153D01*
X87218Y-44221D01*
X87181Y-44311D01*
X87181Y-44408D01*
X87181Y-44858D01*
X87218Y-44947D01*
X87247Y-44976D01*
X87247Y-45339D01*
X87142Y-45444D01*
X87118Y-45420D01*
X87118Y-41841D01*
X87118Y-41488D01*
X87118Y-41391D01*
X87081Y-41301D01*
X87012Y-41233D01*
X86923Y-41196D01*
X86867Y-41196D01*
X86806Y-41257D01*
X86806Y-41608D01*
X87057Y-41608D01*
X87118Y-41547D01*
X87118Y-41488D01*
X87118Y-41841D01*
X87118Y-41782D01*
X87057Y-41721D01*
X86806Y-41721D01*
X86806Y-42072D01*
X86867Y-42133D01*
X86923Y-42133D01*
X87012Y-42096D01*
X87081Y-42028D01*
X87118Y-41938D01*
X87118Y-41841D01*
X87118Y-45420D01*
X87042Y-45344D01*
X87042Y-45006D01*
X87071Y-44978D01*
X87108Y-44888D01*
X87108Y-44791D01*
X87108Y-44341D01*
X87071Y-44252D01*
X87003Y-44183D01*
X86913Y-44146D01*
X86816Y-44146D01*
X86566Y-44146D01*
X86477Y-44183D01*
X86439Y-44220D01*
X86437Y-44218D01*
X86437Y-43577D01*
X86578Y-43436D01*
X86658Y-43244D01*
X86658Y-43036D01*
X86578Y-42843D01*
X86452Y-42717D01*
X86452Y-42061D01*
X86487Y-42096D01*
X86576Y-42133D01*
X86632Y-42133D01*
X86693Y-42072D01*
X86693Y-41721D01*
X86685Y-41721D01*
X86685Y-41608D01*
X86693Y-41608D01*
X86693Y-41257D01*
X86632Y-41196D01*
X86576Y-41196D01*
X86487Y-41233D01*
X86449Y-41270D01*
X86413Y-41233D01*
X86323Y-41196D01*
X86226Y-41196D01*
X85976Y-41196D01*
X85887Y-41233D01*
X85818Y-41301D01*
X85781Y-41391D01*
X85781Y-41488D01*
X85781Y-41938D01*
X85818Y-42027D01*
X85847Y-42056D01*
X85847Y-42692D01*
X85838Y-42696D01*
X85691Y-42843D01*
X85637Y-42973D01*
X85637Y-40814D01*
X86128Y-40323D01*
X86592Y-40323D01*
X86681Y-40286D01*
X86750Y-40218D01*
X86787Y-40128D01*
X86787Y-40031D01*
X86787Y-39702D01*
X87300Y-39702D01*
X87300Y-39887D01*
X87383Y-40087D01*
X87536Y-40240D01*
X87735Y-40323D01*
X87951Y-40323D01*
X88151Y-40240D01*
X88304Y-40088D01*
X88344Y-39992D01*
X88383Y-40087D01*
X88536Y-40240D01*
X88735Y-40323D01*
X88951Y-40323D01*
X88957Y-40321D01*
X90480Y-41843D01*
X90578Y-41909D01*
X90694Y-41932D01*
X92204Y-41932D01*
X94122Y-43850D01*
X94122Y-46111D01*
X94122Y-46111D01*
G37*
G54D44*
X94122Y-46111D02*
X94038Y-46195D01*
X93983Y-46327D01*
X93983Y-46471D01*
X94002Y-46517D01*
X93874Y-46517D01*
X93884Y-46506D01*
X93921Y-46417D01*
X93921Y-46320D01*
X93921Y-45572D01*
X93921Y-45060D01*
X93921Y-44312D01*
X93884Y-44223D01*
X93816Y-44154D01*
X93727Y-44117D01*
X93630Y-44117D01*
X93118Y-44117D01*
X93029Y-44154D01*
X93018Y-44165D01*
X93018Y-44165D01*
X93018Y-44113D01*
X92957Y-44113D01*
X93018Y-44052D01*
X93018Y-43993D01*
X93018Y-43896D01*
X92981Y-43806D01*
X92912Y-43738D01*
X92823Y-43701D01*
X92767Y-43701D01*
X92706Y-43762D01*
X92706Y-44113D01*
X92714Y-44113D01*
X92714Y-44226D01*
X92706Y-44226D01*
X92706Y-44577D01*
X92767Y-44638D01*
X92823Y-44638D01*
X92912Y-44601D01*
X92923Y-44590D01*
X92923Y-45157D01*
X92960Y-45246D01*
X93028Y-45315D01*
X93118Y-45352D01*
X93214Y-45352D01*
X93726Y-45352D01*
X93816Y-45315D01*
X93884Y-45247D01*
X93921Y-45157D01*
X93921Y-45060D01*
X93921Y-45572D01*
X93884Y-45483D01*
X93816Y-45414D01*
X93727Y-45377D01*
X93630Y-45377D01*
X93118Y-45377D01*
X93029Y-45414D01*
X92960Y-45482D01*
X92923Y-45572D01*
X92923Y-45669D01*
X92923Y-46094D01*
X92912Y-46083D01*
X92823Y-46046D01*
X92767Y-46046D01*
X92706Y-46107D01*
X92706Y-46458D01*
X92714Y-46458D01*
X92714Y-46571D01*
X92706Y-46571D01*
X92706Y-46922D01*
X92767Y-46983D01*
X92823Y-46983D01*
X92912Y-46946D01*
X92981Y-46878D01*
X93018Y-46788D01*
X93018Y-46691D01*
X93018Y-46632D01*
X92957Y-46571D01*
X93018Y-46571D01*
X93018Y-46564D01*
X93028Y-46575D01*
X93118Y-46612D01*
X93214Y-46612D01*
X93311Y-46612D01*
X93263Y-46660D01*
X93208Y-46792D01*
X93208Y-46936D01*
X93260Y-47062D01*
X93165Y-47062D01*
X93049Y-47085D01*
X93018Y-47106D01*
X92951Y-47151D01*
X92951Y-47151D01*
X92951Y-47151D01*
X92641Y-47461D01*
X92638Y-47465D01*
X92540Y-47400D01*
X92425Y-47377D01*
X91690Y-47377D01*
X89771Y-47377D01*
X89830Y-47235D01*
X89830Y-47075D01*
X89769Y-46928D01*
X89719Y-46877D01*
X89875Y-46722D01*
X90411Y-46722D01*
X90415Y-46726D01*
X90547Y-46781D01*
X90691Y-46781D01*
X90824Y-46726D01*
X90926Y-46624D01*
X90934Y-46604D01*
X90952Y-46612D01*
X91049Y-46612D01*
X91059Y-46612D01*
X91203Y-46756D01*
X91203Y-46756D01*
X91314Y-46830D01*
X91445Y-46856D01*
X91709Y-46856D01*
X91718Y-46877D01*
X91786Y-46946D01*
X91876Y-46983D01*
X91973Y-46983D01*
X92223Y-46983D01*
X92312Y-46946D01*
X92350Y-46909D01*
X92387Y-46946D01*
X92476Y-46983D01*
X92532Y-46983D01*
X92593Y-46922D01*
X92593Y-46571D01*
X92585Y-46571D01*
X92585Y-46458D01*
X92593Y-46458D01*
X92593Y-46107D01*
X92532Y-46046D01*
X92476Y-46046D01*
X92387Y-46083D01*
X92349Y-46120D01*
X92313Y-46083D01*
X92223Y-46046D01*
X92126Y-46046D01*
X91876Y-46046D01*
X91787Y-46083D01*
X91756Y-46114D01*
X91756Y-45572D01*
X91719Y-45483D01*
X91651Y-45414D01*
X91561Y-45377D01*
X91465Y-45377D01*
X90953Y-45377D01*
X90878Y-45408D01*
X90415Y-45408D01*
X90406Y-45387D01*
X90386Y-45367D01*
X90421Y-45333D01*
X90429Y-45311D01*
X90859Y-45311D01*
X90863Y-45315D01*
X90952Y-45352D01*
X91049Y-45352D01*
X91561Y-45352D01*
X91650Y-45315D01*
X91719Y-45247D01*
X91756Y-45157D01*
X91756Y-45060D01*
X91756Y-44570D01*
X91786Y-44601D01*
X91876Y-44638D01*
X91973Y-44638D01*
X92223Y-44638D01*
X92312Y-44601D01*
X92350Y-44564D01*
X92387Y-44601D01*
X92476Y-44638D01*
X92532Y-44638D01*
X92593Y-44577D01*
X92593Y-44226D01*
X92585Y-44226D01*
X92585Y-44113D01*
X92593Y-44113D01*
X92593Y-43762D01*
X92532Y-43701D01*
X92476Y-43701D01*
X92387Y-43738D01*
X92349Y-43775D01*
X92313Y-43738D01*
X92223Y-43701D01*
X92126Y-43701D01*
X91876Y-43701D01*
X91787Y-43738D01*
X91718Y-43806D01*
X91710Y-43828D01*
X91405Y-43828D01*
X91274Y-43854D01*
X91163Y-43928D01*
X91163Y-43928D01*
X91015Y-44076D01*
X90987Y-44117D01*
X90953Y-44117D01*
X90863Y-44154D01*
X90795Y-44223D01*
X90758Y-44312D01*
X90758Y-44409D01*
X90758Y-44628D01*
X90430Y-44628D01*
X90421Y-44607D01*
X90353Y-44538D01*
X90263Y-44501D01*
X90166Y-44501D01*
X89916Y-44501D01*
X89827Y-44538D01*
X89789Y-44575D01*
X89753Y-44538D01*
X89663Y-44501D01*
X89566Y-44501D01*
X89316Y-44501D01*
X89227Y-44538D01*
X89158Y-44606D01*
X89133Y-44667D01*
X88518Y-44667D01*
X88518Y-44311D01*
X88481Y-44222D01*
X88437Y-44178D01*
X88437Y-43577D01*
X88578Y-43436D01*
X88658Y-43244D01*
X88658Y-43036D01*
X88578Y-42843D01*
X88431Y-42696D01*
X88427Y-42694D01*
X88427Y-42061D01*
X88456Y-42033D01*
X88493Y-41943D01*
X88493Y-41846D01*
X88493Y-41396D01*
X88456Y-41307D01*
X88388Y-41238D01*
X88298Y-41201D01*
X88201Y-41201D01*
X87951Y-41201D01*
X87862Y-41238D01*
X87825Y-41275D01*
X87787Y-41238D01*
X87698Y-41201D01*
X87642Y-41201D01*
X87581Y-41262D01*
X87581Y-41613D01*
X87589Y-41613D01*
X87589Y-41726D01*
X87581Y-41726D01*
X87581Y-42077D01*
X87642Y-42138D01*
X87698Y-42138D01*
X87787Y-42101D01*
X87822Y-42066D01*
X87822Y-42712D01*
X87691Y-42843D01*
X87611Y-43035D01*
X87611Y-43243D01*
X87691Y-43436D01*
X87832Y-43577D01*
X87832Y-44173D01*
X87813Y-44153D01*
X87723Y-44116D01*
X87626Y-44116D01*
X87468Y-44116D01*
X87468Y-42077D01*
X87468Y-41726D01*
X87468Y-41613D01*
X87468Y-41262D01*
X87407Y-41201D01*
X87351Y-41201D01*
X87262Y-41238D01*
X87193Y-41306D01*
X87156Y-41396D01*
X87156Y-41493D01*
X87156Y-41552D01*
X87217Y-41613D01*
X87468Y-41613D01*
X87468Y-41726D01*
X87217Y-41726D01*
X87156Y-41787D01*
X87156Y-41846D01*
X87156Y-41943D01*
X87193Y-42033D01*
X87262Y-42101D01*
X87351Y-42138D01*
X87407Y-42138D01*
X87468Y-42077D01*
X87468Y-44116D01*
X87376Y-44116D01*
X87287Y-44153D01*
X87218Y-44221D01*
X87181Y-44311D01*
X87181Y-44408D01*
X87181Y-44858D01*
X87218Y-44947D01*
X87247Y-44976D01*
X87247Y-45339D01*
X87142Y-45444D01*
X87118Y-45420D01*
X87118Y-41841D01*
X87118Y-41488D01*
X87118Y-41391D01*
X87081Y-41301D01*
X87012Y-41233D01*
X86923Y-41196D01*
X86867Y-41196D01*
X86806Y-41257D01*
X86806Y-41608D01*
X87057Y-41608D01*
X87118Y-41547D01*
X87118Y-41488D01*
X87118Y-41841D01*
X87118Y-41782D01*
X87057Y-41721D01*
X86806Y-41721D01*
X86806Y-42072D01*
X86867Y-42133D01*
X86923Y-42133D01*
X87012Y-42096D01*
X87081Y-42028D01*
X87118Y-41938D01*
X87118Y-41841D01*
X87118Y-45420D01*
X87042Y-45344D01*
X87042Y-45006D01*
X87071Y-44978D01*
X87108Y-44888D01*
X87108Y-44791D01*
X87108Y-44341D01*
X87071Y-44252D01*
X87003Y-44183D01*
X86913Y-44146D01*
X86816Y-44146D01*
X86566Y-44146D01*
X86477Y-44183D01*
X86439Y-44220D01*
X86437Y-44218D01*
X86437Y-43577D01*
X86578Y-43436D01*
X86658Y-43244D01*
X86658Y-43036D01*
X86578Y-42843D01*
X86452Y-42717D01*
X86452Y-42061D01*
X86487Y-42096D01*
X86576Y-42133D01*
X86632Y-42133D01*
X86693Y-42072D01*
X86693Y-41721D01*
X86685Y-41721D01*
X86685Y-41608D01*
X86693Y-41608D01*
X86693Y-41257D01*
X86632Y-41196D01*
X86576Y-41196D01*
X86487Y-41233D01*
X86449Y-41270D01*
X86413Y-41233D01*
X86323Y-41196D01*
X86226Y-41196D01*
X85976Y-41196D01*
X85887Y-41233D01*
X85818Y-41301D01*
X85781Y-41391D01*
X85781Y-41488D01*
X85781Y-41938D01*
X85818Y-42027D01*
X85847Y-42056D01*
X85847Y-42692D01*
X85838Y-42696D01*
X85691Y-42843D01*
X85637Y-42973D01*
X85637Y-40814D01*
X86128Y-40323D01*
X86592Y-40323D01*
X86681Y-40286D01*
X86750Y-40218D01*
X86787Y-40128D01*
X86787Y-40031D01*
X86787Y-39702D01*
X87300Y-39702D01*
X87300Y-39887D01*
X87383Y-40087D01*
X87536Y-40240D01*
X87735Y-40323D01*
X87951Y-40323D01*
X88151Y-40240D01*
X88304Y-40088D01*
X88344Y-39992D01*
X88383Y-40087D01*
X88536Y-40240D01*
X88735Y-40323D01*
X88951Y-40323D01*
X88957Y-40321D01*
X90480Y-41843D01*
X90578Y-41909D01*
X90694Y-41932D01*
X92204Y-41932D01*
X94122Y-43850D01*
X94122Y-46111D01*
G54D10*
G36*
X94342Y-52549D02*
X94186Y-52706D01*
X94120Y-52804D01*
X94097Y-52920D01*
X94097Y-53854D01*
X93985Y-53854D01*
X93838Y-53915D01*
X93825Y-53928D01*
X93786Y-53928D01*
X93406Y-53548D01*
X93406Y-53525D01*
X93406Y-53524D01*
X93406Y-53524D01*
X93401Y-53498D01*
X93380Y-53394D01*
X93380Y-53394D01*
X93306Y-53283D01*
X93306Y-53283D01*
X92771Y-52748D01*
X92660Y-52674D01*
X92530Y-52648D01*
X92233Y-52648D01*
X92233Y-52642D01*
X92172Y-52581D01*
X91951Y-52581D01*
X91951Y-52589D01*
X91879Y-52589D01*
X91879Y-52525D01*
X91880Y-52525D01*
X91879Y-52524D01*
X91879Y-52460D01*
X91951Y-52460D01*
X91951Y-52468D01*
X92172Y-52468D01*
X92233Y-52407D01*
X92233Y-52455D01*
X92233Y-52358D01*
X92200Y-52277D01*
X92246Y-52323D01*
X92246Y-52323D01*
X92344Y-52389D01*
X92459Y-52412D01*
X92460Y-52412D01*
X93332Y-52412D01*
X93353Y-52434D01*
X93443Y-52471D01*
X93540Y-52471D01*
X94150Y-52471D01*
X94239Y-52434D01*
X94308Y-52366D01*
X94342Y-52283D01*
X94342Y-52549D01*
X94342Y-52549D01*
G37*
G54D44*
X94342Y-52549D02*
X94186Y-52706D01*
X94120Y-52804D01*
X94097Y-52920D01*
X94097Y-53854D01*
X93985Y-53854D01*
X93838Y-53915D01*
X93825Y-53928D01*
X93786Y-53928D01*
X93406Y-53548D01*
X93406Y-53525D01*
X93406Y-53524D01*
X93406Y-53524D01*
X93401Y-53498D01*
X93380Y-53394D01*
X93380Y-53394D01*
X93306Y-53283D01*
X93306Y-53283D01*
X92771Y-52748D01*
X92660Y-52674D01*
X92530Y-52648D01*
X92233Y-52648D01*
X92233Y-52642D01*
X92172Y-52581D01*
X91951Y-52581D01*
X91951Y-52589D01*
X91879Y-52589D01*
X91879Y-52525D01*
X91880Y-52525D01*
X91879Y-52524D01*
X91879Y-52460D01*
X91951Y-52460D01*
X91951Y-52468D01*
X92172Y-52468D01*
X92233Y-52407D01*
X92233Y-52455D01*
X92233Y-52358D01*
X92200Y-52277D01*
X92246Y-52323D01*
X92246Y-52323D01*
X92344Y-52389D01*
X92459Y-52412D01*
X92460Y-52412D01*
X93332Y-52412D01*
X93353Y-52434D01*
X93443Y-52471D01*
X93540Y-52471D01*
X94150Y-52471D01*
X94239Y-52434D01*
X94308Y-52366D01*
X94342Y-52283D01*
X94342Y-52549D01*
G54D10*
G36*
X94541Y-41150D02*
X94243Y-41448D01*
X94238Y-41448D01*
X94123Y-41495D01*
X94146Y-41380D01*
X94146Y-40242D01*
X94151Y-40240D01*
X94300Y-40091D01*
X94300Y-40128D01*
X94337Y-40217D01*
X94406Y-40286D01*
X94495Y-40323D01*
X94541Y-40323D01*
X94541Y-41150D01*
X94541Y-41150D01*
G37*
G54D44*
X94541Y-41150D02*
X94243Y-41448D01*
X94238Y-41448D01*
X94123Y-41495D01*
X94146Y-41380D01*
X94146Y-40242D01*
X94151Y-40240D01*
X94300Y-40091D01*
X94300Y-40128D01*
X94337Y-40217D01*
X94406Y-40286D01*
X94495Y-40323D01*
X94541Y-40323D01*
X94541Y-41150D01*
G54D10*
G36*
X98152Y-47179D02*
X98136Y-47163D01*
X98091Y-47208D01*
X98063Y-47115D01*
X97858Y-47045D01*
X97806Y-47049D01*
X97806Y-43628D01*
X97806Y-43266D01*
X97798Y-43266D01*
X97798Y-43153D01*
X97806Y-43153D01*
X97806Y-42791D01*
X97745Y-42730D01*
X97578Y-42730D01*
X97489Y-42767D01*
X97449Y-42806D01*
X97411Y-42767D01*
X97321Y-42730D01*
X97224Y-42730D01*
X96752Y-42730D01*
X96682Y-42759D01*
X96533Y-42759D01*
X96473Y-42698D01*
X96383Y-42661D01*
X96286Y-42661D01*
X95936Y-42661D01*
X95847Y-42698D01*
X95784Y-42760D01*
X95723Y-42698D01*
X95633Y-42661D01*
X95536Y-42661D01*
X95186Y-42661D01*
X95097Y-42698D01*
X95028Y-42766D01*
X95005Y-42823D01*
X94898Y-42823D01*
X94765Y-42878D01*
X94663Y-42980D01*
X94608Y-43112D01*
X94608Y-43256D01*
X94663Y-43389D01*
X94765Y-43491D01*
X94897Y-43546D01*
X95009Y-43546D01*
X95028Y-43592D01*
X95096Y-43661D01*
X95186Y-43698D01*
X95283Y-43698D01*
X95633Y-43698D01*
X95722Y-43661D01*
X95785Y-43599D01*
X95846Y-43661D01*
X95936Y-43698D01*
X96033Y-43698D01*
X96383Y-43698D01*
X96472Y-43661D01*
X96533Y-43600D01*
X96611Y-43600D01*
X96662Y-43652D01*
X96752Y-43689D01*
X96849Y-43689D01*
X97321Y-43689D01*
X97410Y-43652D01*
X97450Y-43613D01*
X97489Y-43652D01*
X97578Y-43689D01*
X97745Y-43689D01*
X97806Y-43628D01*
X97806Y-47049D01*
X97642Y-47059D01*
X97506Y-47115D01*
X97478Y-47208D01*
X97785Y-47514D01*
X97790Y-47509D01*
X97870Y-47589D01*
X97865Y-47595D01*
X97870Y-47600D01*
X97790Y-47680D01*
X97785Y-47675D01*
X97704Y-47755D01*
X97704Y-47595D01*
X97398Y-47288D01*
X97305Y-47316D01*
X97235Y-47521D01*
X97249Y-47737D01*
X97305Y-47873D01*
X97398Y-47901D01*
X97704Y-47595D01*
X97704Y-47755D01*
X97478Y-47981D01*
X97482Y-47993D01*
X97127Y-47993D01*
X97063Y-47966D01*
X96966Y-47966D01*
X96826Y-47966D01*
X96956Y-47836D01*
X96956Y-47836D01*
X96956Y-47836D01*
X97001Y-47770D01*
X97030Y-47725D01*
X97030Y-47725D01*
X97056Y-47595D01*
X97056Y-47327D01*
X97115Y-47185D01*
X97115Y-47025D01*
X97054Y-46878D01*
X96942Y-46765D01*
X96795Y-46704D01*
X96635Y-46704D01*
X96488Y-46765D01*
X96375Y-46877D01*
X96314Y-47024D01*
X96314Y-47039D01*
X96226Y-47003D01*
X96129Y-47003D01*
X95519Y-47003D01*
X95430Y-47040D01*
X95361Y-47108D01*
X95324Y-47198D01*
X95324Y-47295D01*
X95324Y-47531D01*
X95359Y-47615D01*
X95324Y-47698D01*
X95324Y-47795D01*
X95324Y-48031D01*
X95359Y-48115D01*
X95324Y-48198D01*
X95324Y-48295D01*
X95324Y-48531D01*
X95359Y-48615D01*
X95324Y-48698D01*
X95324Y-48747D01*
X95385Y-48808D01*
X95816Y-48808D01*
X95816Y-48800D01*
X95929Y-48800D01*
X95929Y-48808D01*
X95937Y-48808D01*
X95937Y-48921D01*
X95929Y-48921D01*
X95929Y-49165D01*
X95990Y-49226D01*
X96129Y-49226D01*
X96226Y-49226D01*
X96316Y-49189D01*
X96343Y-49161D01*
X96358Y-49197D01*
X96426Y-49266D01*
X96516Y-49303D01*
X96613Y-49303D01*
X96672Y-49303D01*
X96733Y-49242D01*
X96733Y-48991D01*
X96725Y-48991D01*
X96725Y-48878D01*
X96733Y-48878D01*
X96733Y-48870D01*
X96846Y-48870D01*
X96846Y-48878D01*
X97197Y-48878D01*
X97258Y-48817D01*
X97258Y-48761D01*
X97223Y-48676D01*
X97241Y-48676D01*
X97241Y-48702D01*
X97324Y-48902D01*
X97476Y-49055D01*
X97564Y-49091D01*
X97506Y-49115D01*
X97478Y-49208D01*
X97785Y-49514D01*
X97790Y-49509D01*
X97870Y-49589D01*
X97865Y-49595D01*
X97870Y-49600D01*
X97790Y-49680D01*
X97785Y-49675D01*
X97704Y-49755D01*
X97704Y-49595D01*
X97398Y-49288D01*
X97305Y-49316D01*
X97258Y-49455D01*
X97258Y-49108D01*
X97258Y-49052D01*
X97197Y-48991D01*
X96846Y-48991D01*
X96846Y-49242D01*
X96907Y-49303D01*
X96966Y-49303D01*
X97063Y-49303D01*
X97153Y-49266D01*
X97221Y-49197D01*
X97258Y-49108D01*
X97258Y-49455D01*
X97235Y-49521D01*
X97249Y-49737D01*
X97305Y-49873D01*
X97398Y-49901D01*
X97704Y-49595D01*
X97704Y-49755D01*
X97478Y-49981D01*
X97500Y-50051D01*
X97436Y-50051D01*
X97347Y-50088D01*
X97278Y-50156D01*
X97241Y-50246D01*
X97241Y-50343D01*
X97241Y-50943D01*
X97278Y-51032D01*
X97346Y-51101D01*
X97398Y-51122D01*
X97398Y-51184D01*
X97327Y-51213D01*
X97282Y-51258D01*
X97222Y-51258D01*
X97158Y-51231D01*
X97061Y-51231D01*
X96733Y-51231D01*
X96611Y-51231D01*
X96523Y-51268D01*
X96471Y-51268D01*
X96471Y-51179D01*
X96471Y-50943D01*
X96436Y-50859D01*
X96471Y-50776D01*
X96471Y-50679D01*
X96471Y-50443D01*
X96434Y-50354D01*
X96366Y-50285D01*
X96276Y-50248D01*
X96179Y-50248D01*
X95816Y-50248D01*
X95816Y-49165D01*
X95816Y-48921D01*
X95385Y-48921D01*
X95324Y-48982D01*
X95324Y-49031D01*
X95361Y-49120D01*
X95429Y-49189D01*
X95519Y-49226D01*
X95616Y-49226D01*
X95755Y-49226D01*
X95816Y-49165D01*
X95816Y-50248D01*
X95661Y-50248D01*
X95661Y-50210D01*
X95661Y-50209D01*
X95661Y-50209D01*
X95656Y-50183D01*
X95635Y-50079D01*
X95635Y-50079D01*
X95561Y-49968D01*
X95561Y-49968D01*
X95543Y-49950D01*
X95484Y-49808D01*
X95372Y-49695D01*
X95225Y-49634D01*
X95065Y-49634D01*
X94947Y-49683D01*
X94947Y-46995D01*
X94947Y-46994D01*
X94924Y-46879D01*
X94858Y-46781D01*
X94858Y-46781D01*
X94683Y-46606D01*
X94657Y-46588D01*
X94702Y-46481D01*
X94791Y-46481D01*
X94906Y-46433D01*
X94906Y-46448D01*
X94943Y-46537D01*
X95011Y-46606D01*
X95101Y-46643D01*
X95198Y-46643D01*
X95548Y-46643D01*
X95637Y-46606D01*
X95700Y-46544D01*
X95761Y-46606D01*
X95851Y-46643D01*
X95948Y-46643D01*
X96298Y-46643D01*
X96387Y-46606D01*
X96448Y-46545D01*
X96556Y-46545D01*
X96572Y-46562D01*
X96662Y-46599D01*
X96759Y-46599D01*
X97231Y-46599D01*
X97320Y-46562D01*
X97360Y-46523D01*
X97399Y-46562D01*
X97488Y-46599D01*
X97655Y-46599D01*
X97716Y-46538D01*
X97716Y-46176D01*
X97708Y-46176D01*
X97708Y-46063D01*
X97716Y-46063D01*
X97716Y-45701D01*
X97655Y-45640D01*
X97488Y-45640D01*
X97399Y-45677D01*
X97359Y-45716D01*
X97321Y-45677D01*
X97231Y-45640D01*
X97134Y-45640D01*
X96662Y-45640D01*
X96573Y-45677D01*
X96546Y-45704D01*
X96448Y-45704D01*
X96388Y-45643D01*
X96298Y-45606D01*
X96201Y-45606D01*
X95851Y-45606D01*
X95762Y-45643D01*
X95699Y-45705D01*
X95638Y-45643D01*
X95548Y-45606D01*
X95451Y-45606D01*
X95101Y-45606D01*
X95012Y-45643D01*
X94943Y-45711D01*
X94906Y-45801D01*
X94906Y-45806D01*
X94792Y-45758D01*
X94727Y-45758D01*
X94727Y-43725D01*
X94704Y-43609D01*
X94638Y-43511D01*
X92543Y-41416D01*
X92489Y-41379D01*
X92496Y-41362D01*
X92496Y-41218D01*
X92441Y-41085D01*
X92408Y-41052D01*
X92411Y-41049D01*
X92466Y-40917D01*
X92466Y-40773D01*
X92411Y-40640D01*
X92309Y-40538D01*
X92177Y-40483D01*
X92171Y-40483D01*
X91993Y-40306D01*
X92151Y-40240D01*
X92304Y-40088D01*
X92344Y-39992D01*
X92383Y-40087D01*
X92536Y-40240D01*
X92735Y-40323D01*
X92951Y-40323D01*
X93151Y-40240D01*
X93304Y-40088D01*
X93344Y-39992D01*
X93383Y-40087D01*
X93536Y-40240D01*
X93541Y-40242D01*
X93541Y-41187D01*
X93515Y-41198D01*
X93413Y-41300D01*
X93358Y-41432D01*
X93358Y-41576D01*
X93413Y-41709D01*
X93515Y-41811D01*
X93647Y-41866D01*
X93791Y-41866D01*
X93924Y-41811D01*
X93948Y-41787D01*
X93948Y-41881D01*
X94003Y-42014D01*
X94105Y-42116D01*
X94118Y-42121D01*
X94118Y-42161D01*
X94173Y-42294D01*
X94275Y-42396D01*
X94407Y-42451D01*
X94551Y-42451D01*
X94684Y-42396D01*
X94688Y-42392D01*
X94966Y-42392D01*
X94966Y-42413D01*
X95003Y-42502D01*
X95071Y-42571D01*
X95161Y-42608D01*
X95258Y-42608D01*
X95608Y-42608D01*
X95697Y-42571D01*
X95760Y-42509D01*
X95821Y-42571D01*
X95911Y-42608D01*
X96008Y-42608D01*
X96358Y-42608D01*
X96447Y-42571D01*
X96508Y-42510D01*
X96589Y-42510D01*
X96594Y-42523D01*
X96662Y-42592D01*
X96752Y-42629D01*
X96849Y-42629D01*
X97321Y-42629D01*
X97410Y-42592D01*
X97450Y-42553D01*
X97489Y-42592D01*
X97578Y-42629D01*
X97745Y-42629D01*
X97806Y-42568D01*
X97806Y-42206D01*
X97798Y-42206D01*
X97798Y-42093D01*
X97806Y-42093D01*
X97806Y-41731D01*
X97745Y-41670D01*
X97578Y-41670D01*
X97489Y-41707D01*
X97449Y-41746D01*
X97411Y-41707D01*
X97321Y-41670D01*
X97224Y-41670D01*
X96982Y-41670D01*
X96977Y-41669D01*
X96508Y-41669D01*
X96448Y-41608D01*
X96358Y-41571D01*
X96261Y-41571D01*
X95911Y-41571D01*
X95822Y-41608D01*
X95759Y-41670D01*
X95698Y-41608D01*
X95608Y-41571D01*
X95511Y-41571D01*
X95161Y-41571D01*
X95072Y-41608D01*
X95003Y-41676D01*
X94966Y-41766D01*
X94966Y-41787D01*
X94759Y-41787D01*
X95058Y-41489D01*
X95123Y-41391D01*
X95146Y-41275D01*
X95146Y-40323D01*
X95192Y-40323D01*
X95281Y-40286D01*
X95350Y-40218D01*
X95387Y-40128D01*
X95387Y-40031D01*
X95387Y-39702D01*
X97781Y-39702D01*
X98152Y-40073D01*
X98152Y-41672D01*
X98147Y-41670D01*
X97980Y-41670D01*
X97919Y-41731D01*
X97919Y-42093D01*
X97927Y-42093D01*
X97927Y-42206D01*
X97919Y-42206D01*
X97919Y-42568D01*
X97980Y-42629D01*
X98147Y-42629D01*
X98152Y-42627D01*
X98152Y-42732D01*
X98147Y-42730D01*
X97980Y-42730D01*
X97919Y-42791D01*
X97919Y-43153D01*
X97927Y-43153D01*
X97927Y-43266D01*
X97919Y-43266D01*
X97919Y-43628D01*
X97980Y-43689D01*
X98147Y-43689D01*
X98152Y-43687D01*
X98152Y-45683D01*
X98146Y-45677D01*
X98057Y-45640D01*
X97890Y-45640D01*
X97829Y-45701D01*
X97829Y-46063D01*
X97837Y-46063D01*
X97837Y-46176D01*
X97829Y-46176D01*
X97829Y-46538D01*
X97890Y-46599D01*
X98057Y-46599D01*
X98146Y-46562D01*
X98152Y-46556D01*
X98152Y-47179D01*
X98152Y-47179D01*
G37*
G54D44*
X98152Y-47179D02*
X98136Y-47163D01*
X98091Y-47208D01*
X98063Y-47115D01*
X97858Y-47045D01*
X97806Y-47049D01*
X97806Y-43628D01*
X97806Y-43266D01*
X97798Y-43266D01*
X97798Y-43153D01*
X97806Y-43153D01*
X97806Y-42791D01*
X97745Y-42730D01*
X97578Y-42730D01*
X97489Y-42767D01*
X97449Y-42806D01*
X97411Y-42767D01*
X97321Y-42730D01*
X97224Y-42730D01*
X96752Y-42730D01*
X96682Y-42759D01*
X96533Y-42759D01*
X96473Y-42698D01*
X96383Y-42661D01*
X96286Y-42661D01*
X95936Y-42661D01*
X95847Y-42698D01*
X95784Y-42760D01*
X95723Y-42698D01*
X95633Y-42661D01*
X95536Y-42661D01*
X95186Y-42661D01*
X95097Y-42698D01*
X95028Y-42766D01*
X95005Y-42823D01*
X94898Y-42823D01*
X94765Y-42878D01*
X94663Y-42980D01*
X94608Y-43112D01*
X94608Y-43256D01*
X94663Y-43389D01*
X94765Y-43491D01*
X94897Y-43546D01*
X95009Y-43546D01*
X95028Y-43592D01*
X95096Y-43661D01*
X95186Y-43698D01*
X95283Y-43698D01*
X95633Y-43698D01*
X95722Y-43661D01*
X95785Y-43599D01*
X95846Y-43661D01*
X95936Y-43698D01*
X96033Y-43698D01*
X96383Y-43698D01*
X96472Y-43661D01*
X96533Y-43600D01*
X96611Y-43600D01*
X96662Y-43652D01*
X96752Y-43689D01*
X96849Y-43689D01*
X97321Y-43689D01*
X97410Y-43652D01*
X97450Y-43613D01*
X97489Y-43652D01*
X97578Y-43689D01*
X97745Y-43689D01*
X97806Y-43628D01*
X97806Y-47049D01*
X97642Y-47059D01*
X97506Y-47115D01*
X97478Y-47208D01*
X97785Y-47514D01*
X97790Y-47509D01*
X97870Y-47589D01*
X97865Y-47595D01*
X97870Y-47600D01*
X97790Y-47680D01*
X97785Y-47675D01*
X97704Y-47755D01*
X97704Y-47595D01*
X97398Y-47288D01*
X97305Y-47316D01*
X97235Y-47521D01*
X97249Y-47737D01*
X97305Y-47873D01*
X97398Y-47901D01*
X97704Y-47595D01*
X97704Y-47755D01*
X97478Y-47981D01*
X97482Y-47993D01*
X97127Y-47993D01*
X97063Y-47966D01*
X96966Y-47966D01*
X96826Y-47966D01*
X96956Y-47836D01*
X96956Y-47836D01*
X96956Y-47836D01*
X97001Y-47770D01*
X97030Y-47725D01*
X97030Y-47725D01*
X97056Y-47595D01*
X97056Y-47327D01*
X97115Y-47185D01*
X97115Y-47025D01*
X97054Y-46878D01*
X96942Y-46765D01*
X96795Y-46704D01*
X96635Y-46704D01*
X96488Y-46765D01*
X96375Y-46877D01*
X96314Y-47024D01*
X96314Y-47039D01*
X96226Y-47003D01*
X96129Y-47003D01*
X95519Y-47003D01*
X95430Y-47040D01*
X95361Y-47108D01*
X95324Y-47198D01*
X95324Y-47295D01*
X95324Y-47531D01*
X95359Y-47615D01*
X95324Y-47698D01*
X95324Y-47795D01*
X95324Y-48031D01*
X95359Y-48115D01*
X95324Y-48198D01*
X95324Y-48295D01*
X95324Y-48531D01*
X95359Y-48615D01*
X95324Y-48698D01*
X95324Y-48747D01*
X95385Y-48808D01*
X95816Y-48808D01*
X95816Y-48800D01*
X95929Y-48800D01*
X95929Y-48808D01*
X95937Y-48808D01*
X95937Y-48921D01*
X95929Y-48921D01*
X95929Y-49165D01*
X95990Y-49226D01*
X96129Y-49226D01*
X96226Y-49226D01*
X96316Y-49189D01*
X96343Y-49161D01*
X96358Y-49197D01*
X96426Y-49266D01*
X96516Y-49303D01*
X96613Y-49303D01*
X96672Y-49303D01*
X96733Y-49242D01*
X96733Y-48991D01*
X96725Y-48991D01*
X96725Y-48878D01*
X96733Y-48878D01*
X96733Y-48870D01*
X96846Y-48870D01*
X96846Y-48878D01*
X97197Y-48878D01*
X97258Y-48817D01*
X97258Y-48761D01*
X97223Y-48676D01*
X97241Y-48676D01*
X97241Y-48702D01*
X97324Y-48902D01*
X97476Y-49055D01*
X97564Y-49091D01*
X97506Y-49115D01*
X97478Y-49208D01*
X97785Y-49514D01*
X97790Y-49509D01*
X97870Y-49589D01*
X97865Y-49595D01*
X97870Y-49600D01*
X97790Y-49680D01*
X97785Y-49675D01*
X97704Y-49755D01*
X97704Y-49595D01*
X97398Y-49288D01*
X97305Y-49316D01*
X97258Y-49455D01*
X97258Y-49108D01*
X97258Y-49052D01*
X97197Y-48991D01*
X96846Y-48991D01*
X96846Y-49242D01*
X96907Y-49303D01*
X96966Y-49303D01*
X97063Y-49303D01*
X97153Y-49266D01*
X97221Y-49197D01*
X97258Y-49108D01*
X97258Y-49455D01*
X97235Y-49521D01*
X97249Y-49737D01*
X97305Y-49873D01*
X97398Y-49901D01*
X97704Y-49595D01*
X97704Y-49755D01*
X97478Y-49981D01*
X97500Y-50051D01*
X97436Y-50051D01*
X97347Y-50088D01*
X97278Y-50156D01*
X97241Y-50246D01*
X97241Y-50343D01*
X97241Y-50943D01*
X97278Y-51032D01*
X97346Y-51101D01*
X97398Y-51122D01*
X97398Y-51184D01*
X97327Y-51213D01*
X97282Y-51258D01*
X97222Y-51258D01*
X97158Y-51231D01*
X97061Y-51231D01*
X96733Y-51231D01*
X96611Y-51231D01*
X96523Y-51268D01*
X96471Y-51268D01*
X96471Y-51179D01*
X96471Y-50943D01*
X96436Y-50859D01*
X96471Y-50776D01*
X96471Y-50679D01*
X96471Y-50443D01*
X96434Y-50354D01*
X96366Y-50285D01*
X96276Y-50248D01*
X96179Y-50248D01*
X95816Y-50248D01*
X95816Y-49165D01*
X95816Y-48921D01*
X95385Y-48921D01*
X95324Y-48982D01*
X95324Y-49031D01*
X95361Y-49120D01*
X95429Y-49189D01*
X95519Y-49226D01*
X95616Y-49226D01*
X95755Y-49226D01*
X95816Y-49165D01*
X95816Y-50248D01*
X95661Y-50248D01*
X95661Y-50210D01*
X95661Y-50209D01*
X95661Y-50209D01*
X95656Y-50183D01*
X95635Y-50079D01*
X95635Y-50079D01*
X95561Y-49968D01*
X95561Y-49968D01*
X95543Y-49950D01*
X95484Y-49808D01*
X95372Y-49695D01*
X95225Y-49634D01*
X95065Y-49634D01*
X94947Y-49683D01*
X94947Y-46995D01*
X94947Y-46994D01*
X94924Y-46879D01*
X94858Y-46781D01*
X94858Y-46781D01*
X94683Y-46606D01*
X94657Y-46588D01*
X94702Y-46481D01*
X94791Y-46481D01*
X94906Y-46433D01*
X94906Y-46448D01*
X94943Y-46537D01*
X95011Y-46606D01*
X95101Y-46643D01*
X95198Y-46643D01*
X95548Y-46643D01*
X95637Y-46606D01*
X95700Y-46544D01*
X95761Y-46606D01*
X95851Y-46643D01*
X95948Y-46643D01*
X96298Y-46643D01*
X96387Y-46606D01*
X96448Y-46545D01*
X96556Y-46545D01*
X96572Y-46562D01*
X96662Y-46599D01*
X96759Y-46599D01*
X97231Y-46599D01*
X97320Y-46562D01*
X97360Y-46523D01*
X97399Y-46562D01*
X97488Y-46599D01*
X97655Y-46599D01*
X97716Y-46538D01*
X97716Y-46176D01*
X97708Y-46176D01*
X97708Y-46063D01*
X97716Y-46063D01*
X97716Y-45701D01*
X97655Y-45640D01*
X97488Y-45640D01*
X97399Y-45677D01*
X97359Y-45716D01*
X97321Y-45677D01*
X97231Y-45640D01*
X97134Y-45640D01*
X96662Y-45640D01*
X96573Y-45677D01*
X96546Y-45704D01*
X96448Y-45704D01*
X96388Y-45643D01*
X96298Y-45606D01*
X96201Y-45606D01*
X95851Y-45606D01*
X95762Y-45643D01*
X95699Y-45705D01*
X95638Y-45643D01*
X95548Y-45606D01*
X95451Y-45606D01*
X95101Y-45606D01*
X95012Y-45643D01*
X94943Y-45711D01*
X94906Y-45801D01*
X94906Y-45806D01*
X94792Y-45758D01*
X94727Y-45758D01*
X94727Y-43725D01*
X94704Y-43609D01*
X94638Y-43511D01*
X92543Y-41416D01*
X92489Y-41379D01*
X92496Y-41362D01*
X92496Y-41218D01*
X92441Y-41085D01*
X92408Y-41052D01*
X92411Y-41049D01*
X92466Y-40917D01*
X92466Y-40773D01*
X92411Y-40640D01*
X92309Y-40538D01*
X92177Y-40483D01*
X92171Y-40483D01*
X91993Y-40306D01*
X92151Y-40240D01*
X92304Y-40088D01*
X92344Y-39992D01*
X92383Y-40087D01*
X92536Y-40240D01*
X92735Y-40323D01*
X92951Y-40323D01*
X93151Y-40240D01*
X93304Y-40088D01*
X93344Y-39992D01*
X93383Y-40087D01*
X93536Y-40240D01*
X93541Y-40242D01*
X93541Y-41187D01*
X93515Y-41198D01*
X93413Y-41300D01*
X93358Y-41432D01*
X93358Y-41576D01*
X93413Y-41709D01*
X93515Y-41811D01*
X93647Y-41866D01*
X93791Y-41866D01*
X93924Y-41811D01*
X93948Y-41787D01*
X93948Y-41881D01*
X94003Y-42014D01*
X94105Y-42116D01*
X94118Y-42121D01*
X94118Y-42161D01*
X94173Y-42294D01*
X94275Y-42396D01*
X94407Y-42451D01*
X94551Y-42451D01*
X94684Y-42396D01*
X94688Y-42392D01*
X94966Y-42392D01*
X94966Y-42413D01*
X95003Y-42502D01*
X95071Y-42571D01*
X95161Y-42608D01*
X95258Y-42608D01*
X95608Y-42608D01*
X95697Y-42571D01*
X95760Y-42509D01*
X95821Y-42571D01*
X95911Y-42608D01*
X96008Y-42608D01*
X96358Y-42608D01*
X96447Y-42571D01*
X96508Y-42510D01*
X96589Y-42510D01*
X96594Y-42523D01*
X96662Y-42592D01*
X96752Y-42629D01*
X96849Y-42629D01*
X97321Y-42629D01*
X97410Y-42592D01*
X97450Y-42553D01*
X97489Y-42592D01*
X97578Y-42629D01*
X97745Y-42629D01*
X97806Y-42568D01*
X97806Y-42206D01*
X97798Y-42206D01*
X97798Y-42093D01*
X97806Y-42093D01*
X97806Y-41731D01*
X97745Y-41670D01*
X97578Y-41670D01*
X97489Y-41707D01*
X97449Y-41746D01*
X97411Y-41707D01*
X97321Y-41670D01*
X97224Y-41670D01*
X96982Y-41670D01*
X96977Y-41669D01*
X96508Y-41669D01*
X96448Y-41608D01*
X96358Y-41571D01*
X96261Y-41571D01*
X95911Y-41571D01*
X95822Y-41608D01*
X95759Y-41670D01*
X95698Y-41608D01*
X95608Y-41571D01*
X95511Y-41571D01*
X95161Y-41571D01*
X95072Y-41608D01*
X95003Y-41676D01*
X94966Y-41766D01*
X94966Y-41787D01*
X94759Y-41787D01*
X95058Y-41489D01*
X95123Y-41391D01*
X95146Y-41275D01*
X95146Y-40323D01*
X95192Y-40323D01*
X95281Y-40286D01*
X95350Y-40218D01*
X95387Y-40128D01*
X95387Y-40031D01*
X95387Y-39702D01*
X97781Y-39702D01*
X98152Y-40073D01*
X98152Y-41672D01*
X98147Y-41670D01*
X97980Y-41670D01*
X97919Y-41731D01*
X97919Y-42093D01*
X97927Y-42093D01*
X97927Y-42206D01*
X97919Y-42206D01*
X97919Y-42568D01*
X97980Y-42629D01*
X98147Y-42629D01*
X98152Y-42627D01*
X98152Y-42732D01*
X98147Y-42730D01*
X97980Y-42730D01*
X97919Y-42791D01*
X97919Y-43153D01*
X97927Y-43153D01*
X97927Y-43266D01*
X97919Y-43266D01*
X97919Y-43628D01*
X97980Y-43689D01*
X98147Y-43689D01*
X98152Y-43687D01*
X98152Y-45683D01*
X98146Y-45677D01*
X98057Y-45640D01*
X97890Y-45640D01*
X97829Y-45701D01*
X97829Y-46063D01*
X97837Y-46063D01*
X97837Y-46176D01*
X97829Y-46176D01*
X97829Y-46538D01*
X97890Y-46599D01*
X98057Y-46599D01*
X98146Y-46562D01*
X98152Y-46556D01*
X98152Y-47179D01*
G54D10*
G36*
X98152Y-58231D02*
X97546Y-58837D01*
X95387Y-58837D01*
X95387Y-58431D01*
X95350Y-58342D01*
X95282Y-58273D01*
X95192Y-58236D01*
X95155Y-58236D01*
X95304Y-58088D01*
X95387Y-57888D01*
X95387Y-57672D01*
X95305Y-57472D01*
X95152Y-57319D01*
X94952Y-57236D01*
X94736Y-57236D01*
X94702Y-57250D01*
X94702Y-55001D01*
X94716Y-55001D01*
X94846Y-54947D01*
X94848Y-54952D01*
X94916Y-55021D01*
X95006Y-55058D01*
X95103Y-55058D01*
X95453Y-55058D01*
X95542Y-55021D01*
X95605Y-54959D01*
X95666Y-55021D01*
X95756Y-55058D01*
X95853Y-55058D01*
X96203Y-55058D01*
X96292Y-55021D01*
X96353Y-54960D01*
X96496Y-54960D01*
X96512Y-54977D01*
X96602Y-55014D01*
X96699Y-55014D01*
X97171Y-55014D01*
X97260Y-54977D01*
X97300Y-54938D01*
X97339Y-54977D01*
X97428Y-55014D01*
X97595Y-55014D01*
X97656Y-54953D01*
X97656Y-54591D01*
X97648Y-54591D01*
X97648Y-54478D01*
X97656Y-54478D01*
X97656Y-54116D01*
X97595Y-54055D01*
X97428Y-54055D01*
X97339Y-54092D01*
X97299Y-54131D01*
X97261Y-54092D01*
X97171Y-54055D01*
X97074Y-54055D01*
X96602Y-54055D01*
X96513Y-54092D01*
X96486Y-54119D01*
X96353Y-54119D01*
X96293Y-54058D01*
X96203Y-54021D01*
X96106Y-54021D01*
X95866Y-54021D01*
X95866Y-52410D01*
X95866Y-52166D01*
X95435Y-52166D01*
X95374Y-52227D01*
X95374Y-52276D01*
X95411Y-52365D01*
X95479Y-52434D01*
X95569Y-52471D01*
X95666Y-52471D01*
X95805Y-52471D01*
X95866Y-52410D01*
X95866Y-54021D01*
X95756Y-54021D01*
X95667Y-54058D01*
X95604Y-54120D01*
X95543Y-54058D01*
X95453Y-54021D01*
X95356Y-54021D01*
X95006Y-54021D01*
X94917Y-54058D01*
X94848Y-54126D01*
X94811Y-54216D01*
X94811Y-54237D01*
X94745Y-54237D01*
X94702Y-54246D01*
X94702Y-53522D01*
X94769Y-53550D01*
X94929Y-53550D01*
X95031Y-53508D01*
X95085Y-53562D01*
X95174Y-53600D01*
X95271Y-53600D01*
X95586Y-53600D01*
X95675Y-53563D01*
X95744Y-53494D01*
X95781Y-53405D01*
X95781Y-53308D01*
X95781Y-52914D01*
X95744Y-52825D01*
X95676Y-52757D01*
X95586Y-52719D01*
X95489Y-52719D01*
X95174Y-52719D01*
X95085Y-52756D01*
X95045Y-52797D01*
X94932Y-52750D01*
X94947Y-52675D01*
X94947Y-50386D01*
X94978Y-50399D01*
X94978Y-50960D01*
X95004Y-51090D01*
X95078Y-51201D01*
X95228Y-51351D01*
X95228Y-51351D01*
X95339Y-51425D01*
X95378Y-51433D01*
X95374Y-51443D01*
X95374Y-51540D01*
X95374Y-51776D01*
X95409Y-51860D01*
X95374Y-51943D01*
X95374Y-51992D01*
X95435Y-52053D01*
X95866Y-52053D01*
X95866Y-52045D01*
X95979Y-52045D01*
X95979Y-52053D01*
X95987Y-52053D01*
X95987Y-52166D01*
X95979Y-52166D01*
X95979Y-52410D01*
X96040Y-52471D01*
X96179Y-52471D01*
X96276Y-52471D01*
X96366Y-52434D01*
X96419Y-52380D01*
X96453Y-52462D01*
X96521Y-52531D01*
X96611Y-52568D01*
X96708Y-52568D01*
X96767Y-52568D01*
X96828Y-52507D01*
X96828Y-52256D01*
X96820Y-52256D01*
X96820Y-52143D01*
X96828Y-52143D01*
X96828Y-52135D01*
X96941Y-52135D01*
X96941Y-52143D01*
X96949Y-52143D01*
X96949Y-52256D01*
X96941Y-52256D01*
X96941Y-52507D01*
X97002Y-52568D01*
X97061Y-52568D01*
X97158Y-52568D01*
X97221Y-52542D01*
X97221Y-52568D01*
X97258Y-52657D01*
X97326Y-52726D01*
X97361Y-52740D01*
X97283Y-52818D01*
X97056Y-52818D01*
X96994Y-52757D01*
X96905Y-52719D01*
X96828Y-52719D01*
X96808Y-52719D01*
X96493Y-52719D01*
X96404Y-52756D01*
X96335Y-52825D01*
X96298Y-52914D01*
X96298Y-53011D01*
X96298Y-53405D01*
X96335Y-53494D01*
X96403Y-53562D01*
X96493Y-53600D01*
X96590Y-53600D01*
X96905Y-53600D01*
X96994Y-53563D01*
X97056Y-53501D01*
X97425Y-53501D01*
X97555Y-53475D01*
X97666Y-53401D01*
X97981Y-53086D01*
X97981Y-53086D01*
X97981Y-53086D01*
X98055Y-52975D01*
X98081Y-52845D01*
X98081Y-52755D01*
X98152Y-52726D01*
X98152Y-54158D01*
X98086Y-54092D01*
X97997Y-54055D01*
X97830Y-54055D01*
X97769Y-54116D01*
X97769Y-54478D01*
X97777Y-54478D01*
X97777Y-54591D01*
X97769Y-54591D01*
X97769Y-54953D01*
X97830Y-55014D01*
X97997Y-55014D01*
X98086Y-54977D01*
X98152Y-54911D01*
X98152Y-58231D01*
X98152Y-58231D01*
G37*
G54D44*
X98152Y-58231D02*
X97546Y-58837D01*
X95387Y-58837D01*
X95387Y-58431D01*
X95350Y-58342D01*
X95282Y-58273D01*
X95192Y-58236D01*
X95155Y-58236D01*
X95304Y-58088D01*
X95387Y-57888D01*
X95387Y-57672D01*
X95305Y-57472D01*
X95152Y-57319D01*
X94952Y-57236D01*
X94736Y-57236D01*
X94702Y-57250D01*
X94702Y-55001D01*
X94716Y-55001D01*
X94846Y-54947D01*
X94848Y-54952D01*
X94916Y-55021D01*
X95006Y-55058D01*
X95103Y-55058D01*
X95453Y-55058D01*
X95542Y-55021D01*
X95605Y-54959D01*
X95666Y-55021D01*
X95756Y-55058D01*
X95853Y-55058D01*
X96203Y-55058D01*
X96292Y-55021D01*
X96353Y-54960D01*
X96496Y-54960D01*
X96512Y-54977D01*
X96602Y-55014D01*
X96699Y-55014D01*
X97171Y-55014D01*
X97260Y-54977D01*
X97300Y-54938D01*
X97339Y-54977D01*
X97428Y-55014D01*
X97595Y-55014D01*
X97656Y-54953D01*
X97656Y-54591D01*
X97648Y-54591D01*
X97648Y-54478D01*
X97656Y-54478D01*
X97656Y-54116D01*
X97595Y-54055D01*
X97428Y-54055D01*
X97339Y-54092D01*
X97299Y-54131D01*
X97261Y-54092D01*
X97171Y-54055D01*
X97074Y-54055D01*
X96602Y-54055D01*
X96513Y-54092D01*
X96486Y-54119D01*
X96353Y-54119D01*
X96293Y-54058D01*
X96203Y-54021D01*
X96106Y-54021D01*
X95866Y-54021D01*
X95866Y-52410D01*
X95866Y-52166D01*
X95435Y-52166D01*
X95374Y-52227D01*
X95374Y-52276D01*
X95411Y-52365D01*
X95479Y-52434D01*
X95569Y-52471D01*
X95666Y-52471D01*
X95805Y-52471D01*
X95866Y-52410D01*
X95866Y-54021D01*
X95756Y-54021D01*
X95667Y-54058D01*
X95604Y-54120D01*
X95543Y-54058D01*
X95453Y-54021D01*
X95356Y-54021D01*
X95006Y-54021D01*
X94917Y-54058D01*
X94848Y-54126D01*
X94811Y-54216D01*
X94811Y-54237D01*
X94745Y-54237D01*
X94702Y-54246D01*
X94702Y-53522D01*
X94769Y-53550D01*
X94929Y-53550D01*
X95031Y-53508D01*
X95085Y-53562D01*
X95174Y-53600D01*
X95271Y-53600D01*
X95586Y-53600D01*
X95675Y-53563D01*
X95744Y-53494D01*
X95781Y-53405D01*
X95781Y-53308D01*
X95781Y-52914D01*
X95744Y-52825D01*
X95676Y-52757D01*
X95586Y-52719D01*
X95489Y-52719D01*
X95174Y-52719D01*
X95085Y-52756D01*
X95045Y-52797D01*
X94932Y-52750D01*
X94947Y-52675D01*
X94947Y-50386D01*
X94978Y-50399D01*
X94978Y-50960D01*
X95004Y-51090D01*
X95078Y-51201D01*
X95228Y-51351D01*
X95228Y-51351D01*
X95339Y-51425D01*
X95378Y-51433D01*
X95374Y-51443D01*
X95374Y-51540D01*
X95374Y-51776D01*
X95409Y-51860D01*
X95374Y-51943D01*
X95374Y-51992D01*
X95435Y-52053D01*
X95866Y-52053D01*
X95866Y-52045D01*
X95979Y-52045D01*
X95979Y-52053D01*
X95987Y-52053D01*
X95987Y-52166D01*
X95979Y-52166D01*
X95979Y-52410D01*
X96040Y-52471D01*
X96179Y-52471D01*
X96276Y-52471D01*
X96366Y-52434D01*
X96419Y-52380D01*
X96453Y-52462D01*
X96521Y-52531D01*
X96611Y-52568D01*
X96708Y-52568D01*
X96767Y-52568D01*
X96828Y-52507D01*
X96828Y-52256D01*
X96820Y-52256D01*
X96820Y-52143D01*
X96828Y-52143D01*
X96828Y-52135D01*
X96941Y-52135D01*
X96941Y-52143D01*
X96949Y-52143D01*
X96949Y-52256D01*
X96941Y-52256D01*
X96941Y-52507D01*
X97002Y-52568D01*
X97061Y-52568D01*
X97158Y-52568D01*
X97221Y-52542D01*
X97221Y-52568D01*
X97258Y-52657D01*
X97326Y-52726D01*
X97361Y-52740D01*
X97283Y-52818D01*
X97056Y-52818D01*
X96994Y-52757D01*
X96905Y-52719D01*
X96828Y-52719D01*
X96808Y-52719D01*
X96493Y-52719D01*
X96404Y-52756D01*
X96335Y-52825D01*
X96298Y-52914D01*
X96298Y-53011D01*
X96298Y-53405D01*
X96335Y-53494D01*
X96403Y-53562D01*
X96493Y-53600D01*
X96590Y-53600D01*
X96905Y-53600D01*
X96994Y-53563D01*
X97056Y-53501D01*
X97425Y-53501D01*
X97555Y-53475D01*
X97666Y-53401D01*
X97981Y-53086D01*
X97981Y-53086D01*
X97981Y-53086D01*
X98055Y-52975D01*
X98081Y-52845D01*
X98081Y-52755D01*
X98152Y-52726D01*
X98152Y-54158D01*
X98086Y-54092D01*
X97997Y-54055D01*
X97830Y-54055D01*
X97769Y-54116D01*
X97769Y-54478D01*
X97777Y-54478D01*
X97777Y-54591D01*
X97769Y-54591D01*
X97769Y-54953D01*
X97830Y-55014D01*
X97997Y-55014D01*
X98086Y-54977D01*
X98152Y-54911D01*
X98152Y-58231D01*
M02*
